<mxfile host="app.diagrams.net" modified="2022-12-22T14:27:10.368Z" agent="5.0 (Windows NT 10.0; Win64; x64) AppleWebKit/537.36 (KHTML, like Gecko) Chrome/108.0.0.0 Safari/537.36" etag="IIFSwyQo015PlioN0Z2Q" version="20.7.4" type="github" pages="10">
  <diagram id="Zhix4vkLkVhAdCfd1Lj_" name="main">
    <mxGraphModel dx="1050" dy="541" grid="1" gridSize="10" guides="1" tooltips="1" connect="1" arrows="1" fold="1" page="1" pageScale="1" pageWidth="827" pageHeight="1169" math="0" shadow="0">
      <root>
        <mxCell id="0" />
        <mxCell id="1" parent="0" />
        <mxCell id="e0lP8BvbpKI-FnSOR8ue-3" value="" style="edgeStyle=orthogonalEdgeStyle;rounded=0;orthogonalLoop=1;jettySize=auto;html=1;" parent="1" source="e0lP8BvbpKI-FnSOR8ue-1" target="e0lP8BvbpKI-FnSOR8ue-2" edge="1">
          <mxGeometry relative="1" as="geometry" />
        </mxCell>
        <mxCell id="e0lP8BvbpKI-FnSOR8ue-1" value="Start" style="ellipse;whiteSpace=wrap;html=1;" parent="1" vertex="1">
          <mxGeometry x="354" y="20" width="120" height="80" as="geometry" />
        </mxCell>
        <mxCell id="e0lP8BvbpKI-FnSOR8ue-8" value="" style="edgeStyle=orthogonalEdgeStyle;rounded=0;orthogonalLoop=1;jettySize=auto;html=1;" parent="1" source="e0lP8BvbpKI-FnSOR8ue-2" target="e0lP8BvbpKI-FnSOR8ue-7" edge="1">
          <mxGeometry relative="1" as="geometry" />
        </mxCell>
        <mxCell id="e0lP8BvbpKI-FnSOR8ue-2" value="&lt;div&gt;static Scanner sc = new Scanner(System.in);&lt;/div&gt;&lt;div&gt;&amp;nbsp; &amp;nbsp; static String[] judulKolom = {&quot;Nama Bahan&quot;, &quot;Bahan Baik&quot;, &quot;Bahan Busuk&quot;, &quot;Total Bahan&quot;};&lt;/div&gt;&lt;div&gt;&amp;nbsp; &amp;nbsp; static String[] namaBahan = {&quot;Tomat&quot;, &quot;Telur&quot;, &quot;Timun&quot;, &quot;Wortel&quot;, &quot;Kentang&quot;, null, null, null, null, null};&lt;/div&gt;&lt;div&gt;&amp;nbsp; &amp;nbsp; static int jumlahBahan = 5;&lt;/div&gt;&lt;div&gt;&amp;nbsp; &amp;nbsp; static int[][] tabelBahan = {&lt;/div&gt;&lt;div&gt;&amp;nbsp; &amp;nbsp; &amp;nbsp; &amp;nbsp; {0, 0, 0},&lt;/div&gt;&lt;div&gt;&amp;nbsp; &amp;nbsp; &amp;nbsp; &amp;nbsp; {0, 0, 0},&lt;/div&gt;&lt;div&gt;&amp;nbsp; &amp;nbsp; &amp;nbsp; &amp;nbsp; {0, 0, 0},&lt;/div&gt;&lt;div&gt;&amp;nbsp; &amp;nbsp; &amp;nbsp; &amp;nbsp; {0, 0, 0},&lt;/div&gt;&lt;div&gt;&amp;nbsp; &amp;nbsp; &amp;nbsp; &amp;nbsp; {0, 0, 0},&lt;/div&gt;&lt;div&gt;&amp;nbsp; &amp;nbsp; &amp;nbsp; &amp;nbsp; {0, 0, 0},&lt;/div&gt;&lt;div&gt;&amp;nbsp; &amp;nbsp; &amp;nbsp; &amp;nbsp; {0, 0, 0},&lt;/div&gt;&lt;div&gt;&amp;nbsp; &amp;nbsp; &amp;nbsp; &amp;nbsp; {0, 0, 0},&lt;/div&gt;&lt;div&gt;&amp;nbsp; &amp;nbsp; &amp;nbsp; &amp;nbsp; {0, 0, 0},&lt;/div&gt;&lt;div&gt;&amp;nbsp; &amp;nbsp; &amp;nbsp; &amp;nbsp; {0, 0, 0}&lt;/div&gt;&lt;div&gt;&amp;nbsp; &amp;nbsp; };&lt;/div&gt;&lt;div&gt;int inputMenu;&lt;/div&gt;" style="shape=hexagon;perimeter=hexagonPerimeter2;whiteSpace=wrap;html=1;fixedSize=1;" parent="1" vertex="1">
          <mxGeometry x="77.5" y="120" width="673" height="260" as="geometry" />
        </mxCell>
        <mxCell id="e0lP8BvbpKI-FnSOR8ue-10" value="" style="edgeStyle=orthogonalEdgeStyle;rounded=0;orthogonalLoop=1;jettySize=auto;html=1;" parent="1" source="e0lP8BvbpKI-FnSOR8ue-7" target="e0lP8BvbpKI-FnSOR8ue-9" edge="1">
          <mxGeometry relative="1" as="geometry" />
        </mxCell>
        <mxCell id="e0lP8BvbpKI-FnSOR8ue-7" value="login();" style="shape=process;whiteSpace=wrap;html=1;backgroundOutline=1;" parent="1" vertex="1">
          <mxGeometry x="354" y="403" width="120" height="60" as="geometry" />
        </mxCell>
        <mxCell id="e0lP8BvbpKI-FnSOR8ue-12" value="" style="edgeStyle=orthogonalEdgeStyle;rounded=0;orthogonalLoop=1;jettySize=auto;html=1;" parent="1" source="e0lP8BvbpKI-FnSOR8ue-9" target="e0lP8BvbpKI-FnSOR8ue-11" edge="1">
          <mxGeometry relative="1" as="geometry" />
        </mxCell>
        <mxCell id="e0lP8BvbpKI-FnSOR8ue-9" value="listMenu();" style="shape=process;whiteSpace=wrap;html=1;backgroundOutline=1;" parent="1" vertex="1">
          <mxGeometry x="354" y="503" width="120" height="60" as="geometry" />
        </mxCell>
        <mxCell id="e0lP8BvbpKI-FnSOR8ue-14" value="" style="edgeStyle=orthogonalEdgeStyle;rounded=0;orthogonalLoop=1;jettySize=auto;html=1;" parent="1" source="e0lP8BvbpKI-FnSOR8ue-11" target="e0lP8BvbpKI-FnSOR8ue-13" edge="1">
          <mxGeometry relative="1" as="geometry" />
        </mxCell>
        <mxCell id="e0lP8BvbpKI-FnSOR8ue-11" value="input inputMenu" style="shape=parallelogram;perimeter=parallelogramPerimeter;whiteSpace=wrap;html=1;fixedSize=1;" parent="1" vertex="1">
          <mxGeometry x="354" y="603" width="120" height="60" as="geometry" />
        </mxCell>
        <mxCell id="e0lP8BvbpKI-FnSOR8ue-16" value="" style="edgeStyle=orthogonalEdgeStyle;rounded=0;orthogonalLoop=1;jettySize=auto;html=1;" parent="1" source="e0lP8BvbpKI-FnSOR8ue-13" target="e0lP8BvbpKI-FnSOR8ue-15" edge="1">
          <mxGeometry relative="1" as="geometry" />
        </mxCell>
        <mxCell id="e0lP8BvbpKI-FnSOR8ue-13" value="pilihMenu(inputMenu);" style="shape=process;whiteSpace=wrap;html=1;backgroundOutline=1;" parent="1" vertex="1">
          <mxGeometry x="326" y="703" width="176" height="60" as="geometry" />
        </mxCell>
        <mxCell id="e0lP8BvbpKI-FnSOR8ue-18" value="" style="edgeStyle=orthogonalEdgeStyle;rounded=0;orthogonalLoop=1;jettySize=auto;html=1;" parent="1" source="e0lP8BvbpKI-FnSOR8ue-15" target="e0lP8BvbpKI-FnSOR8ue-17" edge="1">
          <mxGeometry relative="1" as="geometry" />
        </mxCell>
        <mxCell id="e0lP8BvbpKI-FnSOR8ue-19" style="edgeStyle=orthogonalEdgeStyle;rounded=0;orthogonalLoop=1;jettySize=auto;html=1;exitX=1;exitY=0.5;exitDx=0;exitDy=0;" parent="1" source="e0lP8BvbpKI-FnSOR8ue-15" edge="1">
          <mxGeometry relative="1" as="geometry">
            <mxPoint x="414" y="483" as="targetPoint" />
            <Array as="points">
              <mxPoint x="610" y="853" />
              <mxPoint x="610" y="483" />
              <mxPoint x="474" y="483" />
            </Array>
          </mxGeometry>
        </mxCell>
        <mxCell id="e0lP8BvbpKI-FnSOR8ue-15" value="inputMenu != 6" style="rhombus;whiteSpace=wrap;html=1;" parent="1" vertex="1">
          <mxGeometry x="356" y="803" width="116" height="100" as="geometry" />
        </mxCell>
        <mxCell id="e0lP8BvbpKI-FnSOR8ue-17" value="End" style="ellipse;whiteSpace=wrap;html=1;" parent="1" vertex="1">
          <mxGeometry x="354" y="943" width="120" height="60" as="geometry" />
        </mxCell>
        <mxCell id="e0lP8BvbpKI-FnSOR8ue-20" value="True" style="text;html=1;strokeColor=none;fillColor=none;align=center;verticalAlign=middle;whiteSpace=wrap;rounded=0;" parent="1" vertex="1">
          <mxGeometry x="474" y="823" width="60" height="30" as="geometry" />
        </mxCell>
        <mxCell id="e0lP8BvbpKI-FnSOR8ue-21" value="False" style="text;html=1;strokeColor=none;fillColor=none;align=center;verticalAlign=middle;whiteSpace=wrap;rounded=0;" parent="1" vertex="1">
          <mxGeometry x="414" y="903" width="60" height="30" as="geometry" />
        </mxCell>
        <mxCell id="AG4ATzRzrb04Jlk0GFh1-1" value="main" style="text;strokeColor=none;fillColor=none;html=1;fontSize=24;fontStyle=1;verticalAlign=middle;align=center;" parent="1" vertex="1">
          <mxGeometry x="727" width="100" height="40" as="geometry" />
        </mxCell>
      </root>
    </mxGraphModel>
  </diagram>
  <diagram id="_NDZXdFGFRYtInHmxb2F" name="time">
    <mxGraphModel dx="1050" dy="541" grid="1" gridSize="10" guides="1" tooltips="1" connect="1" arrows="1" fold="1" page="1" pageScale="1" pageWidth="827" pageHeight="1169" math="0" shadow="0">
      <root>
        <mxCell id="0" />
        <mxCell id="1" parent="0" />
        <mxCell id="0OocWu03tkYAI7l0xfqw-3" value="" style="edgeStyle=orthogonalEdgeStyle;rounded=0;orthogonalLoop=1;jettySize=auto;html=1;" parent="1" source="0OocWu03tkYAI7l0xfqw-1" target="0OocWu03tkYAI7l0xfqw-2" edge="1">
          <mxGeometry relative="1" as="geometry" />
        </mxCell>
        <mxCell id="0OocWu03tkYAI7l0xfqw-1" value="time()" style="ellipse;whiteSpace=wrap;html=1;" parent="1" vertex="1">
          <mxGeometry x="350" y="40" width="120" height="70" as="geometry" />
        </mxCell>
        <mxCell id="0OocWu03tkYAI7l0xfqw-5" value="" style="edgeStyle=orthogonalEdgeStyle;rounded=0;orthogonalLoop=1;jettySize=auto;html=1;entryX=0.5;entryY=0;entryDx=0;entryDy=0;" parent="1" source="0OocWu03tkYAI7l0xfqw-2" target="4zr08NmSfgvKREN71lwo-1" edge="1">
          <mxGeometry relative="1" as="geometry">
            <mxPoint x="410" y="290" as="targetPoint" />
          </mxGeometry>
        </mxCell>
        <mxCell id="0OocWu03tkYAI7l0xfqw-2" value="&lt;div&gt;LocalDateTime realtime = LocalDateTime.now();&lt;/div&gt;&lt;div&gt;&amp;nbsp; &amp;nbsp; DateTimeFormatter formatted = DateTimeFormatter.ofPattern(&quot;EEEE, dd MMMM yyyy | HH:mm:ss&quot;);&lt;/div&gt;&lt;div&gt;&amp;nbsp; &amp;nbsp; String waktu = realtime.format(formatted);&lt;/div&gt;" style="shape=hexagon;perimeter=hexagonPerimeter2;whiteSpace=wrap;html=1;fixedSize=1;" parent="1" vertex="1">
          <mxGeometry x="120" y="150" width="580" height="90" as="geometry" />
        </mxCell>
        <mxCell id="0OocWu03tkYAI7l0xfqw-7" style="edgeStyle=orthogonalEdgeStyle;rounded=0;orthogonalLoop=1;jettySize=auto;html=1;exitX=0.5;exitY=1;exitDx=0;exitDy=0;entryX=0.5;entryY=0;entryDx=0;entryDy=0;" parent="1" source="4zr08NmSfgvKREN71lwo-1" target="0OocWu03tkYAI7l0xfqw-6" edge="1">
          <mxGeometry relative="1" as="geometry">
            <mxPoint x="410" y="350" as="sourcePoint" />
          </mxGeometry>
        </mxCell>
        <mxCell id="0OocWu03tkYAI7l0xfqw-6" value="return" style="ellipse;whiteSpace=wrap;html=1;" parent="1" vertex="1">
          <mxGeometry x="350" y="390" width="120" height="60" as="geometry" />
        </mxCell>
        <mxCell id="EiltM3ul00mC4iO-NnkM-1" value="time" style="text;strokeColor=none;fillColor=none;html=1;fontSize=24;fontStyle=1;verticalAlign=middle;align=center;" parent="1" vertex="1">
          <mxGeometry x="727" width="100" height="40" as="geometry" />
        </mxCell>
        <mxCell id="4zr08NmSfgvKREN71lwo-1" value="output waktu" style="shape=parallelogram;perimeter=parallelogramPerimeter;whiteSpace=wrap;html=1;fixedSize=1;" parent="1" vertex="1">
          <mxGeometry x="350" y="290" width="120" height="60" as="geometry" />
        </mxCell>
      </root>
    </mxGraphModel>
  </diagram>
  <diagram id="kxfaUF5rJcpw0Y5cp9gm" name="login">
    <mxGraphModel dx="1750" dy="902" grid="1" gridSize="10" guides="1" tooltips="1" connect="1" arrows="1" fold="1" page="1" pageScale="1" pageWidth="827" pageHeight="1169" math="0" shadow="0">
      <root>
        <mxCell id="0" />
        <mxCell id="1" parent="0" />
        <mxCell id="H6X9lI4uTNKZfQ2rzHoF-4" value="" style="edgeStyle=orthogonalEdgeStyle;rounded=0;orthogonalLoop=1;jettySize=auto;html=1;" parent="1" source="H6X9lI4uTNKZfQ2rzHoF-2" target="H6X9lI4uTNKZfQ2rzHoF-3" edge="1">
          <mxGeometry relative="1" as="geometry" />
        </mxCell>
        <mxCell id="H6X9lI4uTNKZfQ2rzHoF-2" value="login()" style="ellipse;whiteSpace=wrap;html=1;" parent="1" vertex="1">
          <mxGeometry x="354" y="50" width="120" height="80" as="geometry" />
        </mxCell>
        <mxCell id="DgRfjs2XJLAv0GOmimuZ-2" value="" style="edgeStyle=orthogonalEdgeStyle;rounded=0;orthogonalLoop=1;jettySize=auto;html=1;entryX=0.5;entryY=0;entryDx=0;entryDy=0;" parent="1" source="H6X9lI4uTNKZfQ2rzHoF-3" target="DgRfjs2XJLAv0GOmimuZ-8" edge="1">
          <mxGeometry relative="1" as="geometry">
            <mxPoint x="414" y="320" as="targetPoint" />
          </mxGeometry>
        </mxCell>
        <mxCell id="H6X9lI4uTNKZfQ2rzHoF-3" value="&lt;div&gt;String username = &quot;admin&quot;;&lt;/div&gt;&lt;div&gt;&lt;span style=&quot;background-color: initial;&quot;&gt;String password = &quot;admin&quot;;&lt;/span&gt;&lt;/div&gt;&lt;div&gt;&lt;span style=&quot;background-color: initial;&quot;&gt;String cekUsername, cekPassword;&lt;/span&gt;&lt;/div&gt;" style="shape=hexagon;perimeter=hexagonPerimeter2;whiteSpace=wrap;html=1;fixedSize=1;align=center;" parent="1" vertex="1">
          <mxGeometry x="286" y="170" width="256" height="100" as="geometry" />
        </mxCell>
        <mxCell id="DgRfjs2XJLAv0GOmimuZ-11" style="edgeStyle=orthogonalEdgeStyle;rounded=0;orthogonalLoop=1;jettySize=auto;html=1;exitX=0.5;exitY=1;exitDx=0;exitDy=0;entryX=0.5;entryY=0;entryDx=0;entryDy=0;" parent="1" source="DgRfjs2XJLAv0GOmimuZ-8" target="DgRfjs2XJLAv0GOmimuZ-10" edge="1">
          <mxGeometry relative="1" as="geometry" />
        </mxCell>
        <mxCell id="DgRfjs2XJLAv0GOmimuZ-8" value="input cekUsername" style="shape=parallelogram;perimeter=parallelogramPerimeter;whiteSpace=wrap;html=1;fixedSize=1;" parent="1" vertex="1">
          <mxGeometry x="331" y="320" width="166" height="60" as="geometry" />
        </mxCell>
        <mxCell id="DgRfjs2XJLAv0GOmimuZ-13" value="" style="edgeStyle=orthogonalEdgeStyle;rounded=0;orthogonalLoop=1;jettySize=auto;html=1;" parent="1" source="DgRfjs2XJLAv0GOmimuZ-10" target="DgRfjs2XJLAv0GOmimuZ-12" edge="1">
          <mxGeometry relative="1" as="geometry" />
        </mxCell>
        <mxCell id="DgRfjs2XJLAv0GOmimuZ-15" value="" style="edgeStyle=orthogonalEdgeStyle;rounded=0;orthogonalLoop=1;jettySize=auto;html=1;entryX=0;entryY=0.5;entryDx=0;entryDy=0;" parent="1" source="DgRfjs2XJLAv0GOmimuZ-10" target="cNOEtJhqYKkTEVZPSIJg-2" edge="1">
          <mxGeometry relative="1" as="geometry">
            <mxPoint x="562.5" y="477.5" as="targetPoint" />
          </mxGeometry>
        </mxCell>
        <mxCell id="DgRfjs2XJLAv0GOmimuZ-10" value="cekUsername.&lt;br&gt;equals(username)" style="rhombus;whiteSpace=wrap;html=1;" parent="1" vertex="1">
          <mxGeometry x="349" y="415" width="129" height="125" as="geometry" />
        </mxCell>
        <mxCell id="DgRfjs2XJLAv0GOmimuZ-17" value="" style="edgeStyle=orthogonalEdgeStyle;rounded=0;orthogonalLoop=1;jettySize=auto;html=1;" parent="1" source="DgRfjs2XJLAv0GOmimuZ-12" target="DgRfjs2XJLAv0GOmimuZ-16" edge="1">
          <mxGeometry relative="1" as="geometry" />
        </mxCell>
        <mxCell id="DgRfjs2XJLAv0GOmimuZ-12" value="break" style="whiteSpace=wrap;html=1;" parent="1" vertex="1">
          <mxGeometry x="354" y="570" width="120" height="60" as="geometry" />
        </mxCell>
        <mxCell id="DgRfjs2XJLAv0GOmimuZ-18" style="edgeStyle=orthogonalEdgeStyle;rounded=0;orthogonalLoop=1;jettySize=auto;html=1;exitX=0.5;exitY=1;exitDx=0;exitDy=0;" parent="1" source="cNOEtJhqYKkTEVZPSIJg-2" edge="1">
          <mxGeometry relative="1" as="geometry">
            <mxPoint x="414" y="650" as="targetPoint" />
            <Array as="points">
              <mxPoint x="621" y="508" />
              <mxPoint x="621" y="650" />
            </Array>
            <mxPoint x="622.5" y="507.5" as="sourcePoint" />
          </mxGeometry>
        </mxCell>
        <mxCell id="DgRfjs2XJLAv0GOmimuZ-19" style="edgeStyle=orthogonalEdgeStyle;rounded=0;orthogonalLoop=1;jettySize=auto;html=1;exitX=0;exitY=0.5;exitDx=0;exitDy=0;" parent="1" source="DgRfjs2XJLAv0GOmimuZ-16" edge="1">
          <mxGeometry relative="1" as="geometry">
            <mxPoint x="414" y="290" as="targetPoint" />
            <Array as="points">
              <mxPoint x="240" y="725" />
              <mxPoint x="240" y="290" />
            </Array>
          </mxGeometry>
        </mxCell>
        <mxCell id="J9vZ3K__6vgsT5VLbbw_-10" style="edgeStyle=orthogonalEdgeStyle;rounded=0;orthogonalLoop=1;jettySize=auto;html=1;exitX=0.5;exitY=1;exitDx=0;exitDy=0;entryX=0.5;entryY=0;entryDx=0;entryDy=0;fontSize=23;" parent="1" source="DgRfjs2XJLAv0GOmimuZ-16" target="J9vZ3K__6vgsT5VLbbw_-5" edge="1">
          <mxGeometry relative="1" as="geometry" />
        </mxCell>
        <mxCell id="DgRfjs2XJLAv0GOmimuZ-16" value="cekUsername != username" style="rhombus;whiteSpace=wrap;html=1;" parent="1" vertex="1">
          <mxGeometry x="351" y="670" width="126" height="110" as="geometry" />
        </mxCell>
        <mxCell id="DgRfjs2XJLAv0GOmimuZ-31" style="edgeStyle=orthogonalEdgeStyle;rounded=0;orthogonalLoop=1;jettySize=auto;html=1;exitX=0.5;exitY=1;exitDx=0;exitDy=0;entryX=0.5;entryY=0;entryDx=0;entryDy=0;" parent="1" source="J9vZ3K__6vgsT5VLbbw_-11" target="DgRfjs2XJLAv0GOmimuZ-23" edge="1">
          <mxGeometry relative="1" as="geometry">
            <mxPoint x="414" y="1310" as="sourcePoint" />
          </mxGeometry>
        </mxCell>
        <mxCell id="DgRfjs2XJLAv0GOmimuZ-22" style="edgeStyle=orthogonalEdgeStyle;rounded=0;orthogonalLoop=1;jettySize=auto;html=1;exitX=0.5;exitY=1;exitDx=0;exitDy=0;entryX=0.5;entryY=0;entryDx=0;entryDy=0;" parent="1" source="DgRfjs2XJLAv0GOmimuZ-23" target="DgRfjs2XJLAv0GOmimuZ-26" edge="1">
          <mxGeometry relative="1" as="geometry" />
        </mxCell>
        <mxCell id="DgRfjs2XJLAv0GOmimuZ-23" value="input cekPassword" style="shape=parallelogram;perimeter=parallelogramPerimeter;whiteSpace=wrap;html=1;fixedSize=1;" parent="1" vertex="1">
          <mxGeometry x="331" y="1350" width="166" height="60" as="geometry" />
        </mxCell>
        <mxCell id="DgRfjs2XJLAv0GOmimuZ-24" value="" style="edgeStyle=orthogonalEdgeStyle;rounded=0;orthogonalLoop=1;jettySize=auto;html=1;" parent="1" source="DgRfjs2XJLAv0GOmimuZ-26" target="DgRfjs2XJLAv0GOmimuZ-28" edge="1">
          <mxGeometry relative="1" as="geometry" />
        </mxCell>
        <mxCell id="DgRfjs2XJLAv0GOmimuZ-25" value="" style="edgeStyle=orthogonalEdgeStyle;rounded=0;orthogonalLoop=1;jettySize=auto;html=1;entryX=0;entryY=0.5;entryDx=0;entryDy=0;" parent="1" source="DgRfjs2XJLAv0GOmimuZ-26" target="cNOEtJhqYKkTEVZPSIJg-4" edge="1">
          <mxGeometry relative="1" as="geometry">
            <mxPoint x="562.5" y="1507.5" as="targetPoint" />
          </mxGeometry>
        </mxCell>
        <mxCell id="DgRfjs2XJLAv0GOmimuZ-26" value="cekPassword.&lt;br&gt;equals(password)" style="rhombus;whiteSpace=wrap;html=1;" parent="1" vertex="1">
          <mxGeometry x="349" y="1445" width="129" height="125" as="geometry" />
        </mxCell>
        <mxCell id="DgRfjs2XJLAv0GOmimuZ-27" value="" style="edgeStyle=orthogonalEdgeStyle;rounded=0;orthogonalLoop=1;jettySize=auto;html=1;" parent="1" source="DgRfjs2XJLAv0GOmimuZ-28" edge="1">
          <mxGeometry relative="1" as="geometry">
            <mxPoint x="414" y="1700" as="targetPoint" />
          </mxGeometry>
        </mxCell>
        <mxCell id="DgRfjs2XJLAv0GOmimuZ-28" value="break" style="whiteSpace=wrap;html=1;" parent="1" vertex="1">
          <mxGeometry x="354" y="1600" width="120" height="60" as="geometry" />
        </mxCell>
        <mxCell id="DgRfjs2XJLAv0GOmimuZ-29" style="edgeStyle=orthogonalEdgeStyle;rounded=0;orthogonalLoop=1;jettySize=auto;html=1;exitX=0.463;exitY=0.985;exitDx=0;exitDy=0;exitPerimeter=0;" parent="1" source="cNOEtJhqYKkTEVZPSIJg-4" edge="1">
          <mxGeometry relative="1" as="geometry">
            <mxPoint x="414" y="1680" as="targetPoint" />
            <Array as="points">
              <mxPoint x="620" y="1680" />
            </Array>
            <mxPoint x="622.5" y="1537.5" as="sourcePoint" />
          </mxGeometry>
        </mxCell>
        <mxCell id="DgRfjs2XJLAv0GOmimuZ-32" style="edgeStyle=orthogonalEdgeStyle;rounded=0;orthogonalLoop=1;jettySize=auto;html=1;exitX=0;exitY=0.5;exitDx=0;exitDy=0;" parent="1" source="DgRfjs2XJLAv0GOmimuZ-33" edge="1">
          <mxGeometry relative="1" as="geometry">
            <mxPoint x="414" y="1330" as="targetPoint" />
            <Array as="points">
              <mxPoint x="240" y="1755" />
              <mxPoint x="240" y="1330" />
            </Array>
          </mxGeometry>
        </mxCell>
        <mxCell id="DgRfjs2XJLAv0GOmimuZ-43" value="" style="edgeStyle=orthogonalEdgeStyle;rounded=0;orthogonalLoop=1;jettySize=auto;html=1;" parent="1" source="DgRfjs2XJLAv0GOmimuZ-33" target="DgRfjs2XJLAv0GOmimuZ-42" edge="1">
          <mxGeometry relative="1" as="geometry" />
        </mxCell>
        <mxCell id="DgRfjs2XJLAv0GOmimuZ-33" value="cekPassword != password" style="rhombus;whiteSpace=wrap;html=1;" parent="1" vertex="1">
          <mxGeometry x="351" y="1700" width="126" height="110" as="geometry" />
        </mxCell>
        <mxCell id="DgRfjs2XJLAv0GOmimuZ-34" value="False" style="text;html=1;strokeColor=none;fillColor=none;align=center;verticalAlign=middle;whiteSpace=wrap;rounded=0;" parent="1" vertex="1">
          <mxGeometry x="478" y="447.5" width="60" height="30" as="geometry" />
        </mxCell>
        <mxCell id="DgRfjs2XJLAv0GOmimuZ-35" value="True" style="text;html=1;strokeColor=none;fillColor=none;align=center;verticalAlign=middle;whiteSpace=wrap;rounded=0;" parent="1" vertex="1">
          <mxGeometry x="414" y="540" width="60" height="30" as="geometry" />
        </mxCell>
        <mxCell id="DgRfjs2XJLAv0GOmimuZ-36" value="False" style="text;html=1;strokeColor=none;fillColor=none;align=center;verticalAlign=middle;whiteSpace=wrap;rounded=0;" parent="1" vertex="1">
          <mxGeometry x="417" y="780" width="60" height="30" as="geometry" />
        </mxCell>
        <mxCell id="DgRfjs2XJLAv0GOmimuZ-37" value="True" style="text;html=1;strokeColor=none;fillColor=none;align=center;verticalAlign=middle;whiteSpace=wrap;rounded=0;" parent="1" vertex="1">
          <mxGeometry x="294" y="690" width="60" height="30" as="geometry" />
        </mxCell>
        <mxCell id="DgRfjs2XJLAv0GOmimuZ-38" value="False" style="text;html=1;strokeColor=none;fillColor=none;align=center;verticalAlign=middle;whiteSpace=wrap;rounded=0;" parent="1" vertex="1">
          <mxGeometry x="478" y="1477.5" width="60" height="30" as="geometry" />
        </mxCell>
        <mxCell id="DgRfjs2XJLAv0GOmimuZ-39" value="True" style="text;html=1;strokeColor=none;fillColor=none;align=center;verticalAlign=middle;whiteSpace=wrap;rounded=0;" parent="1" vertex="1">
          <mxGeometry x="414" y="1570" width="60" height="30" as="geometry" />
        </mxCell>
        <mxCell id="DgRfjs2XJLAv0GOmimuZ-40" value="False" style="text;html=1;strokeColor=none;fillColor=none;align=center;verticalAlign=middle;whiteSpace=wrap;rounded=0;" parent="1" vertex="1">
          <mxGeometry x="417" y="1810" width="60" height="30" as="geometry" />
        </mxCell>
        <mxCell id="DgRfjs2XJLAv0GOmimuZ-41" value="True" style="text;html=1;strokeColor=none;fillColor=none;align=center;verticalAlign=middle;whiteSpace=wrap;rounded=0;" parent="1" vertex="1">
          <mxGeometry x="294" y="1720" width="60" height="30" as="geometry" />
        </mxCell>
        <mxCell id="DgRfjs2XJLAv0GOmimuZ-42" value="return" style="ellipse;whiteSpace=wrap;html=1;" parent="1" vertex="1">
          <mxGeometry x="354" y="1850" width="120" height="60" as="geometry" />
        </mxCell>
        <mxCell id="J9vZ3K__6vgsT5VLbbw_-5" value="L" style="verticalLabelPosition=bottom;verticalAlign=top;html=1;shape=offPageConnector;rounded=0;size=0.5;spacingTop=-65;fontSize=23;" parent="1" vertex="1">
          <mxGeometry x="377" y="870" width="74" height="80" as="geometry" />
        </mxCell>
        <mxCell id="J9vZ3K__6vgsT5VLbbw_-11" value="L" style="verticalLabelPosition=bottom;verticalAlign=top;html=1;shape=offPageConnector;rounded=0;size=0.5;spacingTop=-65;fontSize=23;" parent="1" vertex="1">
          <mxGeometry x="377" y="1230" width="74" height="80" as="geometry" />
        </mxCell>
        <mxCell id="JH58qxKwXe8s4STUPjnj-1" value="login 1" style="text;strokeColor=none;fillColor=none;html=1;fontSize=24;fontStyle=1;verticalAlign=middle;align=center;" parent="1" vertex="1">
          <mxGeometry x="710" y="10" width="100" height="40" as="geometry" />
        </mxCell>
        <mxCell id="JH58qxKwXe8s4STUPjnj-2" value="login 2" style="text;strokeColor=none;fillColor=none;html=1;fontSize=24;fontStyle=1;verticalAlign=middle;align=center;" parent="1" vertex="1">
          <mxGeometry x="710" y="1190" width="100" height="40" as="geometry" />
        </mxCell>
        <mxCell id="cNOEtJhqYKkTEVZPSIJg-2" value="output &quot;Username tidak ditemukan!&quot;" style="shape=parallelogram;perimeter=parallelogramPerimeter;whiteSpace=wrap;html=1;fixedSize=1;" parent="1" vertex="1">
          <mxGeometry x="540" y="447.5" width="160" height="60" as="geometry" />
        </mxCell>
        <mxCell id="cNOEtJhqYKkTEVZPSIJg-4" value="output&lt;br&gt;&quot;Password salah!&quot;" style="shape=parallelogram;perimeter=parallelogramPerimeter;whiteSpace=wrap;html=1;fixedSize=1;" parent="1" vertex="1">
          <mxGeometry x="550" y="1477.5" width="150" height="60" as="geometry" />
        </mxCell>
      </root>
    </mxGraphModel>
  </diagram>
  <diagram id="7h1E0EZ18q7JcqgW6Prx" name="listMenu">
    <mxGraphModel dx="1500" dy="773" grid="1" gridSize="10" guides="1" tooltips="1" connect="1" arrows="1" fold="1" page="1" pageScale="1" pageWidth="827" pageHeight="1169" math="0" shadow="0">
      <root>
        <mxCell id="0" />
        <mxCell id="1" parent="0" />
        <mxCell id="lf-YmvhkCRjVcFSo1aFq-3" value="" style="edgeStyle=orthogonalEdgeStyle;rounded=0;orthogonalLoop=1;jettySize=auto;html=1;" parent="1" source="lf-YmvhkCRjVcFSo1aFq-1" target="9Nf3alirZ2PV1MaA48_r-1" edge="1">
          <mxGeometry relative="1" as="geometry">
            <mxPoint x="414" y="210" as="targetPoint" />
          </mxGeometry>
        </mxCell>
        <mxCell id="lf-YmvhkCRjVcFSo1aFq-1" value="listMenu()" style="ellipse;whiteSpace=wrap;html=1;" parent="1" vertex="1">
          <mxGeometry x="354" y="90" width="120" height="80" as="geometry" />
        </mxCell>
        <mxCell id="lf-YmvhkCRjVcFSo1aFq-5" value="" style="edgeStyle=orthogonalEdgeStyle;rounded=0;orthogonalLoop=1;jettySize=auto;html=1;" parent="1" target="lf-YmvhkCRjVcFSo1aFq-4" edge="1">
          <mxGeometry relative="1" as="geometry">
            <mxPoint x="414" y="430" as="sourcePoint" />
          </mxGeometry>
        </mxCell>
        <mxCell id="lf-YmvhkCRjVcFSo1aFq-4" value="return" style="ellipse;whiteSpace=wrap;html=1;align=center;" parent="1" vertex="1">
          <mxGeometry x="354" y="490" width="120" height="60" as="geometry" />
        </mxCell>
        <mxCell id="FDajb7FRTk2p0i7OkQUo-1" value="listMenu" style="text;strokeColor=none;fillColor=none;html=1;fontSize=24;fontStyle=1;verticalAlign=middle;align=center;" parent="1" vertex="1">
          <mxGeometry x="710" y="10" width="100" height="40" as="geometry" />
        </mxCell>
        <mxCell id="9Nf3alirZ2PV1MaA48_r-2" value="" style="edgeStyle=orthogonalEdgeStyle;rounded=0;orthogonalLoop=1;jettySize=auto;html=1;fontSize=11;exitX=0.5;exitY=1;exitDx=0;exitDy=0;" parent="1" source="9Nf3alirZ2PV1MaA48_r-1" target="lf-YmvhkCRjVcFSo1aFq-4" edge="1">
          <mxGeometry relative="1" as="geometry" />
        </mxCell>
        <mxCell id="9Nf3alirZ2PV1MaA48_r-1" value="&lt;div style=&quot;border-color: var(--border-color); font-size: 12px;&quot;&gt;&lt;span style=&quot;border-color: var(--border-color); background-color: initial;&quot;&gt;output&lt;/span&gt;&lt;/div&gt;&lt;div style=&quot;border-color: var(--border-color); font-size: 12px;&quot;&gt;&lt;span style=&quot;border-color: var(--border-color); background-color: initial;&quot;&gt;&lt;br style=&quot;border-color: var(--border-color);&quot;&gt;&lt;/span&gt;&lt;/div&gt;&lt;div style=&quot;border-color: var(--border-color); font-size: 12px; text-align: left;&quot;&gt;&quot;==========================================================================================&lt;/div&gt;&lt;blockquote style=&quot;margin: 0 0 0 40px; border: none; padding: 0px;&quot;&gt;&lt;blockquote style=&quot;margin: 0 0 0 40px; border: none; padding: 0px;&quot;&gt;&lt;blockquote style=&quot;margin: 0 0 0 40px; border: none; padding: 0px;&quot;&gt;&lt;blockquote style=&quot;margin: 0 0 0 40px; border: none; padding: 0px;&quot;&gt;&lt;blockquote style=&quot;margin: 0 0 0 40px; border: none; padding: 0px;&quot;&gt;&lt;blockquote style=&quot;margin: 0 0 0 40px; border: none; padding: 0px;&quot;&gt;&lt;div style=&quot;border-color: var(--border-color); font-size: 12px; text-align: left;&quot;&gt;Restoran [Mamdulugaksih?]&lt;/div&gt;&lt;/blockquote&gt;&lt;/blockquote&gt;&lt;/blockquote&gt;&lt;/blockquote&gt;&lt;/blockquote&gt;&lt;blockquote style=&quot;margin: 0 0 0 40px; border: none; padding: 0px;&quot;&gt;&lt;blockquote style=&quot;margin: 0 0 0 40px; border: none; padding: 0px;&quot;&gt;&lt;blockquote style=&quot;margin: 0 0 0 40px; border: none; padding: 0px;&quot;&gt;&lt;blockquote style=&quot;margin: 0 0 0 40px; border: none; padding: 0px;&quot;&gt;&lt;blockquote style=&quot;margin: 0 0 0 40px; border: none; padding: 0px;&quot;&gt;&lt;div style=&quot;border-color: var(--border-color); font-size: 12px; text-align: left;&quot;&gt;Jl. Sumbersari Gg. 7 No. 44&lt;/div&gt;&lt;/blockquote&gt;&lt;/blockquote&gt;&lt;/blockquote&gt;&lt;/blockquote&gt;&lt;/blockquote&gt;&lt;blockquote style=&quot;margin: 0 0 0 40px; border: none; padding: 0px;&quot;&gt;&lt;blockquote style=&quot;margin: 0 0 0 40px; border: none; padding: 0px;&quot;&gt;&lt;blockquote style=&quot;margin: 0 0 0 40px; border: none; padding: 0px;&quot;&gt;&lt;blockquote style=&quot;margin: 0 0 0 40px; border: none; padding: 0px;&quot;&gt;&lt;blockquote style=&quot;margin: 0 0 0 40px; border: none; padding: 0px;&quot;&gt;&lt;div style=&quot;border-color: var(--border-color); font-size: 12px; text-align: left;&quot;&gt;&lt;span style=&quot;white-space: pre;&quot;&gt;	&lt;/span&gt;Lowokwaru, Malang&lt;/div&gt;&lt;/blockquote&gt;&lt;/blockquote&gt;&lt;/blockquote&gt;&lt;/blockquote&gt;&lt;/blockquote&gt;&lt;/blockquote&gt;&lt;div style=&quot;border-color: var(--border-color); font-size: 12px; text-align: left;&quot;&gt;&lt;span style=&quot;border-color: var(--border-color);&quot;&gt;&lt;/span&gt;&lt;/div&gt;&lt;div style=&quot;border-color: var(--border-color); font-size: 12px; text-align: left;&quot;&gt;&lt;span style=&quot;border-color: var(--border-color);&quot;&gt;&lt;/span&gt;&lt;/div&gt;&lt;div style=&quot;border-color: var(--border-color); font-size: 12px; text-align: left;&quot;&gt;&lt;span style=&quot;border-color: var(--border-color);&quot;&gt;&lt;/span&gt;&lt;/div&gt;&lt;div style=&quot;border-color: var(--border-color); font-size: 12px; text-align: left;&quot;&gt;==========================================================================================&lt;/div&gt;&lt;div style=&quot;border-color: var(--border-color); text-align: left;&quot;&gt;&lt;span style=&quot;font-size: 12px;&quot;&gt;[1] Tambahkan Bahan Baru&lt;/span&gt;&lt;br&gt;&lt;/div&gt;&lt;div style=&quot;border-color: var(--border-color); font-size: 12px; text-align: left;&quot;&gt;[2] Tambahkan Stok Bahan&lt;/div&gt;&lt;div style=&quot;border-color: var(--border-color); font-size: 12px; text-align: left;&quot;&gt;[3] Ambil Stok Bahan&lt;/div&gt;&lt;div style=&quot;border-color: var(--border-color); font-size: 12px; text-align: left;&quot;&gt;[4] Cari Bahan&lt;/div&gt;&lt;div style=&quot;border-color: var(--border-color); font-size: 12px; text-align: left;&quot;&gt;[5] Laporan Bahan&lt;/div&gt;&lt;div style=&quot;border-color: var(--border-color); font-size: 12px; text-align: left;&quot;&gt;[6] Keluar dari Program&lt;/div&gt;&lt;div style=&quot;border-color: var(--border-color); font-size: 12px; text-align: left;&quot;&gt;==========================================================================================&quot;&lt;/div&gt;" style="shape=parallelogram;perimeter=parallelogramPerimeter;whiteSpace=wrap;html=1;fixedSize=1;fontSize=11;" parent="1" vertex="1">
          <mxGeometry x="64" y="210" width="700" height="230" as="geometry" />
        </mxCell>
      </root>
    </mxGraphModel>
  </diagram>
  <diagram id="HuODC7ieoM_WbAsAb2Y9" name="pilihMenu">
    <mxGraphModel dx="1500" dy="773" grid="1" gridSize="10" guides="1" tooltips="1" connect="1" arrows="1" fold="1" page="1" pageScale="1" pageWidth="1169" pageHeight="827" math="0" shadow="0">
      <root>
        <mxCell id="0" />
        <mxCell id="1" parent="0" />
        <mxCell id="3oJlkydfAMUvoJ6aopdo-3" value="" style="edgeStyle=orthogonalEdgeStyle;rounded=0;orthogonalLoop=1;jettySize=auto;html=1;" parent="1" source="3oJlkydfAMUvoJ6aopdo-1" target="3oJlkydfAMUvoJ6aopdo-2" edge="1">
          <mxGeometry relative="1" as="geometry" />
        </mxCell>
        <mxCell id="3oJlkydfAMUvoJ6aopdo-1" value="pilihMenu(int inputMenu)" style="ellipse;whiteSpace=wrap;html=1;" parent="1" vertex="1">
          <mxGeometry x="140" y="90" width="150" height="80" as="geometry" />
        </mxCell>
        <mxCell id="3oJlkydfAMUvoJ6aopdo-5" value="" style="edgeStyle=orthogonalEdgeStyle;rounded=0;orthogonalLoop=1;jettySize=auto;html=1;" parent="1" source="3oJlkydfAMUvoJ6aopdo-2" target="3oJlkydfAMUvoJ6aopdo-4" edge="1">
          <mxGeometry relative="1" as="geometry" />
        </mxCell>
        <mxCell id="3oJlkydfAMUvoJ6aopdo-2" value="switch(inputMenu)" style="whiteSpace=wrap;html=1;" parent="1" vertex="1">
          <mxGeometry x="155" y="210" width="120" height="60" as="geometry" />
        </mxCell>
        <mxCell id="3oJlkydfAMUvoJ6aopdo-7" value="" style="edgeStyle=orthogonalEdgeStyle;rounded=0;orthogonalLoop=1;jettySize=auto;html=1;" parent="1" source="3oJlkydfAMUvoJ6aopdo-4" target="3oJlkydfAMUvoJ6aopdo-6" edge="1">
          <mxGeometry relative="1" as="geometry" />
        </mxCell>
        <mxCell id="3oJlkydfAMUvoJ6aopdo-17" value="" style="edgeStyle=orthogonalEdgeStyle;rounded=0;orthogonalLoop=1;jettySize=auto;html=1;" parent="1" source="3oJlkydfAMUvoJ6aopdo-4" target="3oJlkydfAMUvoJ6aopdo-16" edge="1">
          <mxGeometry relative="1" as="geometry" />
        </mxCell>
        <mxCell id="3oJlkydfAMUvoJ6aopdo-4" value="case 1" style="rhombus;whiteSpace=wrap;html=1;" parent="1" vertex="1">
          <mxGeometry x="175" y="340" width="80" height="80" as="geometry" />
        </mxCell>
        <mxCell id="3oJlkydfAMUvoJ6aopdo-9" value="" style="edgeStyle=orthogonalEdgeStyle;rounded=0;orthogonalLoop=1;jettySize=auto;html=1;" parent="1" source="3oJlkydfAMUvoJ6aopdo-6" target="3oJlkydfAMUvoJ6aopdo-8" edge="1">
          <mxGeometry relative="1" as="geometry" />
        </mxCell>
        <mxCell id="T15uMredQ0apFSyGa_Oy-2" value="" style="edgeStyle=orthogonalEdgeStyle;rounded=0;orthogonalLoop=1;jettySize=auto;html=1;" parent="1" source="3oJlkydfAMUvoJ6aopdo-6" target="T15uMredQ0apFSyGa_Oy-1" edge="1">
          <mxGeometry relative="1" as="geometry" />
        </mxCell>
        <mxCell id="3oJlkydfAMUvoJ6aopdo-6" value="case 2" style="rhombus;whiteSpace=wrap;html=1;" parent="1" vertex="1">
          <mxGeometry x="316" y="340" width="80" height="80" as="geometry" />
        </mxCell>
        <mxCell id="3oJlkydfAMUvoJ6aopdo-11" value="" style="edgeStyle=orthogonalEdgeStyle;rounded=0;orthogonalLoop=1;jettySize=auto;html=1;" parent="1" source="3oJlkydfAMUvoJ6aopdo-8" target="3oJlkydfAMUvoJ6aopdo-10" edge="1">
          <mxGeometry relative="1" as="geometry" />
        </mxCell>
        <mxCell id="T15uMredQ0apFSyGa_Oy-4" value="" style="edgeStyle=orthogonalEdgeStyle;rounded=0;orthogonalLoop=1;jettySize=auto;html=1;" parent="1" source="3oJlkydfAMUvoJ6aopdo-8" target="T15uMredQ0apFSyGa_Oy-3" edge="1">
          <mxGeometry relative="1" as="geometry" />
        </mxCell>
        <mxCell id="3oJlkydfAMUvoJ6aopdo-8" value="case 3" style="rhombus;whiteSpace=wrap;html=1;" parent="1" vertex="1">
          <mxGeometry x="456" y="340" width="80" height="80" as="geometry" />
        </mxCell>
        <mxCell id="T15uMredQ0apFSyGa_Oy-6" value="" style="edgeStyle=orthogonalEdgeStyle;rounded=0;orthogonalLoop=1;jettySize=auto;html=1;" parent="1" source="3oJlkydfAMUvoJ6aopdo-10" target="T15uMredQ0apFSyGa_Oy-5" edge="1">
          <mxGeometry relative="1" as="geometry" />
        </mxCell>
        <mxCell id="mrGn76-SVpec6E0Q9cI5-7" style="edgeStyle=orthogonalEdgeStyle;rounded=0;orthogonalLoop=1;jettySize=auto;html=1;exitX=1;exitY=0.5;exitDx=0;exitDy=0;" edge="1" parent="1" source="3oJlkydfAMUvoJ6aopdo-10" target="mrGn76-SVpec6E0Q9cI5-2">
          <mxGeometry relative="1" as="geometry" />
        </mxCell>
        <mxCell id="3oJlkydfAMUvoJ6aopdo-10" value="case 4" style="rhombus;whiteSpace=wrap;html=1;" parent="1" vertex="1">
          <mxGeometry x="596" y="340" width="80" height="80" as="geometry" />
        </mxCell>
        <mxCell id="3oJlkydfAMUvoJ6aopdo-15" value="" style="edgeStyle=orthogonalEdgeStyle;rounded=0;orthogonalLoop=1;jettySize=auto;html=1;entryX=0;entryY=0.5;entryDx=0;entryDy=0;" parent="1" source="3oJlkydfAMUvoJ6aopdo-12" target="saPtVLUMuwO-ghvbrC6j-1" edge="1">
          <mxGeometry relative="1" as="geometry">
            <mxPoint x="984" y="380" as="targetPoint" />
          </mxGeometry>
        </mxCell>
        <mxCell id="T15uMredQ0apFSyGa_Oy-15" style="edgeStyle=orthogonalEdgeStyle;rounded=0;orthogonalLoop=1;jettySize=auto;html=1;exitX=0.5;exitY=1;exitDx=0;exitDy=0;entryX=1;entryY=0.5;entryDx=0;entryDy=0;" parent="1" source="3oJlkydfAMUvoJ6aopdo-12" target="T15uMredQ0apFSyGa_Oy-7" edge="1">
          <mxGeometry relative="1" as="geometry" />
        </mxCell>
        <mxCell id="3oJlkydfAMUvoJ6aopdo-12" value="case 6" style="rhombus;whiteSpace=wrap;html=1;" parent="1" vertex="1">
          <mxGeometry x="864" y="340" width="80" height="80" as="geometry" />
        </mxCell>
        <mxCell id="T15uMredQ0apFSyGa_Oy-17" style="edgeStyle=orthogonalEdgeStyle;rounded=0;orthogonalLoop=1;jettySize=auto;html=1;exitX=0.5;exitY=1;exitDx=0;exitDy=0;" parent="1" source="saPtVLUMuwO-ghvbrC6j-1" edge="1">
          <mxGeometry relative="1" as="geometry">
            <mxPoint x="904" y="500" as="targetPoint" />
            <Array as="points">
              <mxPoint x="1039" y="410" />
              <mxPoint x="1039" y="500" />
            </Array>
            <mxPoint x="1039" y="410" as="sourcePoint" />
          </mxGeometry>
        </mxCell>
        <mxCell id="T15uMredQ0apFSyGa_Oy-8" style="edgeStyle=orthogonalEdgeStyle;rounded=0;orthogonalLoop=1;jettySize=auto;html=1;exitX=0.5;exitY=1;exitDx=0;exitDy=0;entryX=0;entryY=0.5;entryDx=0;entryDy=0;" parent="1" source="3oJlkydfAMUvoJ6aopdo-16" target="T15uMredQ0apFSyGa_Oy-7" edge="1">
          <mxGeometry relative="1" as="geometry" />
        </mxCell>
        <mxCell id="3oJlkydfAMUvoJ6aopdo-16" value="bahanBaru();" style="shape=process;whiteSpace=wrap;html=1;backgroundOutline=1;" parent="1" vertex="1">
          <mxGeometry x="155" y="460" width="120" height="60" as="geometry" />
        </mxCell>
        <mxCell id="T15uMredQ0apFSyGa_Oy-14" style="edgeStyle=orthogonalEdgeStyle;rounded=0;orthogonalLoop=1;jettySize=auto;html=1;exitX=0.5;exitY=1;exitDx=0;exitDy=0;" parent="1" source="T15uMredQ0apFSyGa_Oy-1" edge="1">
          <mxGeometry relative="1" as="geometry">
            <mxPoint x="356" y="600" as="targetPoint" />
            <Array as="points">
              <mxPoint x="356" y="600" />
            </Array>
          </mxGeometry>
        </mxCell>
        <mxCell id="T15uMredQ0apFSyGa_Oy-1" value="tambahStok();" style="shape=process;whiteSpace=wrap;html=1;backgroundOutline=1;" parent="1" vertex="1">
          <mxGeometry x="296" y="460" width="120" height="60" as="geometry" />
        </mxCell>
        <mxCell id="T15uMredQ0apFSyGa_Oy-19" style="edgeStyle=orthogonalEdgeStyle;rounded=0;orthogonalLoop=1;jettySize=auto;html=1;exitX=0.5;exitY=1;exitDx=0;exitDy=0;entryX=0.5;entryY=0;entryDx=0;entryDy=0;" parent="1" source="T15uMredQ0apFSyGa_Oy-3" target="T15uMredQ0apFSyGa_Oy-7" edge="1">
          <mxGeometry relative="1" as="geometry" />
        </mxCell>
        <mxCell id="T15uMredQ0apFSyGa_Oy-3" value="ambilStok();" style="shape=process;whiteSpace=wrap;html=1;backgroundOutline=1;" parent="1" vertex="1">
          <mxGeometry x="436" y="460" width="120" height="60" as="geometry" />
        </mxCell>
        <mxCell id="T15uMredQ0apFSyGa_Oy-21" style="edgeStyle=orthogonalEdgeStyle;rounded=0;orthogonalLoop=1;jettySize=auto;html=1;exitX=0.5;exitY=1;exitDx=0;exitDy=0;" parent="1" source="T15uMredQ0apFSyGa_Oy-5" edge="1">
          <mxGeometry relative="1" as="geometry">
            <mxPoint x="636" y="600" as="targetPoint" />
            <Array as="points">
              <mxPoint x="636" y="600" />
            </Array>
          </mxGeometry>
        </mxCell>
        <mxCell id="T15uMredQ0apFSyGa_Oy-5" value="cariBahan();" style="shape=process;whiteSpace=wrap;html=1;backgroundOutline=1;" parent="1" vertex="1">
          <mxGeometry x="576" y="460" width="120" height="60" as="geometry" />
        </mxCell>
        <mxCell id="T15uMredQ0apFSyGa_Oy-35" style="edgeStyle=orthogonalEdgeStyle;rounded=0;orthogonalLoop=1;jettySize=auto;html=1;exitX=0.5;exitY=1;exitDx=0;exitDy=0;entryX=0.5;entryY=0;entryDx=0;entryDy=0;" parent="1" source="T15uMredQ0apFSyGa_Oy-7" target="T15uMredQ0apFSyGa_Oy-34" edge="1">
          <mxGeometry relative="1" as="geometry" />
        </mxCell>
        <mxCell id="T15uMredQ0apFSyGa_Oy-7" value="break" style="rounded=0;whiteSpace=wrap;html=1;" parent="1" vertex="1">
          <mxGeometry x="436" y="570" width="120" height="60" as="geometry" />
        </mxCell>
        <mxCell id="T15uMredQ0apFSyGa_Oy-22" value="True" style="text;html=1;strokeColor=none;fillColor=none;align=center;verticalAlign=middle;whiteSpace=wrap;rounded=0;" parent="1" vertex="1">
          <mxGeometry x="215" y="420" width="60" height="30" as="geometry" />
        </mxCell>
        <mxCell id="T15uMredQ0apFSyGa_Oy-24" value="True" style="text;html=1;strokeColor=none;fillColor=none;align=center;verticalAlign=middle;whiteSpace=wrap;rounded=0;" parent="1" vertex="1">
          <mxGeometry x="356" y="420" width="60" height="30" as="geometry" />
        </mxCell>
        <mxCell id="T15uMredQ0apFSyGa_Oy-25" value="True" style="text;html=1;strokeColor=none;fillColor=none;align=center;verticalAlign=middle;whiteSpace=wrap;rounded=0;" parent="1" vertex="1">
          <mxGeometry x="495" y="420" width="60" height="30" as="geometry" />
        </mxCell>
        <mxCell id="T15uMredQ0apFSyGa_Oy-26" value="True" style="text;html=1;strokeColor=none;fillColor=none;align=center;verticalAlign=middle;whiteSpace=wrap;rounded=0;" parent="1" vertex="1">
          <mxGeometry x="636" y="420" width="60" height="30" as="geometry" />
        </mxCell>
        <mxCell id="T15uMredQ0apFSyGa_Oy-27" value="True" style="text;html=1;strokeColor=none;fillColor=none;align=center;verticalAlign=middle;whiteSpace=wrap;rounded=0;" parent="1" vertex="1">
          <mxGeometry x="904" y="420" width="60" height="30" as="geometry" />
        </mxCell>
        <mxCell id="T15uMredQ0apFSyGa_Oy-29" value="False" style="text;html=1;strokeColor=none;fillColor=none;align=center;verticalAlign=middle;whiteSpace=wrap;rounded=0;" parent="1" vertex="1">
          <mxGeometry x="255" y="350" width="60" height="30" as="geometry" />
        </mxCell>
        <mxCell id="T15uMredQ0apFSyGa_Oy-30" value="False" style="text;html=1;strokeColor=none;fillColor=none;align=center;verticalAlign=middle;whiteSpace=wrap;rounded=0;" parent="1" vertex="1">
          <mxGeometry x="396" y="350" width="60" height="30" as="geometry" />
        </mxCell>
        <mxCell id="T15uMredQ0apFSyGa_Oy-31" value="False" style="text;html=1;strokeColor=none;fillColor=none;align=center;verticalAlign=middle;whiteSpace=wrap;rounded=0;" parent="1" vertex="1">
          <mxGeometry x="666" y="350" width="60" height="30" as="geometry" />
        </mxCell>
        <mxCell id="T15uMredQ0apFSyGa_Oy-32" value="False" style="text;html=1;strokeColor=none;fillColor=none;align=center;verticalAlign=middle;whiteSpace=wrap;rounded=0;" parent="1" vertex="1">
          <mxGeometry x="535.5" y="350" width="60" height="30" as="geometry" />
        </mxCell>
        <mxCell id="T15uMredQ0apFSyGa_Oy-33" value="False" style="text;html=1;strokeColor=none;fillColor=none;align=center;verticalAlign=middle;whiteSpace=wrap;rounded=0;" parent="1" vertex="1">
          <mxGeometry x="934" y="350" width="60" height="30" as="geometry" />
        </mxCell>
        <mxCell id="T15uMredQ0apFSyGa_Oy-34" value="return" style="ellipse;whiteSpace=wrap;html=1;rounded=0;" parent="1" vertex="1">
          <mxGeometry x="436" y="670" width="120" height="60" as="geometry" />
        </mxCell>
        <mxCell id="1jHDLQRPHxZiSkHhTPm5-1" value="pilihMenu" style="text;strokeColor=none;fillColor=none;html=1;fontSize=24;fontStyle=1;verticalAlign=middle;align=center;" parent="1" vertex="1">
          <mxGeometry x="1050" y="10" width="100" height="40" as="geometry" />
        </mxCell>
        <mxCell id="saPtVLUMuwO-ghvbrC6j-1" value="&lt;font style=&quot;font-size: 11px;&quot;&gt;output&lt;br&gt;&quot;Menu yang Anda masukkan salah!&quot;&lt;/font&gt;" style="shape=parallelogram;perimeter=parallelogramPerimeter;whiteSpace=wrap;html=1;fixedSize=1;" parent="1" vertex="1">
          <mxGeometry x="974" y="350" width="120" height="60" as="geometry" />
        </mxCell>
        <mxCell id="mrGn76-SVpec6E0Q9cI5-1" value="" style="edgeStyle=orthogonalEdgeStyle;rounded=0;orthogonalLoop=1;jettySize=auto;html=1;" edge="1" source="mrGn76-SVpec6E0Q9cI5-2" target="mrGn76-SVpec6E0Q9cI5-4" parent="1">
          <mxGeometry relative="1" as="geometry" />
        </mxCell>
        <mxCell id="mrGn76-SVpec6E0Q9cI5-8" style="edgeStyle=orthogonalEdgeStyle;rounded=0;orthogonalLoop=1;jettySize=auto;html=1;exitX=1;exitY=0.5;exitDx=0;exitDy=0;entryX=0;entryY=0.5;entryDx=0;entryDy=0;" edge="1" parent="1" source="mrGn76-SVpec6E0Q9cI5-2" target="3oJlkydfAMUvoJ6aopdo-12">
          <mxGeometry relative="1" as="geometry" />
        </mxCell>
        <mxCell id="mrGn76-SVpec6E0Q9cI5-2" value="case 5" style="rhombus;whiteSpace=wrap;html=1;" vertex="1" parent="1">
          <mxGeometry x="734" y="340" width="80" height="80" as="geometry" />
        </mxCell>
        <mxCell id="mrGn76-SVpec6E0Q9cI5-3" style="edgeStyle=orthogonalEdgeStyle;rounded=0;orthogonalLoop=1;jettySize=auto;html=1;exitX=0.5;exitY=1;exitDx=0;exitDy=0;" edge="1" source="mrGn76-SVpec6E0Q9cI5-4" parent="1">
          <mxGeometry relative="1" as="geometry">
            <mxPoint x="774" y="600.0000000000001" as="targetPoint" />
            <Array as="points">
              <mxPoint x="774" y="600" />
            </Array>
          </mxGeometry>
        </mxCell>
        <mxCell id="mrGn76-SVpec6E0Q9cI5-4" value="laporanBahan();" style="shape=process;whiteSpace=wrap;html=1;backgroundOutline=1;" vertex="1" parent="1">
          <mxGeometry x="714" y="460" width="120" height="60" as="geometry" />
        </mxCell>
        <mxCell id="mrGn76-SVpec6E0Q9cI5-5" value="True" style="text;html=1;strokeColor=none;fillColor=none;align=center;verticalAlign=middle;whiteSpace=wrap;rounded=0;" vertex="1" parent="1">
          <mxGeometry x="774" y="420" width="60" height="30" as="geometry" />
        </mxCell>
        <mxCell id="mrGn76-SVpec6E0Q9cI5-6" value="False" style="text;html=1;strokeColor=none;fillColor=none;align=center;verticalAlign=middle;whiteSpace=wrap;rounded=0;" vertex="1" parent="1">
          <mxGeometry x="804" y="350" width="60" height="30" as="geometry" />
        </mxCell>
      </root>
    </mxGraphModel>
  </diagram>
  <diagram id="1aT5Qc3jUdLSBvrxoN08" name="bahanBaru">
    <mxGraphModel dx="1313" dy="676" grid="1" gridSize="10" guides="1" tooltips="1" connect="1" arrows="1" fold="1" page="1" pageScale="1" pageWidth="827" pageHeight="1169" math="0" shadow="0">
      <root>
        <mxCell id="0" />
        <mxCell id="1" parent="0" />
        <mxCell id="8tQ4eGIosvMPuxNZ7DzF-1" value="bahanBaru()" style="ellipse;whiteSpace=wrap;html=1;" vertex="1" parent="1">
          <mxGeometry x="223.92000000000002" y="20" width="120" height="80" as="geometry" />
        </mxCell>
        <mxCell id="8tQ4eGIosvMPuxNZ7DzF-2" value="char konfirmasi;" style="shape=hexagon;perimeter=hexagonPerimeter2;whiteSpace=wrap;html=1;fixedSize=1;" vertex="1" parent="1">
          <mxGeometry x="223.92000000000002" y="130" width="120" height="50" as="geometry" />
        </mxCell>
        <mxCell id="8tQ4eGIosvMPuxNZ7DzF-3" value="" style="edgeStyle=orthogonalEdgeStyle;rounded=0;orthogonalLoop=1;jettySize=auto;html=1;" edge="1" parent="1" source="8tQ4eGIosvMPuxNZ7DzF-1" target="8tQ4eGIosvMPuxNZ7DzF-2">
          <mxGeometry relative="1" as="geometry" />
        </mxCell>
        <mxCell id="8tQ4eGIosvMPuxNZ7DzF-9" value="" style="edgeStyle=orthogonalEdgeStyle;rounded=0;orthogonalLoop=1;jettySize=auto;html=1;" edge="1" parent="1" source="8tQ4eGIosvMPuxNZ7DzF-4" target="8tQ4eGIosvMPuxNZ7DzF-8">
          <mxGeometry relative="1" as="geometry" />
        </mxCell>
        <mxCell id="8tQ4eGIosvMPuxNZ7DzF-42" value="" style="edgeStyle=orthogonalEdgeStyle;rounded=0;orthogonalLoop=1;jettySize=auto;html=1;" edge="1" parent="1" source="8tQ4eGIosvMPuxNZ7DzF-4" target="8tQ4eGIosvMPuxNZ7DzF-41">
          <mxGeometry relative="1" as="geometry" />
        </mxCell>
        <mxCell id="8tQ4eGIosvMPuxNZ7DzF-4" value="jumlahBahan &amp;lt; namaBahan.length" style="rhombus;whiteSpace=wrap;html=1;" vertex="1" parent="1">
          <mxGeometry x="228.42000000000002" y="220" width="111" height="110" as="geometry" />
        </mxCell>
        <mxCell id="8tQ4eGIosvMPuxNZ7DzF-5" value="" style="edgeStyle=orthogonalEdgeStyle;rounded=0;orthogonalLoop=1;jettySize=auto;html=1;" edge="1" parent="1" source="8tQ4eGIosvMPuxNZ7DzF-2" target="8tQ4eGIosvMPuxNZ7DzF-4">
          <mxGeometry relative="1" as="geometry" />
        </mxCell>
        <mxCell id="8tQ4eGIosvMPuxNZ7DzF-11" style="edgeStyle=orthogonalEdgeStyle;rounded=0;orthogonalLoop=1;jettySize=auto;html=1;exitX=0.5;exitY=1;exitDx=0;exitDy=0;entryX=0.5;entryY=0;entryDx=0;entryDy=0;" edge="1" parent="1" source="8tQ4eGIosvMPuxNZ7DzF-8" target="8tQ4eGIosvMPuxNZ7DzF-10">
          <mxGeometry relative="1" as="geometry" />
        </mxCell>
        <mxCell id="8tQ4eGIosvMPuxNZ7DzF-8" value="input&amp;nbsp;&lt;br&gt;namaBahan[jumlahBahan]" style="shape=parallelogram;perimeter=parallelogramPerimeter;whiteSpace=wrap;html=1;fixedSize=1;" vertex="1" parent="1">
          <mxGeometry x="190.92000000000002" y="360" width="186" height="55" as="geometry" />
        </mxCell>
        <mxCell id="8tQ4eGIosvMPuxNZ7DzF-15" value="" style="edgeStyle=orthogonalEdgeStyle;rounded=0;orthogonalLoop=1;jettySize=auto;html=1;" edge="1" parent="1" source="8tQ4eGIosvMPuxNZ7DzF-10" target="8tQ4eGIosvMPuxNZ7DzF-14">
          <mxGeometry relative="1" as="geometry" />
        </mxCell>
        <mxCell id="8tQ4eGIosvMPuxNZ7DzF-10" value="jumlahBahan++;" style="whiteSpace=wrap;html=1;" vertex="1" parent="1">
          <mxGeometry x="223.92000000000002" y="440" width="120" height="60" as="geometry" />
        </mxCell>
        <mxCell id="8tQ4eGIosvMPuxNZ7DzF-17" style="edgeStyle=orthogonalEdgeStyle;rounded=0;orthogonalLoop=1;jettySize=auto;html=1;exitX=0.5;exitY=1;exitDx=0;exitDy=0;entryX=0.5;entryY=0;entryDx=0;entryDy=0;" edge="1" parent="1" source="8tQ4eGIosvMPuxNZ7DzF-14" target="8tQ4eGIosvMPuxNZ7DzF-16">
          <mxGeometry relative="1" as="geometry" />
        </mxCell>
        <mxCell id="8tQ4eGIosvMPuxNZ7DzF-14" value="input&lt;br&gt;konfirmasi" style="shape=parallelogram;perimeter=parallelogramPerimeter;whiteSpace=wrap;html=1;fixedSize=1;" vertex="1" parent="1">
          <mxGeometry x="223.92000000000002" y="544.5" width="120" height="60" as="geometry" />
        </mxCell>
        <mxCell id="8tQ4eGIosvMPuxNZ7DzF-19" value="" style="edgeStyle=orthogonalEdgeStyle;rounded=0;orthogonalLoop=1;jettySize=auto;html=1;exitX=1;exitY=0.5;exitDx=0;exitDy=0;" edge="1" parent="1" source="8tQ4eGIosvMPuxNZ7DzF-16" target="8tQ4eGIosvMPuxNZ7DzF-18">
          <mxGeometry relative="1" as="geometry">
            <mxPoint x="190.92000000000002" y="705" as="sourcePoint" />
          </mxGeometry>
        </mxCell>
        <mxCell id="8tQ4eGIosvMPuxNZ7DzF-25" value="" style="edgeStyle=orthogonalEdgeStyle;rounded=0;orthogonalLoop=1;jettySize=auto;html=1;" edge="1" parent="1" source="8tQ4eGIosvMPuxNZ7DzF-16" target="8tQ4eGIosvMPuxNZ7DzF-24">
          <mxGeometry relative="1" as="geometry" />
        </mxCell>
        <mxCell id="8tQ4eGIosvMPuxNZ7DzF-16" value="konfirmasi == &#39;y&#39; &lt;br&gt;|| konfirmasi == &#39;Y&#39;" style="rhombus;whiteSpace=wrap;html=1;" vertex="1" parent="1">
          <mxGeometry x="59.92" y="650" width="124" height="110" as="geometry" />
        </mxCell>
        <mxCell id="8tQ4eGIosvMPuxNZ7DzF-23" value="" style="edgeStyle=orthogonalEdgeStyle;rounded=0;orthogonalLoop=1;jettySize=auto;html=1;" edge="1" parent="1" source="8tQ4eGIosvMPuxNZ7DzF-18" target="8tQ4eGIosvMPuxNZ7DzF-22">
          <mxGeometry relative="1" as="geometry" />
        </mxCell>
        <mxCell id="8tQ4eGIosvMPuxNZ7DzF-28" style="edgeStyle=orthogonalEdgeStyle;rounded=0;orthogonalLoop=1;jettySize=auto;html=1;exitX=0.5;exitY=1;exitDx=0;exitDy=0;entryX=1;entryY=0.5;entryDx=0;entryDy=0;" edge="1" parent="1" source="8tQ4eGIosvMPuxNZ7DzF-18" target="8tQ4eGIosvMPuxNZ7DzF-26">
          <mxGeometry relative="1" as="geometry" />
        </mxCell>
        <mxCell id="8tQ4eGIosvMPuxNZ7DzF-18" value="konfirmasi == &#39;t&#39; &lt;br&gt;|| konfirmasi == &#39;T&#39;" style="rhombus;whiteSpace=wrap;html=1;" vertex="1" parent="1">
          <mxGeometry x="226.92000000000002" y="650" width="124" height="110" as="geometry" />
        </mxCell>
        <mxCell id="8tQ4eGIosvMPuxNZ7DzF-30" value="" style="edgeStyle=orthogonalEdgeStyle;rounded=0;orthogonalLoop=1;jettySize=auto;html=1;" edge="1" parent="1" source="8tQ4eGIosvMPuxNZ7DzF-22" target="8tQ4eGIosvMPuxNZ7DzF-29">
          <mxGeometry relative="1" as="geometry" />
        </mxCell>
        <mxCell id="8tQ4eGIosvMPuxNZ7DzF-22" value="output&lt;br&gt;Konfirmasi yang Anda masukkan salah!" style="shape=parallelogram;perimeter=parallelogramPerimeter;whiteSpace=wrap;html=1;fixedSize=1;" vertex="1" parent="1">
          <mxGeometry x="389.92" y="675" width="150" height="60" as="geometry" />
        </mxCell>
        <mxCell id="8tQ4eGIosvMPuxNZ7DzF-27" value="" style="edgeStyle=orthogonalEdgeStyle;rounded=0;orthogonalLoop=1;jettySize=auto;html=1;entryX=0;entryY=0.5;entryDx=0;entryDy=0;" edge="1" parent="1" source="8tQ4eGIosvMPuxNZ7DzF-24" target="8tQ4eGIosvMPuxNZ7DzF-26">
          <mxGeometry relative="1" as="geometry">
            <Array as="points">
              <mxPoint x="121.92" y="910" />
            </Array>
          </mxGeometry>
        </mxCell>
        <mxCell id="8tQ4eGIosvMPuxNZ7DzF-24" value="bahanBaru();" style="shape=process;whiteSpace=wrap;html=1;backgroundOutline=1;" vertex="1" parent="1">
          <mxGeometry x="61.92" y="790" width="120" height="60" as="geometry" />
        </mxCell>
        <mxCell id="8tQ4eGIosvMPuxNZ7DzF-46" style="edgeStyle=orthogonalEdgeStyle;rounded=0;orthogonalLoop=1;jettySize=auto;html=1;exitX=0.5;exitY=1;exitDx=0;exitDy=0;entryX=0;entryY=0.5;entryDx=0;entryDy=0;" edge="1" parent="1" source="8tQ4eGIosvMPuxNZ7DzF-26" target="8tQ4eGIosvMPuxNZ7DzF-39">
          <mxGeometry relative="1" as="geometry" />
        </mxCell>
        <mxCell id="8tQ4eGIosvMPuxNZ7DzF-26" value="break" style="whiteSpace=wrap;html=1;" vertex="1" parent="1">
          <mxGeometry x="149.92000000000002" y="880" width="120" height="60" as="geometry" />
        </mxCell>
        <mxCell id="8tQ4eGIosvMPuxNZ7DzF-48" value="" style="edgeStyle=orthogonalEdgeStyle;rounded=0;orthogonalLoop=1;jettySize=auto;html=1;" edge="1" parent="1" source="8tQ4eGIosvMPuxNZ7DzF-29" target="8tQ4eGIosvMPuxNZ7DzF-47">
          <mxGeometry relative="1" as="geometry" />
        </mxCell>
        <mxCell id="8tQ4eGIosvMPuxNZ7DzF-29" value="continue" style="whiteSpace=wrap;html=1;" vertex="1" parent="1">
          <mxGeometry x="404.92" y="780" width="120" height="60" as="geometry" />
        </mxCell>
        <mxCell id="8tQ4eGIosvMPuxNZ7DzF-39" value="return" style="ellipse;whiteSpace=wrap;html=1;" vertex="1" parent="1">
          <mxGeometry x="630" y="1020" width="120" height="80" as="geometry" />
        </mxCell>
        <mxCell id="8tQ4eGIosvMPuxNZ7DzF-43" style="edgeStyle=orthogonalEdgeStyle;rounded=0;orthogonalLoop=1;jettySize=auto;html=1;exitX=0.5;exitY=1;exitDx=0;exitDy=0;entryX=0.5;entryY=0;entryDx=0;entryDy=0;" edge="1" parent="1" source="8tQ4eGIosvMPuxNZ7DzF-41" target="8tQ4eGIosvMPuxNZ7DzF-39">
          <mxGeometry relative="1" as="geometry" />
        </mxCell>
        <mxCell id="8tQ4eGIosvMPuxNZ7DzF-41" value="output&lt;br&gt;Maaf, jumlah jenis bahan telah mencapai maksimum!" style="shape=parallelogram;perimeter=parallelogramPerimeter;whiteSpace=wrap;html=1;fixedSize=1;" vertex="1" parent="1">
          <mxGeometry x="579.9599999999999" y="237.5" width="220.08" height="75" as="geometry" />
        </mxCell>
        <mxCell id="8tQ4eGIosvMPuxNZ7DzF-49" style="edgeStyle=orthogonalEdgeStyle;rounded=0;orthogonalLoop=1;jettySize=auto;html=1;exitX=1;exitY=0.5;exitDx=0;exitDy=0;" edge="1" parent="1" source="8tQ4eGIosvMPuxNZ7DzF-47">
          <mxGeometry relative="1" as="geometry">
            <mxPoint x="284" y="520" as="targetPoint" />
            <Array as="points">
              <mxPoint x="630" y="940" />
              <mxPoint x="630" y="520" />
            </Array>
          </mxGeometry>
        </mxCell>
        <mxCell id="8tQ4eGIosvMPuxNZ7DzF-51" style="edgeStyle=orthogonalEdgeStyle;rounded=0;orthogonalLoop=1;jettySize=auto;html=1;exitX=0.5;exitY=1;exitDx=0;exitDy=0;" edge="1" parent="1" source="8tQ4eGIosvMPuxNZ7DzF-47">
          <mxGeometry relative="1" as="geometry">
            <mxPoint x="465" y="1060" as="targetPoint" />
          </mxGeometry>
        </mxCell>
        <mxCell id="8tQ4eGIosvMPuxNZ7DzF-47" value="konfirmasi != &#39;y&#39; &lt;br&gt;&amp;amp;&amp;amp; konfirmasi != &#39;Y&#39; &lt;br&gt;&amp;amp;&amp;amp; konfirmasi != &#39;t&#39; &lt;br&gt;&amp;amp;&amp;amp; konfirmasi != &#39;T&#39;" style="rhombus;whiteSpace=wrap;html=1;" vertex="1" parent="1">
          <mxGeometry x="392.38" y="880" width="145.08" height="120" as="geometry" />
        </mxCell>
      </root>
    </mxGraphModel>
  </diagram>
  <diagram id="S9EPx9aQOLR2kBYOdEWE" name="tambahStok">
    <mxGraphModel dx="1050" dy="541" grid="1" gridSize="10" guides="1" tooltips="1" connect="1" arrows="1" fold="1" page="1" pageScale="1" pageWidth="827" pageHeight="1169" math="0" shadow="0">
      <root>
        <mxCell id="0" />
        <mxCell id="1" parent="0" />
        <mxCell id="DXmxxmxViYwNDwBrxg6c-2" value="" style="edgeStyle=orthogonalEdgeStyle;rounded=0;orthogonalLoop=1;jettySize=auto;html=1;" parent="1" source="M7Ti9Cqlic7CMh0Zk2a8-1" target="DXmxxmxViYwNDwBrxg6c-1" edge="1">
          <mxGeometry relative="1" as="geometry" />
        </mxCell>
        <mxCell id="M7Ti9Cqlic7CMh0Zk2a8-1" value="tambahStok()" style="ellipse;whiteSpace=wrap;html=1;" parent="1" vertex="1">
          <mxGeometry x="140" y="30" width="120" height="80" as="geometry" />
        </mxCell>
        <mxCell id="DXmxxmxViYwNDwBrxg6c-4" value="" style="edgeStyle=orthogonalEdgeStyle;rounded=0;orthogonalLoop=1;jettySize=auto;html=1;" parent="1" source="DXmxxmxViYwNDwBrxg6c-1" target="DXmxxmxViYwNDwBrxg6c-3" edge="1">
          <mxGeometry relative="1" as="geometry" />
        </mxCell>
        <mxCell id="DXmxxmxViYwNDwBrxg6c-1" value="int tambahBahan;" style="shape=hexagon;perimeter=hexagonPerimeter2;whiteSpace=wrap;html=1;fixedSize=1;" parent="1" vertex="1">
          <mxGeometry x="135" y="140" width="130" height="60" as="geometry" />
        </mxCell>
        <mxCell id="DXmxxmxViYwNDwBrxg6c-6" value="" style="edgeStyle=orthogonalEdgeStyle;rounded=0;orthogonalLoop=1;jettySize=auto;html=1;" parent="1" source="DXmxxmxViYwNDwBrxg6c-3" target="DXmxxmxViYwNDwBrxg6c-5" edge="1">
          <mxGeometry relative="1" as="geometry" />
        </mxCell>
        <mxCell id="DXmxxmxViYwNDwBrxg6c-3" value="int i = 0" style="whiteSpace=wrap;html=1;" parent="1" vertex="1">
          <mxGeometry x="140" y="240" width="120" height="60" as="geometry" />
        </mxCell>
        <mxCell id="DXmxxmxViYwNDwBrxg6c-8" value="" style="edgeStyle=orthogonalEdgeStyle;rounded=0;orthogonalLoop=1;jettySize=auto;html=1;" parent="1" source="DXmxxmxViYwNDwBrxg6c-5" target="vBdIXI0lIVsBQASLH6ny-1" edge="1">
          <mxGeometry relative="1" as="geometry">
            <mxPoint x="360" y="425" as="targetPoint" />
          </mxGeometry>
        </mxCell>
        <mxCell id="DXmxxmxViYwNDwBrxg6c-10" value="" style="edgeStyle=orthogonalEdgeStyle;rounded=0;orthogonalLoop=1;jettySize=auto;html=1;" parent="1" source="DXmxxmxViYwNDwBrxg6c-5" target="vBdIXI0lIVsBQASLH6ny-2" edge="1">
          <mxGeometry relative="1" as="geometry">
            <mxPoint x="200" y="510" as="targetPoint" />
          </mxGeometry>
        </mxCell>
        <mxCell id="DXmxxmxViYwNDwBrxg6c-5" value="i &amp;lt; namaBahan.length" style="rhombus;whiteSpace=wrap;html=1;" parent="1" vertex="1">
          <mxGeometry x="145" y="370" width="110" height="110" as="geometry" />
        </mxCell>
        <mxCell id="DXmxxmxViYwNDwBrxg6c-12" value="" style="edgeStyle=orthogonalEdgeStyle;rounded=0;orthogonalLoop=1;jettySize=auto;html=1;exitX=0.5;exitY=0;exitDx=0;exitDy=0;" parent="1" source="vBdIXI0lIVsBQASLH6ny-1" target="DXmxxmxViYwNDwBrxg6c-11" edge="1">
          <mxGeometry relative="1" as="geometry">
            <mxPoint x="420" y="390" as="sourcePoint" />
          </mxGeometry>
        </mxCell>
        <mxCell id="DXmxxmxViYwNDwBrxg6c-16" value="" style="edgeStyle=orthogonalEdgeStyle;rounded=0;orthogonalLoop=1;jettySize=auto;html=1;" parent="1" target="DXmxxmxViYwNDwBrxg6c-15" edge="1">
          <mxGeometry relative="1" as="geometry">
            <mxPoint x="200" y="580" as="sourcePoint" />
          </mxGeometry>
        </mxCell>
        <mxCell id="DXmxxmxViYwNDwBrxg6c-14" style="edgeStyle=orthogonalEdgeStyle;rounded=0;orthogonalLoop=1;jettySize=auto;html=1;" parent="1" source="DXmxxmxViYwNDwBrxg6c-11" edge="1">
          <mxGeometry relative="1" as="geometry">
            <mxPoint x="200" y="335" as="targetPoint" />
          </mxGeometry>
        </mxCell>
        <mxCell id="DXmxxmxViYwNDwBrxg6c-11" value="i++" style="whiteSpace=wrap;html=1;" parent="1" vertex="1">
          <mxGeometry x="370" y="310" width="100" height="50" as="geometry" />
        </mxCell>
        <mxCell id="DXmxxmxViYwNDwBrxg6c-20" value="" style="edgeStyle=orthogonalEdgeStyle;rounded=0;orthogonalLoop=1;jettySize=auto;html=1;" parent="1" source="DXmxxmxViYwNDwBrxg6c-15" target="DXmxxmxViYwNDwBrxg6c-19" edge="1">
          <mxGeometry relative="1" as="geometry" />
        </mxCell>
        <mxCell id="DXmxxmxViYwNDwBrxg6c-15" value="input tambahBahan" style="shape=parallelogram;perimeter=parallelogramPerimeter;whiteSpace=wrap;html=1;fixedSize=1;" parent="1" vertex="1">
          <mxGeometry x="130" y="610" width="140" height="60" as="geometry" />
        </mxCell>
        <mxCell id="DXmxxmxViYwNDwBrxg6c-17" value="" style="shape=curlyBracket;whiteSpace=wrap;html=1;rounded=1;labelPosition=left;verticalLabelPosition=middle;align=right;verticalAlign=middle;" parent="1" vertex="1">
          <mxGeometry x="80" y="270" width="20" height="280" as="geometry" />
        </mxCell>
        <mxCell id="DXmxxmxViYwNDwBrxg6c-18" value="Perulangan untuk menampilkan List Menu Bahan" style="text;html=1;strokeColor=none;fillColor=none;align=center;verticalAlign=middle;whiteSpace=wrap;rounded=0;" parent="1" vertex="1">
          <mxGeometry y="380" width="80" height="60" as="geometry" />
        </mxCell>
        <mxCell id="DXmxxmxViYwNDwBrxg6c-22" value="" style="edgeStyle=orthogonalEdgeStyle;rounded=0;orthogonalLoop=1;jettySize=auto;html=1;" parent="1" target="DXmxxmxViYwNDwBrxg6c-21" edge="1">
          <mxGeometry relative="1" as="geometry">
            <mxPoint x="200" y="740" as="sourcePoint" />
          </mxGeometry>
        </mxCell>
        <mxCell id="DXmxxmxViYwNDwBrxg6c-19" value="switch(tambahBahan)" style="whiteSpace=wrap;html=1;" parent="1" vertex="1">
          <mxGeometry x="130" y="700" width="140" height="60" as="geometry" />
        </mxCell>
        <mxCell id="DXmxxmxViYwNDwBrxg6c-24" value="" style="edgeStyle=orthogonalEdgeStyle;rounded=0;orthogonalLoop=1;jettySize=auto;html=1;" parent="1" source="DXmxxmxViYwNDwBrxg6c-21" target="DXmxxmxViYwNDwBrxg6c-23" edge="1">
          <mxGeometry relative="1" as="geometry" />
        </mxCell>
        <mxCell id="U23kMpA0_39BZsh_tN8W-18" value="" style="edgeStyle=orthogonalEdgeStyle;rounded=0;orthogonalLoop=1;jettySize=auto;html=1;" parent="1" source="DXmxxmxViYwNDwBrxg6c-21" target="U23kMpA0_39BZsh_tN8W-17" edge="1">
          <mxGeometry relative="1" as="geometry" />
        </mxCell>
        <mxCell id="DXmxxmxViYwNDwBrxg6c-21" value="case 1" style="rhombus;whiteSpace=wrap;html=1;" parent="1" vertex="1">
          <mxGeometry x="160" y="790" width="80" height="80" as="geometry" />
        </mxCell>
        <mxCell id="DXmxxmxViYwNDwBrxg6c-26" value="" style="edgeStyle=orthogonalEdgeStyle;rounded=0;orthogonalLoop=1;jettySize=auto;html=1;" parent="1" source="DXmxxmxViYwNDwBrxg6c-23" target="DXmxxmxViYwNDwBrxg6c-25" edge="1">
          <mxGeometry relative="1" as="geometry" />
        </mxCell>
        <mxCell id="8fNgH2JuiqXlGOEfrlxy-34" style="edgeStyle=orthogonalEdgeStyle;rounded=0;orthogonalLoop=1;jettySize=auto;html=1;exitX=0.5;exitY=1;exitDx=0;exitDy=0;entryX=0.5;entryY=0;entryDx=0;entryDy=0;" parent="1" source="DXmxxmxViYwNDwBrxg6c-23" target="8fNgH2JuiqXlGOEfrlxy-13" edge="1">
          <mxGeometry relative="1" as="geometry" />
        </mxCell>
        <mxCell id="DXmxxmxViYwNDwBrxg6c-23" value="case 2" style="rhombus;whiteSpace=wrap;html=1;" parent="1" vertex="1">
          <mxGeometry x="370" y="790" width="80" height="80" as="geometry" />
        </mxCell>
        <mxCell id="8fNgH2JuiqXlGOEfrlxy-35" style="edgeStyle=orthogonalEdgeStyle;rounded=0;orthogonalLoop=1;jettySize=auto;html=1;exitX=0.5;exitY=1;exitDx=0;exitDy=0;entryX=0.5;entryY=0;entryDx=0;entryDy=0;" parent="1" source="DXmxxmxViYwNDwBrxg6c-25" target="8fNgH2JuiqXlGOEfrlxy-24" edge="1">
          <mxGeometry relative="1" as="geometry" />
        </mxCell>
        <mxCell id="DXmxxmxViYwNDwBrxg6c-25" value="case 3" style="rhombus;whiteSpace=wrap;html=1;" parent="1" vertex="1">
          <mxGeometry x="580" y="790" width="80" height="80" as="geometry" />
        </mxCell>
        <mxCell id="DXmxxmxViYwNDwBrxg6c-30" value="" style="edgeStyle=orthogonalEdgeStyle;rounded=0;orthogonalLoop=1;jettySize=auto;html=1;" parent="1" source="DXmxxmxViYwNDwBrxg6c-27" target="DXmxxmxViYwNDwBrxg6c-29" edge="1">
          <mxGeometry relative="1" as="geometry" />
        </mxCell>
        <mxCell id="8fNgH2JuiqXlGOEfrlxy-47" style="edgeStyle=orthogonalEdgeStyle;rounded=0;orthogonalLoop=1;jettySize=auto;html=1;exitX=0.5;exitY=1;exitDx=0;exitDy=0;entryX=0.5;entryY=0;entryDx=0;entryDy=0;" parent="1" source="DXmxxmxViYwNDwBrxg6c-27" target="8fNgH2JuiqXlGOEfrlxy-37" edge="1">
          <mxGeometry relative="1" as="geometry" />
        </mxCell>
        <mxCell id="DXmxxmxViYwNDwBrxg6c-27" value="case 4" style="rhombus;whiteSpace=wrap;html=1;" parent="1" vertex="1">
          <mxGeometry x="960" y="30" width="80" height="80" as="geometry" />
        </mxCell>
        <mxCell id="DXmxxmxViYwNDwBrxg6c-32" value="" style="edgeStyle=orthogonalEdgeStyle;rounded=0;orthogonalLoop=1;jettySize=auto;html=1;" parent="1" source="DXmxxmxViYwNDwBrxg6c-29" target="DXmxxmxViYwNDwBrxg6c-31" edge="1">
          <mxGeometry relative="1" as="geometry" />
        </mxCell>
        <mxCell id="8fNgH2JuiqXlGOEfrlxy-59" style="edgeStyle=orthogonalEdgeStyle;rounded=0;orthogonalLoop=1;jettySize=auto;html=1;exitX=0.5;exitY=1;exitDx=0;exitDy=0;entryX=0.5;entryY=0;entryDx=0;entryDy=0;" parent="1" source="DXmxxmxViYwNDwBrxg6c-29" target="8fNgH2JuiqXlGOEfrlxy-49" edge="1">
          <mxGeometry relative="1" as="geometry" />
        </mxCell>
        <mxCell id="DXmxxmxViYwNDwBrxg6c-29" value="case 5" style="rhombus;whiteSpace=wrap;html=1;" parent="1" vertex="1">
          <mxGeometry x="1170" y="30" width="80" height="80" as="geometry" />
        </mxCell>
        <mxCell id="DXmxxmxViYwNDwBrxg6c-34" value="" style="edgeStyle=orthogonalEdgeStyle;rounded=0;orthogonalLoop=1;jettySize=auto;html=1;" parent="1" source="DXmxxmxViYwNDwBrxg6c-31" target="3YO24zm7dw9bH-VzxK7t-2" edge="1">
          <mxGeometry relative="1" as="geometry">
            <mxPoint x="1520" y="70" as="targetPoint" />
          </mxGeometry>
        </mxCell>
        <mxCell id="P_IL1GBbs7yUZOjmRHOS-25" style="edgeStyle=orthogonalEdgeStyle;rounded=0;orthogonalLoop=1;jettySize=auto;html=1;exitX=0.5;exitY=1;exitDx=0;exitDy=0;entryX=0.5;entryY=0;entryDx=0;entryDy=0;fontSize=12;" parent="1" source="DXmxxmxViYwNDwBrxg6c-31" target="3YO24zm7dw9bH-VzxK7t-1" edge="1">
          <mxGeometry relative="1" as="geometry">
            <mxPoint x="1420" y="381" as="targetPoint" />
          </mxGeometry>
        </mxCell>
        <mxCell id="DXmxxmxViYwNDwBrxg6c-31" value="case 6" style="rhombus;whiteSpace=wrap;html=1;" parent="1" vertex="1">
          <mxGeometry x="1380" y="30" width="80" height="80" as="geometry" />
        </mxCell>
        <mxCell id="P_IL1GBbs7yUZOjmRHOS-26" style="edgeStyle=orthogonalEdgeStyle;rounded=0;orthogonalLoop=1;jettySize=auto;html=1;exitX=0.5;exitY=1;exitDx=0;exitDy=0;entryX=0.5;entryY=0;entryDx=0;entryDy=0;fontSize=12;" parent="1" source="3YO24zm7dw9bH-VzxK7t-2" target="U23kMpA0_39BZsh_tN8W-3" edge="1">
          <mxGeometry relative="1" as="geometry">
            <mxPoint x="1580" y="100" as="sourcePoint" />
          </mxGeometry>
        </mxCell>
        <mxCell id="P_IL1GBbs7yUZOjmRHOS-33" style="edgeStyle=orthogonalEdgeStyle;rounded=0;orthogonalLoop=1;jettySize=auto;html=1;exitX=0.5;exitY=1;exitDx=0;exitDy=0;fontSize=12;" parent="1" source="U23kMpA0_39BZsh_tN8W-3" edge="1">
          <mxGeometry relative="1" as="geometry">
            <mxPoint x="1420" y="730" as="targetPoint" />
            <Array as="points">
              <mxPoint x="1580" y="730" />
              <mxPoint x="1420" y="730" />
            </Array>
          </mxGeometry>
        </mxCell>
        <mxCell id="U23kMpA0_39BZsh_tN8W-3" value="tambahStok()" style="shape=process;whiteSpace=wrap;html=1;backgroundOutline=1;" parent="1" vertex="1">
          <mxGeometry x="1520" y="381" width="120" height="60" as="geometry" />
        </mxCell>
        <mxCell id="U23kMpA0_39BZsh_tN8W-20" value="" style="edgeStyle=orthogonalEdgeStyle;rounded=0;orthogonalLoop=1;jettySize=auto;html=1;" parent="1" source="U23kMpA0_39BZsh_tN8W-17" target="U23kMpA0_39BZsh_tN8W-19" edge="1">
          <mxGeometry relative="1" as="geometry" />
        </mxCell>
        <mxCell id="U23kMpA0_39BZsh_tN8W-17" value="input&lt;br&gt;data bahan baik" style="shape=parallelogram;perimeter=parallelogramPerimeter;whiteSpace=wrap;html=1;fixedSize=1;" parent="1" vertex="1">
          <mxGeometry x="140" y="900" width="120" height="60" as="geometry" />
        </mxCell>
        <mxCell id="P_IL1GBbs7yUZOjmRHOS-38" style="edgeStyle=orthogonalEdgeStyle;rounded=0;orthogonalLoop=1;jettySize=auto;html=1;exitX=0.5;exitY=1;exitDx=0;exitDy=0;entryX=0.5;entryY=0;entryDx=0;entryDy=0;fontSize=12;" parent="1" source="U23kMpA0_39BZsh_tN8W-19" target="HHqnDA0zmmWQGcJyzSaW-1" edge="1">
          <mxGeometry relative="1" as="geometry" />
        </mxCell>
        <mxCell id="U23kMpA0_39BZsh_tN8W-19" value="tabelBahan[tambahBahan-1][0] &lt;br&gt;+= sc.nextInt();" style="whiteSpace=wrap;html=1;" parent="1" vertex="1">
          <mxGeometry x="110" y="990" width="180" height="60" as="geometry" />
        </mxCell>
        <mxCell id="U23kMpA0_39BZsh_tN8W-21" value="" style="edgeStyle=orthogonalEdgeStyle;rounded=0;orthogonalLoop=1;jettySize=auto;html=1;" parent="1" target="U23kMpA0_39BZsh_tN8W-23" edge="1">
          <mxGeometry relative="1" as="geometry">
            <mxPoint x="168" y="1377.0000000000002" as="sourcePoint" />
          </mxGeometry>
        </mxCell>
        <mxCell id="U23kMpA0_39BZsh_tN8W-22" value="input&lt;br&gt;data bahan busuk" style="shape=parallelogram;perimeter=parallelogramPerimeter;whiteSpace=wrap;html=1;fixedSize=1;" parent="1" vertex="1">
          <mxGeometry x="103" y="1316" width="130" height="60" as="geometry" />
        </mxCell>
        <mxCell id="U23kMpA0_39BZsh_tN8W-26" value="" style="edgeStyle=orthogonalEdgeStyle;rounded=0;orthogonalLoop=1;jettySize=auto;html=1;" parent="1" source="U23kMpA0_39BZsh_tN8W-23" target="U23kMpA0_39BZsh_tN8W-25" edge="1">
          <mxGeometry relative="1" as="geometry" />
        </mxCell>
        <mxCell id="U23kMpA0_39BZsh_tN8W-23" value="tabelBahan[tambahBahan-1][1] &lt;br&gt;+= sc.nextInt();" style="whiteSpace=wrap;html=1;" parent="1" vertex="1">
          <mxGeometry x="78" y="1407" width="180" height="60" as="geometry" />
        </mxCell>
        <mxCell id="3YO24zm7dw9bH-VzxK7t-4" value="" style="edgeStyle=orthogonalEdgeStyle;rounded=0;orthogonalLoop=1;jettySize=auto;html=1;fontSize=11;" parent="1" source="U23kMpA0_39BZsh_tN8W-25" target="3YO24zm7dw9bH-VzxK7t-3" edge="1">
          <mxGeometry relative="1" as="geometry" />
        </mxCell>
        <mxCell id="U23kMpA0_39BZsh_tN8W-25" value="tabelBahan[tambahBahan-1][2] &lt;br&gt;= tabelBahan[tambahBahan-1][0] &lt;br&gt;+ tabelBahan[tambahBahan-1][1];" style="whiteSpace=wrap;html=1;" parent="1" vertex="1">
          <mxGeometry x="68" y="1497" width="200" height="90" as="geometry" />
        </mxCell>
        <mxCell id="P_IL1GBbs7yUZOjmRHOS-18" style="edgeStyle=orthogonalEdgeStyle;rounded=0;orthogonalLoop=1;jettySize=auto;html=1;exitX=0.5;exitY=1;exitDx=0;exitDy=0;entryX=0;entryY=0.5;entryDx=0;entryDy=0;fontSize=12;" parent="1" source="U23kMpA0_39BZsh_tN8W-27" target="P_IL1GBbs7yUZOjmRHOS-16" edge="1">
          <mxGeometry relative="1" as="geometry" />
        </mxCell>
        <mxCell id="U23kMpA0_39BZsh_tN8W-27" value="tambahStok()" style="shape=process;whiteSpace=wrap;html=1;backgroundOutline=1;" parent="1" vertex="1">
          <mxGeometry x="108" y="1710" width="120" height="60" as="geometry" />
        </mxCell>
        <mxCell id="8fNgH2JuiqXlGOEfrlxy-12" value="" style="edgeStyle=orthogonalEdgeStyle;rounded=0;orthogonalLoop=1;jettySize=auto;html=1;" parent="1" source="8fNgH2JuiqXlGOEfrlxy-13" target="8fNgH2JuiqXlGOEfrlxy-15" edge="1">
          <mxGeometry relative="1" as="geometry" />
        </mxCell>
        <mxCell id="8fNgH2JuiqXlGOEfrlxy-13" value="input&lt;br&gt;data bahan baik" style="shape=parallelogram;perimeter=parallelogramPerimeter;whiteSpace=wrap;html=1;fixedSize=1;" parent="1" vertex="1">
          <mxGeometry x="350" y="900" width="120" height="60" as="geometry" />
        </mxCell>
        <mxCell id="P_IL1GBbs7yUZOjmRHOS-37" style="edgeStyle=orthogonalEdgeStyle;rounded=0;orthogonalLoop=1;jettySize=auto;html=1;exitX=0.5;exitY=1;exitDx=0;exitDy=0;entryX=0.5;entryY=0;entryDx=0;entryDy=0;fontSize=12;" parent="1" source="8fNgH2JuiqXlGOEfrlxy-15" target="HHqnDA0zmmWQGcJyzSaW-2" edge="1">
          <mxGeometry relative="1" as="geometry" />
        </mxCell>
        <mxCell id="8fNgH2JuiqXlGOEfrlxy-15" value="tabelBahan[tambahBahan-1][0] &lt;br&gt;+= sc.nextInt();" style="whiteSpace=wrap;html=1;" parent="1" vertex="1">
          <mxGeometry x="320" y="990" width="180" height="60" as="geometry" />
        </mxCell>
        <mxCell id="8fNgH2JuiqXlGOEfrlxy-16" value="" style="edgeStyle=orthogonalEdgeStyle;rounded=0;orthogonalLoop=1;jettySize=auto;html=1;" parent="1" target="8fNgH2JuiqXlGOEfrlxy-19" edge="1">
          <mxGeometry relative="1" as="geometry">
            <mxPoint x="378" y="1377.0000000000002" as="sourcePoint" />
          </mxGeometry>
        </mxCell>
        <mxCell id="8fNgH2JuiqXlGOEfrlxy-17" value="input&lt;br&gt;data bahan busuk" style="shape=parallelogram;perimeter=parallelogramPerimeter;whiteSpace=wrap;html=1;fixedSize=1;" parent="1" vertex="1">
          <mxGeometry x="313" y="1316" width="130" height="60" as="geometry" />
        </mxCell>
        <mxCell id="8fNgH2JuiqXlGOEfrlxy-18" value="" style="edgeStyle=orthogonalEdgeStyle;rounded=0;orthogonalLoop=1;jettySize=auto;html=1;" parent="1" source="8fNgH2JuiqXlGOEfrlxy-19" target="8fNgH2JuiqXlGOEfrlxy-21" edge="1">
          <mxGeometry relative="1" as="geometry" />
        </mxCell>
        <mxCell id="8fNgH2JuiqXlGOEfrlxy-19" value="tabelBahan[tambahBahan-1][1] &lt;br&gt;+= sc.nextInt();" style="whiteSpace=wrap;html=1;" parent="1" vertex="1">
          <mxGeometry x="288" y="1407" width="180" height="60" as="geometry" />
        </mxCell>
        <mxCell id="8fNgH2JuiqXlGOEfrlxy-21" value="tabelBahan[tambahBahan-1][2] &lt;br&gt;= tabelBahan[tambahBahan-1][0] &lt;br&gt;+ tabelBahan[tambahBahan-1][1];" style="whiteSpace=wrap;html=1;" parent="1" vertex="1">
          <mxGeometry x="278" y="1497" width="200" height="90" as="geometry" />
        </mxCell>
        <mxCell id="P_IL1GBbs7yUZOjmRHOS-19" style="edgeStyle=orthogonalEdgeStyle;rounded=0;orthogonalLoop=1;jettySize=auto;html=1;exitX=0.5;exitY=1;exitDx=0;exitDy=0;entryX=0.5;entryY=0;entryDx=0;entryDy=0;fontSize=12;" parent="1" source="8fNgH2JuiqXlGOEfrlxy-22" target="P_IL1GBbs7yUZOjmRHOS-16" edge="1">
          <mxGeometry relative="1" as="geometry" />
        </mxCell>
        <mxCell id="8fNgH2JuiqXlGOEfrlxy-22" value="tambahStok()" style="shape=process;whiteSpace=wrap;html=1;backgroundOutline=1;" parent="1" vertex="1">
          <mxGeometry x="318" y="1710" width="120" height="60" as="geometry" />
        </mxCell>
        <mxCell id="8fNgH2JuiqXlGOEfrlxy-23" value="" style="edgeStyle=orthogonalEdgeStyle;rounded=0;orthogonalLoop=1;jettySize=auto;html=1;" parent="1" source="8fNgH2JuiqXlGOEfrlxy-24" target="8fNgH2JuiqXlGOEfrlxy-26" edge="1">
          <mxGeometry relative="1" as="geometry" />
        </mxCell>
        <mxCell id="8fNgH2JuiqXlGOEfrlxy-24" value="input&lt;br&gt;data bahan baik" style="shape=parallelogram;perimeter=parallelogramPerimeter;whiteSpace=wrap;html=1;fixedSize=1;" parent="1" vertex="1">
          <mxGeometry x="560" y="900" width="120" height="60" as="geometry" />
        </mxCell>
        <mxCell id="P_IL1GBbs7yUZOjmRHOS-36" style="edgeStyle=orthogonalEdgeStyle;rounded=0;orthogonalLoop=1;jettySize=auto;html=1;exitX=0.5;exitY=1;exitDx=0;exitDy=0;entryX=0.5;entryY=0;entryDx=0;entryDy=0;fontSize=12;" parent="1" source="8fNgH2JuiqXlGOEfrlxy-26" target="HHqnDA0zmmWQGcJyzSaW-3" edge="1">
          <mxGeometry relative="1" as="geometry" />
        </mxCell>
        <mxCell id="8fNgH2JuiqXlGOEfrlxy-26" value="tabelBahan[tambahBahan-1][0] &lt;br&gt;+= sc.nextInt();" style="whiteSpace=wrap;html=1;" parent="1" vertex="1">
          <mxGeometry x="530" y="990" width="180" height="60" as="geometry" />
        </mxCell>
        <mxCell id="8fNgH2JuiqXlGOEfrlxy-27" value="" style="edgeStyle=orthogonalEdgeStyle;rounded=0;orthogonalLoop=1;jettySize=auto;html=1;" parent="1" target="8fNgH2JuiqXlGOEfrlxy-30" edge="1">
          <mxGeometry relative="1" as="geometry">
            <mxPoint x="588" y="1377.0000000000002" as="sourcePoint" />
          </mxGeometry>
        </mxCell>
        <mxCell id="8fNgH2JuiqXlGOEfrlxy-28" value="input&lt;br&gt;data bahan busuk" style="shape=parallelogram;perimeter=parallelogramPerimeter;whiteSpace=wrap;html=1;fixedSize=1;" parent="1" vertex="1">
          <mxGeometry x="523" y="1316" width="130" height="60" as="geometry" />
        </mxCell>
        <mxCell id="8fNgH2JuiqXlGOEfrlxy-29" value="" style="edgeStyle=orthogonalEdgeStyle;rounded=0;orthogonalLoop=1;jettySize=auto;html=1;" parent="1" source="8fNgH2JuiqXlGOEfrlxy-30" target="8fNgH2JuiqXlGOEfrlxy-32" edge="1">
          <mxGeometry relative="1" as="geometry" />
        </mxCell>
        <mxCell id="8fNgH2JuiqXlGOEfrlxy-30" value="tabelBahan[tambahBahan-1][1] &lt;br&gt;+= sc.nextInt();" style="whiteSpace=wrap;html=1;" parent="1" vertex="1">
          <mxGeometry x="498" y="1407" width="180" height="60" as="geometry" />
        </mxCell>
        <mxCell id="8fNgH2JuiqXlGOEfrlxy-32" value="tabelBahan[tambahBahan-1][2] &lt;br&gt;= tabelBahan[tambahBahan-1][0] &lt;br&gt;+ tabelBahan[tambahBahan-1][1];" style="whiteSpace=wrap;html=1;" parent="1" vertex="1">
          <mxGeometry x="488" y="1497" width="200" height="90" as="geometry" />
        </mxCell>
        <mxCell id="P_IL1GBbs7yUZOjmRHOS-20" style="edgeStyle=orthogonalEdgeStyle;rounded=0;orthogonalLoop=1;jettySize=auto;html=1;exitX=0.5;exitY=1;exitDx=0;exitDy=0;entryX=1;entryY=0.5;entryDx=0;entryDy=0;fontSize=12;" parent="1" source="8fNgH2JuiqXlGOEfrlxy-33" target="P_IL1GBbs7yUZOjmRHOS-16" edge="1">
          <mxGeometry relative="1" as="geometry" />
        </mxCell>
        <mxCell id="8fNgH2JuiqXlGOEfrlxy-33" value="tambahStok()" style="shape=process;whiteSpace=wrap;html=1;backgroundOutline=1;" parent="1" vertex="1">
          <mxGeometry x="528" y="1710" width="120" height="60" as="geometry" />
        </mxCell>
        <mxCell id="8fNgH2JuiqXlGOEfrlxy-36" value="" style="edgeStyle=orthogonalEdgeStyle;rounded=0;orthogonalLoop=1;jettySize=auto;html=1;" parent="1" source="8fNgH2JuiqXlGOEfrlxy-37" target="8fNgH2JuiqXlGOEfrlxy-39" edge="1">
          <mxGeometry relative="1" as="geometry" />
        </mxCell>
        <mxCell id="8fNgH2JuiqXlGOEfrlxy-37" value="input&lt;br&gt;data bahan baik" style="shape=parallelogram;perimeter=parallelogramPerimeter;whiteSpace=wrap;html=1;fixedSize=1;" parent="1" vertex="1">
          <mxGeometry x="940" y="140" width="120" height="60" as="geometry" />
        </mxCell>
        <mxCell id="vBdIXI0lIVsBQASLH6ny-3" style="edgeStyle=orthogonalEdgeStyle;rounded=0;orthogonalLoop=1;jettySize=auto;html=1;exitX=0.5;exitY=1;exitDx=0;exitDy=0;entryX=0.5;entryY=0;entryDx=0;entryDy=0;fontSize=11;" parent="1" source="8fNgH2JuiqXlGOEfrlxy-39" target="8fNgH2JuiqXlGOEfrlxy-41" edge="1">
          <mxGeometry relative="1" as="geometry" />
        </mxCell>
        <mxCell id="8fNgH2JuiqXlGOEfrlxy-39" value="tabelBahan[tambahBahan-1][0] &lt;br&gt;+= sc.nextInt();" style="whiteSpace=wrap;html=1;" parent="1" vertex="1">
          <mxGeometry x="910" y="230" width="180" height="60" as="geometry" />
        </mxCell>
        <mxCell id="8fNgH2JuiqXlGOEfrlxy-40" value="" style="edgeStyle=orthogonalEdgeStyle;rounded=0;orthogonalLoop=1;jettySize=auto;html=1;" parent="1" target="8fNgH2JuiqXlGOEfrlxy-43" edge="1">
          <mxGeometry relative="1" as="geometry">
            <mxPoint x="1000" y="371.0000000000002" as="sourcePoint" />
          </mxGeometry>
        </mxCell>
        <mxCell id="8fNgH2JuiqXlGOEfrlxy-41" value="input&lt;br&gt;data bahan busuk" style="shape=parallelogram;perimeter=parallelogramPerimeter;whiteSpace=wrap;html=1;fixedSize=1;" parent="1" vertex="1">
          <mxGeometry x="935" y="310" width="130" height="60" as="geometry" />
        </mxCell>
        <mxCell id="8fNgH2JuiqXlGOEfrlxy-42" value="" style="edgeStyle=orthogonalEdgeStyle;rounded=0;orthogonalLoop=1;jettySize=auto;html=1;" parent="1" source="8fNgH2JuiqXlGOEfrlxy-43" target="8fNgH2JuiqXlGOEfrlxy-45" edge="1">
          <mxGeometry relative="1" as="geometry" />
        </mxCell>
        <mxCell id="8fNgH2JuiqXlGOEfrlxy-43" value="tabelBahan[tambahBahan-1][1] &lt;br&gt;+= sc.nextInt();" style="whiteSpace=wrap;html=1;" parent="1" vertex="1">
          <mxGeometry x="910" y="401" width="180" height="60" as="geometry" />
        </mxCell>
        <mxCell id="8fNgH2JuiqXlGOEfrlxy-45" value="tabelBahan[tambahBahan-1][2] &lt;br&gt;= tabelBahan[tambahBahan-1][0] &lt;br&gt;+ tabelBahan[tambahBahan-1][1];" style="whiteSpace=wrap;html=1;" parent="1" vertex="1">
          <mxGeometry x="900" y="491" width="200" height="90" as="geometry" />
        </mxCell>
        <mxCell id="P_IL1GBbs7yUZOjmRHOS-28" style="edgeStyle=orthogonalEdgeStyle;rounded=0;orthogonalLoop=1;jettySize=auto;html=1;exitX=0.5;exitY=1;exitDx=0;exitDy=0;entryX=0.5;entryY=0;entryDx=0;entryDy=0;fontSize=12;" parent="1" source="8fNgH2JuiqXlGOEfrlxy-46" target="P_IL1GBbs7yUZOjmRHOS-27" edge="1">
          <mxGeometry relative="1" as="geometry" />
        </mxCell>
        <mxCell id="8fNgH2JuiqXlGOEfrlxy-46" value="tambahStok()" style="shape=process;whiteSpace=wrap;html=1;backgroundOutline=1;" parent="1" vertex="1">
          <mxGeometry x="940" y="711" width="120" height="60" as="geometry" />
        </mxCell>
        <mxCell id="8fNgH2JuiqXlGOEfrlxy-48" value="" style="edgeStyle=orthogonalEdgeStyle;rounded=0;orthogonalLoop=1;jettySize=auto;html=1;" parent="1" source="8fNgH2JuiqXlGOEfrlxy-49" target="8fNgH2JuiqXlGOEfrlxy-51" edge="1">
          <mxGeometry relative="1" as="geometry" />
        </mxCell>
        <mxCell id="8fNgH2JuiqXlGOEfrlxy-49" value="input&lt;br&gt;data bahan baik" style="shape=parallelogram;perimeter=parallelogramPerimeter;whiteSpace=wrap;html=1;fixedSize=1;" parent="1" vertex="1">
          <mxGeometry x="1150" y="140" width="120" height="60" as="geometry" />
        </mxCell>
        <mxCell id="vBdIXI0lIVsBQASLH6ny-4" style="edgeStyle=orthogonalEdgeStyle;rounded=0;orthogonalLoop=1;jettySize=auto;html=1;exitX=0.5;exitY=1;exitDx=0;exitDy=0;entryX=0.5;entryY=0;entryDx=0;entryDy=0;fontSize=11;" parent="1" source="8fNgH2JuiqXlGOEfrlxy-51" target="8fNgH2JuiqXlGOEfrlxy-53" edge="1">
          <mxGeometry relative="1" as="geometry" />
        </mxCell>
        <mxCell id="8fNgH2JuiqXlGOEfrlxy-51" value="tabelBahan[tambahBahan-1][0] &lt;br&gt;+= sc.nextInt();" style="whiteSpace=wrap;html=1;" parent="1" vertex="1">
          <mxGeometry x="1120" y="230" width="180" height="60" as="geometry" />
        </mxCell>
        <mxCell id="8fNgH2JuiqXlGOEfrlxy-52" value="" style="edgeStyle=orthogonalEdgeStyle;rounded=0;orthogonalLoop=1;jettySize=auto;html=1;" parent="1" target="8fNgH2JuiqXlGOEfrlxy-55" edge="1">
          <mxGeometry relative="1" as="geometry">
            <mxPoint x="1210" y="371.0000000000002" as="sourcePoint" />
          </mxGeometry>
        </mxCell>
        <mxCell id="8fNgH2JuiqXlGOEfrlxy-53" value="input&lt;br&gt;data bahan busuk" style="shape=parallelogram;perimeter=parallelogramPerimeter;whiteSpace=wrap;html=1;fixedSize=1;" parent="1" vertex="1">
          <mxGeometry x="1145" y="310" width="130" height="60" as="geometry" />
        </mxCell>
        <mxCell id="8fNgH2JuiqXlGOEfrlxy-54" value="" style="edgeStyle=orthogonalEdgeStyle;rounded=0;orthogonalLoop=1;jettySize=auto;html=1;" parent="1" source="8fNgH2JuiqXlGOEfrlxy-55" target="8fNgH2JuiqXlGOEfrlxy-57" edge="1">
          <mxGeometry relative="1" as="geometry" />
        </mxCell>
        <mxCell id="8fNgH2JuiqXlGOEfrlxy-55" value="tabelBahan[tambahBahan-1][1] &lt;br&gt;+= sc.nextInt();" style="whiteSpace=wrap;html=1;" parent="1" vertex="1">
          <mxGeometry x="1120" y="401" width="180" height="60" as="geometry" />
        </mxCell>
        <mxCell id="3YO24zm7dw9bH-VzxK7t-21" style="edgeStyle=orthogonalEdgeStyle;rounded=0;orthogonalLoop=1;jettySize=auto;html=1;exitX=0.5;exitY=1;exitDx=0;exitDy=0;entryX=0.5;entryY=0;entryDx=0;entryDy=0;fontSize=11;" parent="1" source="8fNgH2JuiqXlGOEfrlxy-57" target="3YO24zm7dw9bH-VzxK7t-17" edge="1">
          <mxGeometry relative="1" as="geometry" />
        </mxCell>
        <mxCell id="8fNgH2JuiqXlGOEfrlxy-57" value="tabelBahan[tambahBahan-1][2] &lt;br&gt;= tabelBahan[tambahBahan-1][0] &lt;br&gt;+ tabelBahan[tambahBahan-1][1];" style="whiteSpace=wrap;html=1;" parent="1" vertex="1">
          <mxGeometry x="1110" y="491" width="200" height="90" as="geometry" />
        </mxCell>
        <mxCell id="P_IL1GBbs7yUZOjmRHOS-29" style="edgeStyle=orthogonalEdgeStyle;rounded=0;orthogonalLoop=1;jettySize=auto;html=1;exitX=0.5;exitY=1;exitDx=0;exitDy=0;entryX=1;entryY=0.5;entryDx=0;entryDy=0;fontSize=12;" parent="1" source="8fNgH2JuiqXlGOEfrlxy-58" target="P_IL1GBbs7yUZOjmRHOS-27" edge="1">
          <mxGeometry relative="1" as="geometry" />
        </mxCell>
        <mxCell id="8fNgH2JuiqXlGOEfrlxy-58" value="tambahStok()" style="shape=process;whiteSpace=wrap;html=1;backgroundOutline=1;" parent="1" vertex="1">
          <mxGeometry x="1150" y="711" width="120" height="60" as="geometry" />
        </mxCell>
        <mxCell id="8fNgH2JuiqXlGOEfrlxy-60" value="" style="edgeStyle=orthogonalEdgeStyle;rounded=0;orthogonalLoop=1;jettySize=auto;html=1;" parent="1" edge="1">
          <mxGeometry relative="1" as="geometry">
            <mxPoint x="1410" y="990" as="targetPoint" />
          </mxGeometry>
        </mxCell>
        <mxCell id="8fNgH2JuiqXlGOEfrlxy-62" style="edgeStyle=orthogonalEdgeStyle;rounded=0;orthogonalLoop=1;jettySize=auto;html=1;exitX=0.5;exitY=1;exitDx=0;exitDy=0;entryX=0.5;entryY=0;entryDx=0;entryDy=0;" parent="1" edge="1">
          <mxGeometry relative="1" as="geometry">
            <mxPoint x="1410" y="1080.0000000000002" as="targetPoint" />
          </mxGeometry>
        </mxCell>
        <mxCell id="8fNgH2JuiqXlGOEfrlxy-64" value="" style="edgeStyle=orthogonalEdgeStyle;rounded=0;orthogonalLoop=1;jettySize=auto;html=1;" parent="1" edge="1">
          <mxGeometry relative="1" as="geometry">
            <mxPoint x="1410" y="1170.0000000000002" as="targetPoint" />
          </mxGeometry>
        </mxCell>
        <mxCell id="8fNgH2JuiqXlGOEfrlxy-66" value="" style="edgeStyle=orthogonalEdgeStyle;rounded=0;orthogonalLoop=1;jettySize=auto;html=1;" parent="1" edge="1">
          <mxGeometry relative="1" as="geometry">
            <mxPoint x="1410" y="1260.0000000000002" as="targetPoint" />
          </mxGeometry>
        </mxCell>
        <mxCell id="8fNgH2JuiqXlGOEfrlxy-68" style="edgeStyle=orthogonalEdgeStyle;rounded=0;orthogonalLoop=1;jettySize=auto;html=1;exitX=0.5;exitY=1;exitDx=0;exitDy=0;entryX=0.5;entryY=0;entryDx=0;entryDy=0;" parent="1" edge="1">
          <mxGeometry relative="1" as="geometry">
            <mxPoint x="1410" y="1380" as="targetPoint" />
          </mxGeometry>
        </mxCell>
        <mxCell id="P_IL1GBbs7yUZOjmRHOS-32" style="edgeStyle=orthogonalEdgeStyle;rounded=0;orthogonalLoop=1;jettySize=auto;html=1;exitX=0.5;exitY=1;exitDx=0;exitDy=0;fontSize=12;" parent="1" source="3YO24zm7dw9bH-VzxK7t-1" edge="1">
          <mxGeometry relative="1" as="geometry">
            <mxPoint x="1210" y="870" as="targetPoint" />
            <Array as="points">
              <mxPoint x="1420" y="870" />
            </Array>
            <mxPoint x="1420" y="441.0000000000001" as="sourcePoint" />
          </mxGeometry>
        </mxCell>
        <mxCell id="8fNgH2JuiqXlGOEfrlxy-88" value="return tambahBahan" style="ellipse;whiteSpace=wrap;html=1;" parent="1" vertex="1">
          <mxGeometry x="308" y="1939" width="140" height="60" as="geometry" />
        </mxCell>
        <mxCell id="_eKjVrTMzCBWvz8TAD9U-1" value="True" style="text;html=1;strokeColor=none;fillColor=none;align=center;verticalAlign=middle;whiteSpace=wrap;rounded=0;" parent="1" vertex="1">
          <mxGeometry x="255" y="395" width="60" height="30" as="geometry" />
        </mxCell>
        <mxCell id="_eKjVrTMzCBWvz8TAD9U-2" value="False" style="text;html=1;strokeColor=none;fillColor=none;align=center;verticalAlign=middle;whiteSpace=wrap;rounded=0;" parent="1" vertex="1">
          <mxGeometry x="200" y="480" width="60" height="30" as="geometry" />
        </mxCell>
        <mxCell id="_eKjVrTMzCBWvz8TAD9U-3" value="True" style="text;html=1;strokeColor=none;fillColor=none;align=center;verticalAlign=middle;whiteSpace=wrap;rounded=0;" parent="1" vertex="1">
          <mxGeometry x="200" y="870" width="60" height="30" as="geometry" />
        </mxCell>
        <mxCell id="_eKjVrTMzCBWvz8TAD9U-4" value="False" style="text;html=1;strokeColor=none;fillColor=none;align=center;verticalAlign=middle;whiteSpace=wrap;rounded=0;" parent="1" vertex="1">
          <mxGeometry x="240" y="800" width="60" height="30" as="geometry" />
        </mxCell>
        <mxCell id="_eKjVrTMzCBWvz8TAD9U-5" value="True" style="text;html=1;strokeColor=none;fillColor=none;align=center;verticalAlign=middle;whiteSpace=wrap;rounded=0;" parent="1" vertex="1">
          <mxGeometry x="410" y="870" width="60" height="30" as="geometry" />
        </mxCell>
        <mxCell id="_eKjVrTMzCBWvz8TAD9U-6" value="False" style="text;html=1;strokeColor=none;fillColor=none;align=center;verticalAlign=middle;whiteSpace=wrap;rounded=0;" parent="1" vertex="1">
          <mxGeometry x="450" y="800" width="60" height="30" as="geometry" />
        </mxCell>
        <mxCell id="_eKjVrTMzCBWvz8TAD9U-7" value="True" style="text;html=1;strokeColor=none;fillColor=none;align=center;verticalAlign=middle;whiteSpace=wrap;rounded=0;" parent="1" vertex="1">
          <mxGeometry x="620" y="870" width="60" height="30" as="geometry" />
        </mxCell>
        <mxCell id="eanAd6g7_c8zHD5ZtpcI-6" style="edgeStyle=orthogonalEdgeStyle;rounded=0;orthogonalLoop=1;jettySize=auto;html=1;exitX=0;exitY=1;exitDx=0;exitDy=0;entryX=0;entryY=0.5;entryDx=0;entryDy=0;fontSize=23;" parent="1" source="_eKjVrTMzCBWvz8TAD9U-8" target="eanAd6g7_c8zHD5ZtpcI-1" edge="1">
          <mxGeometry relative="1" as="geometry">
            <Array as="points">
              <mxPoint x="695" y="830" />
              <mxPoint x="695" y="830" />
            </Array>
          </mxGeometry>
        </mxCell>
        <mxCell id="_eKjVrTMzCBWvz8TAD9U-8" value="False" style="text;html=1;strokeColor=none;fillColor=none;align=center;verticalAlign=middle;whiteSpace=wrap;rounded=0;" parent="1" vertex="1">
          <mxGeometry x="660" y="800" width="60" height="30" as="geometry" />
        </mxCell>
        <mxCell id="_eKjVrTMzCBWvz8TAD9U-9" value="True" style="text;html=1;strokeColor=none;fillColor=none;align=center;verticalAlign=middle;whiteSpace=wrap;rounded=0;" parent="1" vertex="1">
          <mxGeometry x="1000" y="110" width="60" height="30" as="geometry" />
        </mxCell>
        <mxCell id="_eKjVrTMzCBWvz8TAD9U-10" value="False" style="text;html=1;strokeColor=none;fillColor=none;align=center;verticalAlign=middle;whiteSpace=wrap;rounded=0;" parent="1" vertex="1">
          <mxGeometry x="1040" y="40" width="60" height="30" as="geometry" />
        </mxCell>
        <mxCell id="_eKjVrTMzCBWvz8TAD9U-11" value="True" style="text;html=1;strokeColor=none;fillColor=none;align=center;verticalAlign=middle;whiteSpace=wrap;rounded=0;" parent="1" vertex="1">
          <mxGeometry x="1211" y="110" width="60" height="30" as="geometry" />
        </mxCell>
        <mxCell id="_eKjVrTMzCBWvz8TAD9U-12" value="False" style="text;html=1;strokeColor=none;fillColor=none;align=center;verticalAlign=middle;whiteSpace=wrap;rounded=0;" parent="1" vertex="1">
          <mxGeometry x="1251" y="40" width="60" height="30" as="geometry" />
        </mxCell>
        <mxCell id="_eKjVrTMzCBWvz8TAD9U-13" value="True" style="text;html=1;strokeColor=none;fillColor=none;align=center;verticalAlign=middle;whiteSpace=wrap;rounded=0;" parent="1" vertex="1">
          <mxGeometry x="1425" y="110" width="60" height="30" as="geometry" />
        </mxCell>
        <mxCell id="_eKjVrTMzCBWvz8TAD9U-14" value="False" style="text;html=1;strokeColor=none;fillColor=none;align=center;verticalAlign=middle;whiteSpace=wrap;rounded=0;" parent="1" vertex="1">
          <mxGeometry x="1460" y="40" width="60" height="30" as="geometry" />
        </mxCell>
        <mxCell id="eanAd6g7_c8zHD5ZtpcI-1" value="TC" style="verticalLabelPosition=bottom;verticalAlign=top;html=1;shape=offPageConnector;rounded=0;size=0.5;spacingTop=-65;fontSize=23;" parent="1" vertex="1">
          <mxGeometry x="740" y="790" width="74" height="80" as="geometry" />
        </mxCell>
        <mxCell id="eanAd6g7_c8zHD5ZtpcI-9" style="edgeStyle=orthogonalEdgeStyle;rounded=0;orthogonalLoop=1;jettySize=auto;html=1;exitX=1;exitY=0.5;exitDx=0;exitDy=0;entryX=0;entryY=0.5;entryDx=0;entryDy=0;fontSize=23;" parent="1" source="eanAd6g7_c8zHD5ZtpcI-8" target="DXmxxmxViYwNDwBrxg6c-27" edge="1">
          <mxGeometry relative="1" as="geometry" />
        </mxCell>
        <mxCell id="eanAd6g7_c8zHD5ZtpcI-8" value="TC" style="verticalLabelPosition=bottom;verticalAlign=top;html=1;shape=offPageConnector;rounded=0;size=0.5;spacingTop=-65;fontSize=23;" parent="1" vertex="1">
          <mxGeometry x="850" y="30" width="74" height="80" as="geometry" />
        </mxCell>
        <mxCell id="HHqnDA0zmmWQGcJyzSaW-1" value="TC1" style="verticalLabelPosition=bottom;verticalAlign=top;html=1;shape=offPageConnector;rounded=0;size=0.42857142857142855;spacingTop=-65;fontSize=23;" parent="1" vertex="1">
          <mxGeometry x="168" y="1090" width="64" height="70" as="geometry" />
        </mxCell>
        <mxCell id="HHqnDA0zmmWQGcJyzSaW-2" value="TC2" style="verticalLabelPosition=bottom;verticalAlign=top;html=1;shape=offPageConnector;rounded=0;size=0.42857142857142855;spacingTop=-65;fontSize=23;" parent="1" vertex="1">
          <mxGeometry x="378" y="1090" width="64" height="70" as="geometry" />
        </mxCell>
        <mxCell id="HHqnDA0zmmWQGcJyzSaW-3" value="TC3" style="verticalLabelPosition=bottom;verticalAlign=top;html=1;shape=offPageConnector;rounded=0;size=0.42857142857142855;spacingTop=-65;fontSize=23;" parent="1" vertex="1">
          <mxGeometry x="588" y="1090" width="64" height="70" as="geometry" />
        </mxCell>
        <mxCell id="P_IL1GBbs7yUZOjmRHOS-39" style="edgeStyle=orthogonalEdgeStyle;rounded=0;orthogonalLoop=1;jettySize=auto;html=1;exitX=0.5;exitY=1;exitDx=0;exitDy=0;entryX=0.5;entryY=0;entryDx=0;entryDy=0;fontSize=12;" parent="1" source="P_IL1GBbs7yUZOjmRHOS-1" target="U23kMpA0_39BZsh_tN8W-22" edge="1">
          <mxGeometry relative="1" as="geometry" />
        </mxCell>
        <mxCell id="P_IL1GBbs7yUZOjmRHOS-1" value="TC1" style="verticalLabelPosition=bottom;verticalAlign=top;html=1;shape=offPageConnector;rounded=0;size=0.42857142857142855;spacingTop=-65;fontSize=23;" parent="1" vertex="1">
          <mxGeometry x="136" y="1200" width="64" height="70" as="geometry" />
        </mxCell>
        <mxCell id="P_IL1GBbs7yUZOjmRHOS-40" style="edgeStyle=orthogonalEdgeStyle;rounded=0;orthogonalLoop=1;jettySize=auto;html=1;exitX=0.5;exitY=1;exitDx=0;exitDy=0;entryX=0.5;entryY=0;entryDx=0;entryDy=0;fontSize=12;" parent="1" source="P_IL1GBbs7yUZOjmRHOS-2" target="8fNgH2JuiqXlGOEfrlxy-17" edge="1">
          <mxGeometry relative="1" as="geometry" />
        </mxCell>
        <mxCell id="P_IL1GBbs7yUZOjmRHOS-2" value="TC2" style="verticalLabelPosition=bottom;verticalAlign=top;html=1;shape=offPageConnector;rounded=0;size=0.42857142857142855;spacingTop=-65;fontSize=23;" parent="1" vertex="1">
          <mxGeometry x="346" y="1200" width="64" height="70" as="geometry" />
        </mxCell>
        <mxCell id="P_IL1GBbs7yUZOjmRHOS-41" style="edgeStyle=orthogonalEdgeStyle;rounded=0;orthogonalLoop=1;jettySize=auto;html=1;exitX=0.5;exitY=1;exitDx=0;exitDy=0;entryX=0.5;entryY=0;entryDx=0;entryDy=0;fontSize=12;" parent="1" source="P_IL1GBbs7yUZOjmRHOS-3" target="8fNgH2JuiqXlGOEfrlxy-28" edge="1">
          <mxGeometry relative="1" as="geometry" />
        </mxCell>
        <mxCell id="P_IL1GBbs7yUZOjmRHOS-3" value="TC3" style="verticalLabelPosition=bottom;verticalAlign=top;html=1;shape=offPageConnector;rounded=0;size=0.42857142857142855;spacingTop=-65;fontSize=23;" parent="1" vertex="1">
          <mxGeometry x="556" y="1200" width="64" height="70" as="geometry" />
        </mxCell>
        <mxCell id="P_IL1GBbs7yUZOjmRHOS-17" style="edgeStyle=orthogonalEdgeStyle;rounded=0;orthogonalLoop=1;jettySize=auto;html=1;exitX=0.5;exitY=1;exitDx=0;exitDy=0;entryX=0.5;entryY=0;entryDx=0;entryDy=0;fontSize=12;" parent="1" source="P_IL1GBbs7yUZOjmRHOS-16" target="8fNgH2JuiqXlGOEfrlxy-88" edge="1">
          <mxGeometry relative="1" as="geometry" />
        </mxCell>
        <mxCell id="P_IL1GBbs7yUZOjmRHOS-16" value="&lt;font style=&quot;font-size: 12px;&quot;&gt;break&lt;/font&gt;" style="rounded=0;whiteSpace=wrap;html=1;fontSize=23;spacing=2;spacingTop=-6;" parent="1" vertex="1">
          <mxGeometry x="330" y="1829" width="96" height="50" as="geometry" />
        </mxCell>
        <mxCell id="P_IL1GBbs7yUZOjmRHOS-27" value="TB" style="verticalLabelPosition=bottom;verticalAlign=top;html=1;shape=offPageConnector;rounded=0;size=0.5;spacingTop=-65;fontSize=23;" parent="1" vertex="1">
          <mxGeometry x="963" y="910" width="74" height="80" as="geometry" />
        </mxCell>
        <mxCell id="P_IL1GBbs7yUZOjmRHOS-35" style="edgeStyle=orthogonalEdgeStyle;rounded=0;orthogonalLoop=1;jettySize=auto;html=1;exitX=0;exitY=0.5;exitDx=0;exitDy=0;fontSize=12;" parent="1" source="P_IL1GBbs7yUZOjmRHOS-34" edge="1">
          <mxGeometry relative="1" as="geometry">
            <mxPoint x="588" y="1819" as="targetPoint" />
          </mxGeometry>
        </mxCell>
        <mxCell id="P_IL1GBbs7yUZOjmRHOS-34" value="TB" style="verticalLabelPosition=bottom;verticalAlign=top;html=1;shape=offPageConnector;rounded=0;size=0.5;spacingTop=-65;fontSize=23;" parent="1" vertex="1">
          <mxGeometry x="698" y="1779" width="74" height="80" as="geometry" />
        </mxCell>
        <mxCell id="ZRJdp6JQwGsVY75gzkQ4-1" value="tambahStok 1" style="text;strokeColor=none;fillColor=none;html=1;fontSize=24;fontStyle=1;verticalAlign=middle;align=center;" parent="1" vertex="1">
          <mxGeometry x="685" width="100" height="40" as="geometry" />
        </mxCell>
        <mxCell id="ZRJdp6JQwGsVY75gzkQ4-2" value="tambahStok 2" style="text;strokeColor=none;fillColor=none;html=1;fontSize=24;fontStyle=1;verticalAlign=middle;align=center;" parent="1" vertex="1">
          <mxGeometry x="1520" y="1120" width="100" height="40" as="geometry" />
        </mxCell>
        <mxCell id="ZRJdp6JQwGsVY75gzkQ4-4" value="tambahStok 3" style="text;strokeColor=none;fillColor=none;html=1;fontSize=24;fontStyle=1;verticalAlign=middle;align=center;" parent="1" vertex="1">
          <mxGeometry x="685" y="1169" width="100" height="40" as="geometry" />
        </mxCell>
        <mxCell id="ChkDtkMrrrgFgfbcHSsH-1" value="tambahStok 1" style="text;strokeColor=none;fillColor=none;html=1;fontSize=24;fontStyle=1;verticalAlign=middle;align=center;" parent="1" vertex="1">
          <mxGeometry x="685" width="100" height="40" as="geometry" />
        </mxCell>
        <mxCell id="ChkDtkMrrrgFgfbcHSsH-2" value="tambahStok 3" style="text;strokeColor=none;fillColor=none;html=1;fontSize=24;fontStyle=1;verticalAlign=middle;align=center;" parent="1" vertex="1">
          <mxGeometry x="685" y="1169" width="100" height="40" as="geometry" />
        </mxCell>
        <mxCell id="vBdIXI0lIVsBQASLH6ny-1" value="&lt;span style=&quot;font-size: 12px;&quot;&gt;output&lt;/span&gt;&lt;br style=&quot;border-color: var(--border-color); font-size: 12px;&quot;&gt;&lt;span style=&quot;font-size: 12px;&quot;&gt;[ + (i+1) + ]&lt;/span&gt;&lt;br style=&quot;border-color: var(--border-color); font-size: 12px;&quot;&gt;&lt;span style=&quot;font-size: 12px;&quot;&gt;namaBahan[i]&lt;/span&gt;" style="shape=parallelogram;perimeter=parallelogramPerimeter;whiteSpace=wrap;html=1;fixedSize=1;fontSize=11;" parent="1" vertex="1">
          <mxGeometry x="350" y="395" width="140" height="60" as="geometry" />
        </mxCell>
        <mxCell id="vBdIXI0lIVsBQASLH6ny-2" value="&lt;font style=&quot;font-size: 11px;&quot;&gt;output&lt;br style=&quot;border-color: var(--border-color);&quot;&gt;[ + (namaBahan.length+1) + ]&amp;nbsp;&lt;br style=&quot;border-color: var(--border-color);&quot;&gt;Kembali ke Menu Utama&lt;/font&gt;" style="shape=parallelogram;perimeter=parallelogramPerimeter;whiteSpace=wrap;html=1;fixedSize=1;fontSize=11;" parent="1" vertex="1">
          <mxGeometry x="110" y="521" width="180" height="60" as="geometry" />
        </mxCell>
        <mxCell id="3YO24zm7dw9bH-VzxK7t-1" value="&lt;font style=&quot;font-size: 11px;&quot;&gt;output &lt;br&gt;&quot;Berhasil kembali ke menu utama!&quot;&lt;/font&gt;" style="shape=parallelogram;perimeter=parallelogramPerimeter;whiteSpace=wrap;html=1;fixedSize=1;fontSize=11;" parent="1" vertex="1">
          <mxGeometry x="1340" y="381" width="160" height="60" as="geometry" />
        </mxCell>
        <mxCell id="3YO24zm7dw9bH-VzxK7t-2" value="&lt;span style=&quot;font-size: 12px;&quot;&gt;output&lt;br&gt;&quot;Menu yang Anda masukkan salah!&lt;/span&gt;" style="shape=parallelogram;perimeter=parallelogramPerimeter;whiteSpace=wrap;html=1;fixedSize=1;fontSize=11;" parent="1" vertex="1">
          <mxGeometry x="1510" y="40" width="140" height="60" as="geometry" />
        </mxCell>
        <mxCell id="3YO24zm7dw9bH-VzxK7t-5" style="edgeStyle=orthogonalEdgeStyle;rounded=0;orthogonalLoop=1;jettySize=auto;html=1;exitX=0.5;exitY=1;exitDx=0;exitDy=0;entryX=0.5;entryY=0;entryDx=0;entryDy=0;fontSize=11;" parent="1" source="3YO24zm7dw9bH-VzxK7t-3" target="U23kMpA0_39BZsh_tN8W-27" edge="1">
          <mxGeometry relative="1" as="geometry" />
        </mxCell>
        <mxCell id="3YO24zm7dw9bH-VzxK7t-3" value="output&lt;br&gt;&quot;Data berhasil diupdate!&quot;" style="shape=parallelogram;perimeter=parallelogramPerimeter;whiteSpace=wrap;html=1;fixedSize=1;" parent="1" vertex="1">
          <mxGeometry x="108" y="1620" width="120" height="60" as="geometry" />
        </mxCell>
        <mxCell id="3YO24zm7dw9bH-VzxK7t-6" value="" style="edgeStyle=orthogonalEdgeStyle;rounded=0;orthogonalLoop=1;jettySize=auto;html=1;fontSize=11;exitX=0.5;exitY=1;exitDx=0;exitDy=0;entryX=0.5;entryY=0;entryDx=0;entryDy=0;" parent="1" source="8fNgH2JuiqXlGOEfrlxy-21" target="3YO24zm7dw9bH-VzxK7t-7" edge="1">
          <mxGeometry relative="1" as="geometry">
            <mxPoint x="377.9999999999998" y="1587" as="sourcePoint" />
          </mxGeometry>
        </mxCell>
        <mxCell id="3YO24zm7dw9bH-VzxK7t-12" value="" style="edgeStyle=orthogonalEdgeStyle;rounded=0;orthogonalLoop=1;jettySize=auto;html=1;fontSize=11;" parent="1" source="3YO24zm7dw9bH-VzxK7t-7" target="8fNgH2JuiqXlGOEfrlxy-22" edge="1">
          <mxGeometry relative="1" as="geometry" />
        </mxCell>
        <mxCell id="3YO24zm7dw9bH-VzxK7t-7" value="output&lt;br&gt;&quot;Data berhasil diupdate!&quot;" style="shape=parallelogram;perimeter=parallelogramPerimeter;whiteSpace=wrap;html=1;fixedSize=1;" parent="1" vertex="1">
          <mxGeometry x="318" y="1620" width="120" height="60" as="geometry" />
        </mxCell>
        <mxCell id="3YO24zm7dw9bH-VzxK7t-8" style="edgeStyle=orthogonalEdgeStyle;rounded=0;orthogonalLoop=1;jettySize=auto;html=1;exitX=0.5;exitY=1;exitDx=0;exitDy=0;entryX=0.5;entryY=0;entryDx=0;entryDy=0;fontSize=11;" parent="1" source="3YO24zm7dw9bH-VzxK7t-7" target="8fNgH2JuiqXlGOEfrlxy-22" edge="1">
          <mxGeometry relative="1" as="geometry">
            <mxPoint x="377.9999999999998" y="1710" as="targetPoint" />
          </mxGeometry>
        </mxCell>
        <mxCell id="3YO24zm7dw9bH-VzxK7t-9" value="" style="edgeStyle=orthogonalEdgeStyle;rounded=0;orthogonalLoop=1;jettySize=auto;html=1;fontSize=11;exitX=0.5;exitY=1;exitDx=0;exitDy=0;entryX=0.5;entryY=0;entryDx=0;entryDy=0;" parent="1" source="8fNgH2JuiqXlGOEfrlxy-32" target="3YO24zm7dw9bH-VzxK7t-10" edge="1">
          <mxGeometry relative="1" as="geometry">
            <mxPoint x="587.9999999999998" y="1587" as="sourcePoint" />
          </mxGeometry>
        </mxCell>
        <mxCell id="3YO24zm7dw9bH-VzxK7t-10" value="output&lt;br&gt;&quot;Data berhasil diupdate!&quot;" style="shape=parallelogram;perimeter=parallelogramPerimeter;whiteSpace=wrap;html=1;fixedSize=1;" parent="1" vertex="1">
          <mxGeometry x="528" y="1620" width="120" height="60" as="geometry" />
        </mxCell>
        <mxCell id="3YO24zm7dw9bH-VzxK7t-11" style="edgeStyle=orthogonalEdgeStyle;rounded=0;orthogonalLoop=1;jettySize=auto;html=1;exitX=0.5;exitY=1;exitDx=0;exitDy=0;entryX=0.5;entryY=0;entryDx=0;entryDy=0;fontSize=11;" parent="1" source="3YO24zm7dw9bH-VzxK7t-10" target="8fNgH2JuiqXlGOEfrlxy-33" edge="1">
          <mxGeometry relative="1" as="geometry">
            <mxPoint x="587.9999999999998" y="1710" as="targetPoint" />
          </mxGeometry>
        </mxCell>
        <mxCell id="3YO24zm7dw9bH-VzxK7t-13" value="" style="edgeStyle=orthogonalEdgeStyle;rounded=0;orthogonalLoop=1;jettySize=auto;html=1;fontSize=11;exitX=0.5;exitY=1;exitDx=0;exitDy=0;entryX=0.5;entryY=0;entryDx=0;entryDy=0;" parent="1" source="8fNgH2JuiqXlGOEfrlxy-45" target="3YO24zm7dw9bH-VzxK7t-14" edge="1">
          <mxGeometry relative="1" as="geometry">
            <mxPoint x="1000" y="584" as="sourcePoint" />
          </mxGeometry>
        </mxCell>
        <mxCell id="3YO24zm7dw9bH-VzxK7t-19" style="edgeStyle=orthogonalEdgeStyle;rounded=0;orthogonalLoop=1;jettySize=auto;html=1;exitX=0.5;exitY=1;exitDx=0;exitDy=0;entryX=0.5;entryY=0;entryDx=0;entryDy=0;fontSize=11;" parent="1" source="3YO24zm7dw9bH-VzxK7t-14" target="8fNgH2JuiqXlGOEfrlxy-46" edge="1">
          <mxGeometry relative="1" as="geometry" />
        </mxCell>
        <mxCell id="3YO24zm7dw9bH-VzxK7t-14" value="output&lt;br&gt;&quot;Data berhasil diupdate!&quot;" style="shape=parallelogram;perimeter=parallelogramPerimeter;whiteSpace=wrap;html=1;fixedSize=1;" parent="1" vertex="1">
          <mxGeometry x="940" y="617" width="120" height="60" as="geometry" />
        </mxCell>
        <mxCell id="3YO24zm7dw9bH-VzxK7t-20" style="edgeStyle=orthogonalEdgeStyle;rounded=0;orthogonalLoop=1;jettySize=auto;html=1;exitX=0.5;exitY=1;exitDx=0;exitDy=0;entryX=0.5;entryY=0;entryDx=0;entryDy=0;fontSize=11;" parent="1" source="3YO24zm7dw9bH-VzxK7t-17" target="8fNgH2JuiqXlGOEfrlxy-58" edge="1">
          <mxGeometry relative="1" as="geometry" />
        </mxCell>
        <mxCell id="3YO24zm7dw9bH-VzxK7t-17" value="output&lt;br&gt;&quot;Data berhasil diupdate!&quot;" style="shape=parallelogram;perimeter=parallelogramPerimeter;whiteSpace=wrap;html=1;fixedSize=1;" parent="1" vertex="1">
          <mxGeometry x="1150" y="614" width="120" height="60" as="geometry" />
        </mxCell>
      </root>
    </mxGraphModel>
  </diagram>
  <diagram name="ambilStok" id="Jf4brIpHKlSaC2DNWhx5">
    <mxGraphModel dx="1500" dy="773" grid="1" gridSize="10" guides="1" tooltips="1" connect="1" arrows="1" fold="1" page="1" pageScale="1" pageWidth="827" pageHeight="1169" math="0" shadow="0">
      <root>
        <mxCell id="dPXZvLzGdgedvcL7h2E--0" />
        <mxCell id="dPXZvLzGdgedvcL7h2E--1" parent="dPXZvLzGdgedvcL7h2E--0" />
        <mxCell id="dPXZvLzGdgedvcL7h2E--2" value="" style="edgeStyle=orthogonalEdgeStyle;rounded=0;orthogonalLoop=1;jettySize=auto;html=1;" parent="dPXZvLzGdgedvcL7h2E--1" source="dPXZvLzGdgedvcL7h2E--3" target="dPXZvLzGdgedvcL7h2E--5" edge="1">
          <mxGeometry relative="1" as="geometry" />
        </mxCell>
        <mxCell id="dPXZvLzGdgedvcL7h2E--3" value="ambilStok()" style="ellipse;whiteSpace=wrap;html=1;" parent="dPXZvLzGdgedvcL7h2E--1" vertex="1">
          <mxGeometry x="140" y="30" width="120" height="80" as="geometry" />
        </mxCell>
        <mxCell id="dPXZvLzGdgedvcL7h2E--4" value="" style="edgeStyle=orthogonalEdgeStyle;rounded=0;orthogonalLoop=1;jettySize=auto;html=1;" parent="dPXZvLzGdgedvcL7h2E--1" source="dPXZvLzGdgedvcL7h2E--5" target="dPXZvLzGdgedvcL7h2E--7" edge="1">
          <mxGeometry relative="1" as="geometry" />
        </mxCell>
        <mxCell id="dPXZvLzGdgedvcL7h2E--5" value="int kurangiBahan;" style="shape=hexagon;perimeter=hexagonPerimeter2;whiteSpace=wrap;html=1;fixedSize=1;" parent="dPXZvLzGdgedvcL7h2E--1" vertex="1">
          <mxGeometry x="135" y="140" width="130" height="60" as="geometry" />
        </mxCell>
        <mxCell id="dPXZvLzGdgedvcL7h2E--6" value="" style="edgeStyle=orthogonalEdgeStyle;rounded=0;orthogonalLoop=1;jettySize=auto;html=1;" parent="dPXZvLzGdgedvcL7h2E--1" source="dPXZvLzGdgedvcL7h2E--7" target="dPXZvLzGdgedvcL7h2E--10" edge="1">
          <mxGeometry relative="1" as="geometry" />
        </mxCell>
        <mxCell id="dPXZvLzGdgedvcL7h2E--7" value="int i = 0" style="whiteSpace=wrap;html=1;" parent="dPXZvLzGdgedvcL7h2E--1" vertex="1">
          <mxGeometry x="140" y="240" width="120" height="60" as="geometry" />
        </mxCell>
        <mxCell id="dPXZvLzGdgedvcL7h2E--8" value="" style="edgeStyle=orthogonalEdgeStyle;rounded=0;orthogonalLoop=1;jettySize=auto;html=1;" parent="dPXZvLzGdgedvcL7h2E--1" source="dPXZvLzGdgedvcL7h2E--10" target="fqB-fndf4x2Bh03UJAQJ-0" edge="1">
          <mxGeometry relative="1" as="geometry">
            <mxPoint x="360" y="425" as="targetPoint" />
          </mxGeometry>
        </mxCell>
        <mxCell id="dPXZvLzGdgedvcL7h2E--9" value="" style="edgeStyle=orthogonalEdgeStyle;rounded=0;orthogonalLoop=1;jettySize=auto;html=1;" parent="dPXZvLzGdgedvcL7h2E--1" source="dPXZvLzGdgedvcL7h2E--10" target="fqB-fndf4x2Bh03UJAQJ-2" edge="1">
          <mxGeometry relative="1" as="geometry">
            <mxPoint x="200.0588235294117" y="510" as="targetPoint" />
          </mxGeometry>
        </mxCell>
        <mxCell id="dPXZvLzGdgedvcL7h2E--10" value="i &amp;lt; namaBahan.length" style="rhombus;whiteSpace=wrap;html=1;" parent="dPXZvLzGdgedvcL7h2E--1" vertex="1">
          <mxGeometry x="145" y="370" width="110" height="110" as="geometry" />
        </mxCell>
        <mxCell id="dPXZvLzGdgedvcL7h2E--11" value="" style="edgeStyle=orthogonalEdgeStyle;rounded=0;orthogonalLoop=1;jettySize=auto;html=1;exitX=0.543;exitY=0.013;exitDx=0;exitDy=0;exitPerimeter=0;" parent="dPXZvLzGdgedvcL7h2E--1" source="fqB-fndf4x2Bh03UJAQJ-0" target="dPXZvLzGdgedvcL7h2E--16" edge="1">
          <mxGeometry relative="1" as="geometry">
            <mxPoint x="420" y="390" as="sourcePoint" />
          </mxGeometry>
        </mxCell>
        <mxCell id="dPXZvLzGdgedvcL7h2E--13" value="" style="edgeStyle=orthogonalEdgeStyle;rounded=0;orthogonalLoop=1;jettySize=auto;html=1;exitX=0.5;exitY=1;exitDx=0;exitDy=0;" parent="dPXZvLzGdgedvcL7h2E--1" source="fqB-fndf4x2Bh03UJAQJ-2" target="dPXZvLzGdgedvcL7h2E--18" edge="1">
          <mxGeometry relative="1" as="geometry">
            <mxPoint x="200.0588235294117" y="580" as="sourcePoint" />
          </mxGeometry>
        </mxCell>
        <mxCell id="dPXZvLzGdgedvcL7h2E--15" style="edgeStyle=orthogonalEdgeStyle;rounded=0;orthogonalLoop=1;jettySize=auto;html=1;" parent="dPXZvLzGdgedvcL7h2E--1" source="dPXZvLzGdgedvcL7h2E--16" edge="1">
          <mxGeometry relative="1" as="geometry">
            <mxPoint x="200" y="335" as="targetPoint" />
          </mxGeometry>
        </mxCell>
        <mxCell id="dPXZvLzGdgedvcL7h2E--16" value="i++" style="whiteSpace=wrap;html=1;" parent="dPXZvLzGdgedvcL7h2E--1" vertex="1">
          <mxGeometry x="370" y="310" width="100" height="50" as="geometry" />
        </mxCell>
        <mxCell id="dPXZvLzGdgedvcL7h2E--17" value="" style="edgeStyle=orthogonalEdgeStyle;rounded=0;orthogonalLoop=1;jettySize=auto;html=1;" parent="dPXZvLzGdgedvcL7h2E--1" source="dPXZvLzGdgedvcL7h2E--18" target="dPXZvLzGdgedvcL7h2E--22" edge="1">
          <mxGeometry relative="1" as="geometry" />
        </mxCell>
        <mxCell id="dPXZvLzGdgedvcL7h2E--18" value="input kurangiBahan" style="shape=parallelogram;perimeter=parallelogramPerimeter;whiteSpace=wrap;html=1;fixedSize=1;" parent="dPXZvLzGdgedvcL7h2E--1" vertex="1">
          <mxGeometry x="130" y="610" width="140" height="60" as="geometry" />
        </mxCell>
        <mxCell id="dPXZvLzGdgedvcL7h2E--19" value="" style="shape=curlyBracket;whiteSpace=wrap;html=1;rounded=1;labelPosition=left;verticalLabelPosition=middle;align=right;verticalAlign=middle;" parent="dPXZvLzGdgedvcL7h2E--1" vertex="1">
          <mxGeometry x="80" y="270" width="20" height="280" as="geometry" />
        </mxCell>
        <mxCell id="dPXZvLzGdgedvcL7h2E--20" value="Perulangan untuk menampilkan List Menu Bahan" style="text;html=1;strokeColor=none;fillColor=none;align=center;verticalAlign=middle;whiteSpace=wrap;rounded=0;" parent="dPXZvLzGdgedvcL7h2E--1" vertex="1">
          <mxGeometry y="380" width="80" height="60" as="geometry" />
        </mxCell>
        <mxCell id="dPXZvLzGdgedvcL7h2E--21" value="" style="edgeStyle=orthogonalEdgeStyle;rounded=0;orthogonalLoop=1;jettySize=auto;html=1;" parent="dPXZvLzGdgedvcL7h2E--1" target="dPXZvLzGdgedvcL7h2E--25" edge="1">
          <mxGeometry relative="1" as="geometry">
            <mxPoint x="200" y="740" as="sourcePoint" />
          </mxGeometry>
        </mxCell>
        <mxCell id="dPXZvLzGdgedvcL7h2E--22" value="switch(kurangiBahan)" style="whiteSpace=wrap;html=1;" parent="dPXZvLzGdgedvcL7h2E--1" vertex="1">
          <mxGeometry x="130" y="700" width="140" height="60" as="geometry" />
        </mxCell>
        <mxCell id="dPXZvLzGdgedvcL7h2E--23" value="" style="edgeStyle=orthogonalEdgeStyle;rounded=0;orthogonalLoop=1;jettySize=auto;html=1;" parent="dPXZvLzGdgedvcL7h2E--1" source="dPXZvLzGdgedvcL7h2E--25" target="dPXZvLzGdgedvcL7h2E--28" edge="1">
          <mxGeometry relative="1" as="geometry" />
        </mxCell>
        <mxCell id="dPXZvLzGdgedvcL7h2E--24" value="" style="edgeStyle=orthogonalEdgeStyle;rounded=0;orthogonalLoop=1;jettySize=auto;html=1;" parent="dPXZvLzGdgedvcL7h2E--1" source="dPXZvLzGdgedvcL7h2E--25" target="dPXZvLzGdgedvcL7h2E--45" edge="1">
          <mxGeometry relative="1" as="geometry" />
        </mxCell>
        <mxCell id="dPXZvLzGdgedvcL7h2E--25" value="case 1" style="rhombus;whiteSpace=wrap;html=1;" parent="dPXZvLzGdgedvcL7h2E--1" vertex="1">
          <mxGeometry x="160" y="790" width="80" height="80" as="geometry" />
        </mxCell>
        <mxCell id="dPXZvLzGdgedvcL7h2E--26" value="" style="edgeStyle=orthogonalEdgeStyle;rounded=0;orthogonalLoop=1;jettySize=auto;html=1;" parent="dPXZvLzGdgedvcL7h2E--1" source="dPXZvLzGdgedvcL7h2E--28" target="dPXZvLzGdgedvcL7h2E--30" edge="1">
          <mxGeometry relative="1" as="geometry" />
        </mxCell>
        <mxCell id="dPXZvLzGdgedvcL7h2E--27" style="edgeStyle=orthogonalEdgeStyle;rounded=0;orthogonalLoop=1;jettySize=auto;html=1;exitX=0.5;exitY=1;exitDx=0;exitDy=0;entryX=0.5;entryY=0;entryDx=0;entryDy=0;" parent="dPXZvLzGdgedvcL7h2E--1" source="dPXZvLzGdgedvcL7h2E--28" target="dPXZvLzGdgedvcL7h2E--57" edge="1">
          <mxGeometry relative="1" as="geometry" />
        </mxCell>
        <mxCell id="dPXZvLzGdgedvcL7h2E--28" value="case 2" style="rhombus;whiteSpace=wrap;html=1;" parent="dPXZvLzGdgedvcL7h2E--1" vertex="1">
          <mxGeometry x="370" y="790" width="80" height="80" as="geometry" />
        </mxCell>
        <mxCell id="dPXZvLzGdgedvcL7h2E--29" style="edgeStyle=orthogonalEdgeStyle;rounded=0;orthogonalLoop=1;jettySize=auto;html=1;exitX=0.5;exitY=1;exitDx=0;exitDy=0;entryX=0.5;entryY=0;entryDx=0;entryDy=0;" parent="dPXZvLzGdgedvcL7h2E--1" source="dPXZvLzGdgedvcL7h2E--30" target="dPXZvLzGdgedvcL7h2E--69" edge="1">
          <mxGeometry relative="1" as="geometry" />
        </mxCell>
        <mxCell id="dPXZvLzGdgedvcL7h2E--30" value="case 3" style="rhombus;whiteSpace=wrap;html=1;" parent="dPXZvLzGdgedvcL7h2E--1" vertex="1">
          <mxGeometry x="580" y="790" width="80" height="80" as="geometry" />
        </mxCell>
        <mxCell id="dPXZvLzGdgedvcL7h2E--31" value="" style="edgeStyle=orthogonalEdgeStyle;rounded=0;orthogonalLoop=1;jettySize=auto;html=1;" parent="dPXZvLzGdgedvcL7h2E--1" source="dPXZvLzGdgedvcL7h2E--33" target="dPXZvLzGdgedvcL7h2E--36" edge="1">
          <mxGeometry relative="1" as="geometry" />
        </mxCell>
        <mxCell id="dPXZvLzGdgedvcL7h2E--32" style="edgeStyle=orthogonalEdgeStyle;rounded=0;orthogonalLoop=1;jettySize=auto;html=1;exitX=0.5;exitY=1;exitDx=0;exitDy=0;entryX=0.5;entryY=0;entryDx=0;entryDy=0;" parent="dPXZvLzGdgedvcL7h2E--1" source="dPXZvLzGdgedvcL7h2E--33" target="dPXZvLzGdgedvcL7h2E--81" edge="1">
          <mxGeometry relative="1" as="geometry" />
        </mxCell>
        <mxCell id="dPXZvLzGdgedvcL7h2E--33" value="case 4" style="rhombus;whiteSpace=wrap;html=1;" parent="dPXZvLzGdgedvcL7h2E--1" vertex="1">
          <mxGeometry x="960" y="30" width="80" height="80" as="geometry" />
        </mxCell>
        <mxCell id="dPXZvLzGdgedvcL7h2E--34" value="" style="edgeStyle=orthogonalEdgeStyle;rounded=0;orthogonalLoop=1;jettySize=auto;html=1;" parent="dPXZvLzGdgedvcL7h2E--1" source="dPXZvLzGdgedvcL7h2E--36" target="dPXZvLzGdgedvcL7h2E--39" edge="1">
          <mxGeometry relative="1" as="geometry" />
        </mxCell>
        <mxCell id="dPXZvLzGdgedvcL7h2E--35" style="edgeStyle=orthogonalEdgeStyle;rounded=0;orthogonalLoop=1;jettySize=auto;html=1;exitX=0.5;exitY=1;exitDx=0;exitDy=0;entryX=0.5;entryY=0;entryDx=0;entryDy=0;" parent="dPXZvLzGdgedvcL7h2E--1" source="dPXZvLzGdgedvcL7h2E--36" target="dPXZvLzGdgedvcL7h2E--92" edge="1">
          <mxGeometry relative="1" as="geometry" />
        </mxCell>
        <mxCell id="dPXZvLzGdgedvcL7h2E--36" value="case 5" style="rhombus;whiteSpace=wrap;html=1;" parent="dPXZvLzGdgedvcL7h2E--1" vertex="1">
          <mxGeometry x="1170" y="30" width="80" height="80" as="geometry" />
        </mxCell>
        <mxCell id="dPXZvLzGdgedvcL7h2E--37" value="" style="edgeStyle=orthogonalEdgeStyle;rounded=0;orthogonalLoop=1;jettySize=auto;html=1;" parent="dPXZvLzGdgedvcL7h2E--1" source="dPXZvLzGdgedvcL7h2E--39" target="fqB-fndf4x2Bh03UJAQJ-4" edge="1">
          <mxGeometry relative="1" as="geometry">
            <mxPoint x="1520" y="70.00000000000006" as="targetPoint" />
          </mxGeometry>
        </mxCell>
        <mxCell id="dPXZvLzGdgedvcL7h2E--38" style="edgeStyle=orthogonalEdgeStyle;rounded=0;orthogonalLoop=1;jettySize=auto;html=1;exitX=0.5;exitY=1;exitDx=0;exitDy=0;entryX=0.5;entryY=0;entryDx=0;entryDy=0;fontSize=12;" parent="dPXZvLzGdgedvcL7h2E--1" source="dPXZvLzGdgedvcL7h2E--39" target="fqB-fndf4x2Bh03UJAQJ-3" edge="1">
          <mxGeometry relative="1" as="geometry">
            <mxPoint x="1420" y="381" as="targetPoint" />
          </mxGeometry>
        </mxCell>
        <mxCell id="dPXZvLzGdgedvcL7h2E--39" value="case 6" style="rhombus;whiteSpace=wrap;html=1;" parent="dPXZvLzGdgedvcL7h2E--1" vertex="1">
          <mxGeometry x="1380" y="30" width="80" height="80" as="geometry" />
        </mxCell>
        <mxCell id="dPXZvLzGdgedvcL7h2E--40" style="edgeStyle=orthogonalEdgeStyle;rounded=0;orthogonalLoop=1;jettySize=auto;html=1;exitX=0.5;exitY=1;exitDx=0;exitDy=0;entryX=0.5;entryY=0;entryDx=0;entryDy=0;fontSize=12;" parent="dPXZvLzGdgedvcL7h2E--1" source="fqB-fndf4x2Bh03UJAQJ-4" target="dPXZvLzGdgedvcL7h2E--43" edge="1">
          <mxGeometry relative="1" as="geometry">
            <mxPoint x="1580" y="100.00000000000006" as="sourcePoint" />
          </mxGeometry>
        </mxCell>
        <mxCell id="dPXZvLzGdgedvcL7h2E--42" style="edgeStyle=orthogonalEdgeStyle;rounded=0;orthogonalLoop=1;jettySize=auto;html=1;exitX=0.5;exitY=1;exitDx=0;exitDy=0;fontSize=12;" parent="dPXZvLzGdgedvcL7h2E--1" source="dPXZvLzGdgedvcL7h2E--43" edge="1">
          <mxGeometry relative="1" as="geometry">
            <mxPoint x="1420" y="730" as="targetPoint" />
            <Array as="points">
              <mxPoint x="1580" y="730" />
              <mxPoint x="1420" y="730" />
            </Array>
          </mxGeometry>
        </mxCell>
        <mxCell id="dPXZvLzGdgedvcL7h2E--43" value="ambilStok()" style="shape=process;whiteSpace=wrap;html=1;backgroundOutline=1;" parent="dPXZvLzGdgedvcL7h2E--1" vertex="1">
          <mxGeometry x="1520" y="381" width="120" height="60" as="geometry" />
        </mxCell>
        <mxCell id="dPXZvLzGdgedvcL7h2E--44" value="" style="edgeStyle=orthogonalEdgeStyle;rounded=0;orthogonalLoop=1;jettySize=auto;html=1;" parent="dPXZvLzGdgedvcL7h2E--1" source="dPXZvLzGdgedvcL7h2E--45" target="dPXZvLzGdgedvcL7h2E--47" edge="1">
          <mxGeometry relative="1" as="geometry" />
        </mxCell>
        <mxCell id="dPXZvLzGdgedvcL7h2E--45" value="input&lt;br&gt;data bahan baik" style="shape=parallelogram;perimeter=parallelogramPerimeter;whiteSpace=wrap;html=1;fixedSize=1;" parent="dPXZvLzGdgedvcL7h2E--1" vertex="1">
          <mxGeometry x="140" y="900" width="120" height="60" as="geometry" />
        </mxCell>
        <mxCell id="dPXZvLzGdgedvcL7h2E--46" style="edgeStyle=orthogonalEdgeStyle;rounded=0;orthogonalLoop=1;jettySize=auto;html=1;exitX=0.5;exitY=1;exitDx=0;exitDy=0;entryX=0.5;entryY=0;entryDx=0;entryDy=0;fontSize=12;" parent="dPXZvLzGdgedvcL7h2E--1" source="dPXZvLzGdgedvcL7h2E--47" target="dPXZvLzGdgedvcL7h2E--128" edge="1">
          <mxGeometry relative="1" as="geometry" />
        </mxCell>
        <mxCell id="dPXZvLzGdgedvcL7h2E--47" value="tabelBahan[kurangiBahan-1][0]&lt;br style=&quot;border-color: var(--border-color);&quot;&gt;-= sc.nextInt();" style="whiteSpace=wrap;html=1;" parent="dPXZvLzGdgedvcL7h2E--1" vertex="1">
          <mxGeometry x="110" y="990" width="180" height="60" as="geometry" />
        </mxCell>
        <mxCell id="dPXZvLzGdgedvcL7h2E--48" value="" style="edgeStyle=orthogonalEdgeStyle;rounded=0;orthogonalLoop=1;jettySize=auto;html=1;" parent="dPXZvLzGdgedvcL7h2E--1" target="dPXZvLzGdgedvcL7h2E--51" edge="1">
          <mxGeometry relative="1" as="geometry">
            <mxPoint x="158" y="1377.0000000000002" as="sourcePoint" />
          </mxGeometry>
        </mxCell>
        <mxCell id="dPXZvLzGdgedvcL7h2E--49" value="input&lt;br&gt;data bahan busuk" style="shape=parallelogram;perimeter=parallelogramPerimeter;whiteSpace=wrap;html=1;fixedSize=1;" parent="dPXZvLzGdgedvcL7h2E--1" vertex="1">
          <mxGeometry x="93" y="1316" width="130" height="60" as="geometry" />
        </mxCell>
        <mxCell id="dPXZvLzGdgedvcL7h2E--50" value="" style="edgeStyle=orthogonalEdgeStyle;rounded=0;orthogonalLoop=1;jettySize=auto;html=1;" parent="dPXZvLzGdgedvcL7h2E--1" source="dPXZvLzGdgedvcL7h2E--51" target="dPXZvLzGdgedvcL7h2E--53" edge="1">
          <mxGeometry relative="1" as="geometry" />
        </mxCell>
        <mxCell id="dPXZvLzGdgedvcL7h2E--51" value="tabelBahan[kurangiBahan-1][1]&lt;br style=&quot;border-color: var(--border-color);&quot;&gt;-= sc.nextInt();" style="whiteSpace=wrap;html=1;" parent="dPXZvLzGdgedvcL7h2E--1" vertex="1">
          <mxGeometry x="68" y="1407" width="180" height="60" as="geometry" />
        </mxCell>
        <mxCell id="dPXZvLzGdgedvcL7h2E--53" value="tabelBahan[kurangiBahan-1][2]&lt;br style=&quot;border-color: var(--border-color);&quot;&gt;= tabelBahan[kurangiBahan-1][0]&lt;br style=&quot;border-color: var(--border-color);&quot;&gt;+ tabelBahan[kurangiBahan-1][1];" style="whiteSpace=wrap;html=1;" parent="dPXZvLzGdgedvcL7h2E--1" vertex="1">
          <mxGeometry x="58" y="1497" width="200" height="90" as="geometry" />
        </mxCell>
        <mxCell id="dPXZvLzGdgedvcL7h2E--54" style="edgeStyle=orthogonalEdgeStyle;rounded=0;orthogonalLoop=1;jettySize=auto;html=1;exitX=0.5;exitY=1;exitDx=0;exitDy=0;entryX=0;entryY=0.5;entryDx=0;entryDy=0;fontSize=12;" parent="dPXZvLzGdgedvcL7h2E--1" source="dPXZvLzGdgedvcL7h2E--55" target="dPXZvLzGdgedvcL7h2E--138" edge="1">
          <mxGeometry relative="1" as="geometry" />
        </mxCell>
        <mxCell id="dPXZvLzGdgedvcL7h2E--55" value="ambilStok()" style="shape=process;whiteSpace=wrap;html=1;backgroundOutline=1;" parent="dPXZvLzGdgedvcL7h2E--1" vertex="1">
          <mxGeometry x="98" y="1710" width="120" height="60" as="geometry" />
        </mxCell>
        <mxCell id="dPXZvLzGdgedvcL7h2E--56" value="" style="edgeStyle=orthogonalEdgeStyle;rounded=0;orthogonalLoop=1;jettySize=auto;html=1;" parent="dPXZvLzGdgedvcL7h2E--1" source="dPXZvLzGdgedvcL7h2E--57" target="dPXZvLzGdgedvcL7h2E--59" edge="1">
          <mxGeometry relative="1" as="geometry" />
        </mxCell>
        <mxCell id="dPXZvLzGdgedvcL7h2E--57" value="input&lt;br&gt;data bahan baik" style="shape=parallelogram;perimeter=parallelogramPerimeter;whiteSpace=wrap;html=1;fixedSize=1;" parent="dPXZvLzGdgedvcL7h2E--1" vertex="1">
          <mxGeometry x="350" y="900" width="120" height="60" as="geometry" />
        </mxCell>
        <mxCell id="dPXZvLzGdgedvcL7h2E--58" style="edgeStyle=orthogonalEdgeStyle;rounded=0;orthogonalLoop=1;jettySize=auto;html=1;exitX=0.5;exitY=1;exitDx=0;exitDy=0;entryX=0.5;entryY=0;entryDx=0;entryDy=0;fontSize=12;" parent="dPXZvLzGdgedvcL7h2E--1" source="dPXZvLzGdgedvcL7h2E--59" target="dPXZvLzGdgedvcL7h2E--129" edge="1">
          <mxGeometry relative="1" as="geometry" />
        </mxCell>
        <mxCell id="dPXZvLzGdgedvcL7h2E--59" value="tabelBahan[kurangiBahan-1][0]&lt;br style=&quot;border-color: var(--border-color);&quot;&gt;-= sc.nextInt();" style="whiteSpace=wrap;html=1;" parent="dPXZvLzGdgedvcL7h2E--1" vertex="1">
          <mxGeometry x="320" y="990" width="180" height="60" as="geometry" />
        </mxCell>
        <mxCell id="dPXZvLzGdgedvcL7h2E--60" value="" style="edgeStyle=orthogonalEdgeStyle;rounded=0;orthogonalLoop=1;jettySize=auto;html=1;" parent="dPXZvLzGdgedvcL7h2E--1" target="dPXZvLzGdgedvcL7h2E--63" edge="1">
          <mxGeometry relative="1" as="geometry">
            <mxPoint x="368" y="1377.0000000000002" as="sourcePoint" />
          </mxGeometry>
        </mxCell>
        <mxCell id="dPXZvLzGdgedvcL7h2E--61" value="input&lt;br&gt;data bahan busuk" style="shape=parallelogram;perimeter=parallelogramPerimeter;whiteSpace=wrap;html=1;fixedSize=1;" parent="dPXZvLzGdgedvcL7h2E--1" vertex="1">
          <mxGeometry x="303" y="1316" width="130" height="60" as="geometry" />
        </mxCell>
        <mxCell id="dPXZvLzGdgedvcL7h2E--62" value="" style="edgeStyle=orthogonalEdgeStyle;rounded=0;orthogonalLoop=1;jettySize=auto;html=1;" parent="dPXZvLzGdgedvcL7h2E--1" source="dPXZvLzGdgedvcL7h2E--63" target="dPXZvLzGdgedvcL7h2E--65" edge="1">
          <mxGeometry relative="1" as="geometry" />
        </mxCell>
        <mxCell id="dPXZvLzGdgedvcL7h2E--63" value="tabelBahan[kurangiBahan-1][1]&lt;br style=&quot;border-color: var(--border-color);&quot;&gt;-= sc.nextInt();" style="whiteSpace=wrap;html=1;" parent="dPXZvLzGdgedvcL7h2E--1" vertex="1">
          <mxGeometry x="278" y="1407" width="180" height="60" as="geometry" />
        </mxCell>
        <mxCell id="dPXZvLzGdgedvcL7h2E--65" value="tabelBahan[kurangiBahan-1][2]&lt;br style=&quot;border-color: var(--border-color);&quot;&gt;= tabelBahan[kurangiBahan-1][0]&lt;br style=&quot;border-color: var(--border-color);&quot;&gt;+ tabelBahan[kurangiBahan-1][1];" style="whiteSpace=wrap;html=1;" parent="dPXZvLzGdgedvcL7h2E--1" vertex="1">
          <mxGeometry x="268" y="1497" width="200" height="90" as="geometry" />
        </mxCell>
        <mxCell id="dPXZvLzGdgedvcL7h2E--66" style="edgeStyle=orthogonalEdgeStyle;rounded=0;orthogonalLoop=1;jettySize=auto;html=1;exitX=0.5;exitY=1;exitDx=0;exitDy=0;entryX=0.5;entryY=0;entryDx=0;entryDy=0;fontSize=12;" parent="dPXZvLzGdgedvcL7h2E--1" source="dPXZvLzGdgedvcL7h2E--67" target="dPXZvLzGdgedvcL7h2E--138" edge="1">
          <mxGeometry relative="1" as="geometry" />
        </mxCell>
        <mxCell id="dPXZvLzGdgedvcL7h2E--67" value="ambilStok()" style="shape=process;whiteSpace=wrap;html=1;backgroundOutline=1;" parent="dPXZvLzGdgedvcL7h2E--1" vertex="1">
          <mxGeometry x="308" y="1710" width="120" height="60" as="geometry" />
        </mxCell>
        <mxCell id="dPXZvLzGdgedvcL7h2E--68" value="" style="edgeStyle=orthogonalEdgeStyle;rounded=0;orthogonalLoop=1;jettySize=auto;html=1;" parent="dPXZvLzGdgedvcL7h2E--1" source="dPXZvLzGdgedvcL7h2E--69" target="dPXZvLzGdgedvcL7h2E--71" edge="1">
          <mxGeometry relative="1" as="geometry" />
        </mxCell>
        <mxCell id="dPXZvLzGdgedvcL7h2E--69" value="input&lt;br&gt;data bahan baik" style="shape=parallelogram;perimeter=parallelogramPerimeter;whiteSpace=wrap;html=1;fixedSize=1;" parent="dPXZvLzGdgedvcL7h2E--1" vertex="1">
          <mxGeometry x="560" y="900" width="120" height="60" as="geometry" />
        </mxCell>
        <mxCell id="dPXZvLzGdgedvcL7h2E--70" style="edgeStyle=orthogonalEdgeStyle;rounded=0;orthogonalLoop=1;jettySize=auto;html=1;exitX=0.5;exitY=1;exitDx=0;exitDy=0;entryX=0.5;entryY=0;entryDx=0;entryDy=0;fontSize=12;" parent="dPXZvLzGdgedvcL7h2E--1" source="dPXZvLzGdgedvcL7h2E--71" target="dPXZvLzGdgedvcL7h2E--130" edge="1">
          <mxGeometry relative="1" as="geometry" />
        </mxCell>
        <mxCell id="dPXZvLzGdgedvcL7h2E--71" value="tabelBahan[kurangiBahan-1][0]&lt;br style=&quot;border-color: var(--border-color);&quot;&gt;-= sc.nextInt();" style="whiteSpace=wrap;html=1;" parent="dPXZvLzGdgedvcL7h2E--1" vertex="1">
          <mxGeometry x="530" y="990" width="180" height="60" as="geometry" />
        </mxCell>
        <mxCell id="dPXZvLzGdgedvcL7h2E--72" value="" style="edgeStyle=orthogonalEdgeStyle;rounded=0;orthogonalLoop=1;jettySize=auto;html=1;" parent="dPXZvLzGdgedvcL7h2E--1" target="dPXZvLzGdgedvcL7h2E--75" edge="1">
          <mxGeometry relative="1" as="geometry">
            <mxPoint x="578" y="1377.0000000000002" as="sourcePoint" />
          </mxGeometry>
        </mxCell>
        <mxCell id="dPXZvLzGdgedvcL7h2E--73" value="input&lt;br&gt;data bahan busuk" style="shape=parallelogram;perimeter=parallelogramPerimeter;whiteSpace=wrap;html=1;fixedSize=1;" parent="dPXZvLzGdgedvcL7h2E--1" vertex="1">
          <mxGeometry x="513" y="1316" width="130" height="60" as="geometry" />
        </mxCell>
        <mxCell id="dPXZvLzGdgedvcL7h2E--74" value="" style="edgeStyle=orthogonalEdgeStyle;rounded=0;orthogonalLoop=1;jettySize=auto;html=1;" parent="dPXZvLzGdgedvcL7h2E--1" source="dPXZvLzGdgedvcL7h2E--75" target="dPXZvLzGdgedvcL7h2E--77" edge="1">
          <mxGeometry relative="1" as="geometry" />
        </mxCell>
        <mxCell id="dPXZvLzGdgedvcL7h2E--75" value="tabelBahan[kurangiBahan-1][1]&lt;br style=&quot;border-color: var(--border-color);&quot;&gt;-= sc.nextInt();" style="whiteSpace=wrap;html=1;" parent="dPXZvLzGdgedvcL7h2E--1" vertex="1">
          <mxGeometry x="488" y="1407" width="180" height="60" as="geometry" />
        </mxCell>
        <mxCell id="dPXZvLzGdgedvcL7h2E--77" value="tabelBahan[kurangiBahan-1][2]&lt;br style=&quot;border-color: var(--border-color);&quot;&gt;= tabelBahan[kurangiBahan-1][0]&lt;br style=&quot;border-color: var(--border-color);&quot;&gt;+ tabelBahan[kurangiBahan-1][1];" style="whiteSpace=wrap;html=1;" parent="dPXZvLzGdgedvcL7h2E--1" vertex="1">
          <mxGeometry x="478" y="1497" width="200" height="90" as="geometry" />
        </mxCell>
        <mxCell id="dPXZvLzGdgedvcL7h2E--78" style="edgeStyle=orthogonalEdgeStyle;rounded=0;orthogonalLoop=1;jettySize=auto;html=1;exitX=0.5;exitY=1;exitDx=0;exitDy=0;entryX=1;entryY=0.5;entryDx=0;entryDy=0;fontSize=12;" parent="dPXZvLzGdgedvcL7h2E--1" source="dPXZvLzGdgedvcL7h2E--79" target="dPXZvLzGdgedvcL7h2E--138" edge="1">
          <mxGeometry relative="1" as="geometry" />
        </mxCell>
        <mxCell id="dPXZvLzGdgedvcL7h2E--79" value="ambilStok()" style="shape=process;whiteSpace=wrap;html=1;backgroundOutline=1;" parent="dPXZvLzGdgedvcL7h2E--1" vertex="1">
          <mxGeometry x="518" y="1710" width="120" height="60" as="geometry" />
        </mxCell>
        <mxCell id="dPXZvLzGdgedvcL7h2E--80" value="" style="edgeStyle=orthogonalEdgeStyle;rounded=0;orthogonalLoop=1;jettySize=auto;html=1;" parent="dPXZvLzGdgedvcL7h2E--1" source="dPXZvLzGdgedvcL7h2E--81" target="dPXZvLzGdgedvcL7h2E--82" edge="1">
          <mxGeometry relative="1" as="geometry" />
        </mxCell>
        <mxCell id="dPXZvLzGdgedvcL7h2E--81" value="input&lt;br&gt;data bahan baik" style="shape=parallelogram;perimeter=parallelogramPerimeter;whiteSpace=wrap;html=1;fixedSize=1;" parent="dPXZvLzGdgedvcL7h2E--1" vertex="1">
          <mxGeometry x="940" y="140" width="120" height="60" as="geometry" />
        </mxCell>
        <mxCell id="fqB-fndf4x2Bh03UJAQJ-5" style="edgeStyle=orthogonalEdgeStyle;rounded=0;orthogonalLoop=1;jettySize=auto;html=1;exitX=0.5;exitY=1;exitDx=0;exitDy=0;entryX=0.5;entryY=0;entryDx=0;entryDy=0;fontSize=11;" edge="1" parent="dPXZvLzGdgedvcL7h2E--1" source="dPXZvLzGdgedvcL7h2E--82" target="dPXZvLzGdgedvcL7h2E--84">
          <mxGeometry relative="1" as="geometry" />
        </mxCell>
        <mxCell id="dPXZvLzGdgedvcL7h2E--82" value="tabelBahan[kurangiBahan-1][0]&lt;br style=&quot;border-color: var(--border-color);&quot;&gt;-= sc.nextInt();" style="whiteSpace=wrap;html=1;" parent="dPXZvLzGdgedvcL7h2E--1" vertex="1">
          <mxGeometry x="910" y="230" width="180" height="60" as="geometry" />
        </mxCell>
        <mxCell id="dPXZvLzGdgedvcL7h2E--83" value="" style="edgeStyle=orthogonalEdgeStyle;rounded=0;orthogonalLoop=1;jettySize=auto;html=1;" parent="dPXZvLzGdgedvcL7h2E--1" target="dPXZvLzGdgedvcL7h2E--86" edge="1">
          <mxGeometry relative="1" as="geometry">
            <mxPoint x="1000" y="371.0000000000002" as="sourcePoint" />
          </mxGeometry>
        </mxCell>
        <mxCell id="dPXZvLzGdgedvcL7h2E--84" value="input&lt;br&gt;data bahan busuk" style="shape=parallelogram;perimeter=parallelogramPerimeter;whiteSpace=wrap;html=1;fixedSize=1;" parent="dPXZvLzGdgedvcL7h2E--1" vertex="1">
          <mxGeometry x="935" y="310" width="130" height="60" as="geometry" />
        </mxCell>
        <mxCell id="dPXZvLzGdgedvcL7h2E--85" value="" style="edgeStyle=orthogonalEdgeStyle;rounded=0;orthogonalLoop=1;jettySize=auto;html=1;" parent="dPXZvLzGdgedvcL7h2E--1" source="dPXZvLzGdgedvcL7h2E--86" target="dPXZvLzGdgedvcL7h2E--88" edge="1">
          <mxGeometry relative="1" as="geometry" />
        </mxCell>
        <mxCell id="dPXZvLzGdgedvcL7h2E--86" value="tabelBahan[kurangiBahan-1][1]&lt;br style=&quot;border-color: var(--border-color);&quot;&gt;-= sc.nextInt();" style="whiteSpace=wrap;html=1;" parent="dPXZvLzGdgedvcL7h2E--1" vertex="1">
          <mxGeometry x="910" y="401" width="180" height="60" as="geometry" />
        </mxCell>
        <mxCell id="dPXZvLzGdgedvcL7h2E--88" value="tabelBahan[kurangiBahan-1][2]&lt;br style=&quot;border-color: var(--border-color);&quot;&gt;= tabelBahan[kurangiBahan-1][0]&lt;br style=&quot;border-color: var(--border-color);&quot;&gt;+ tabelBahan[kurangiBahan-1][1];" style="whiteSpace=wrap;html=1;" parent="dPXZvLzGdgedvcL7h2E--1" vertex="1">
          <mxGeometry x="900" y="491" width="200" height="90" as="geometry" />
        </mxCell>
        <mxCell id="dPXZvLzGdgedvcL7h2E--89" style="edgeStyle=orthogonalEdgeStyle;rounded=0;orthogonalLoop=1;jettySize=auto;html=1;exitX=0.5;exitY=1;exitDx=0;exitDy=0;entryX=0.5;entryY=0;entryDx=0;entryDy=0;fontSize=12;" parent="dPXZvLzGdgedvcL7h2E--1" source="dPXZvLzGdgedvcL7h2E--90" target="dPXZvLzGdgedvcL7h2E--139" edge="1">
          <mxGeometry relative="1" as="geometry" />
        </mxCell>
        <mxCell id="dPXZvLzGdgedvcL7h2E--90" value="ambilStok()" style="shape=process;whiteSpace=wrap;html=1;backgroundOutline=1;" parent="dPXZvLzGdgedvcL7h2E--1" vertex="1">
          <mxGeometry x="940" y="711" width="120" height="60" as="geometry" />
        </mxCell>
        <mxCell id="dPXZvLzGdgedvcL7h2E--91" value="" style="edgeStyle=orthogonalEdgeStyle;rounded=0;orthogonalLoop=1;jettySize=auto;html=1;" parent="dPXZvLzGdgedvcL7h2E--1" source="dPXZvLzGdgedvcL7h2E--92" target="dPXZvLzGdgedvcL7h2E--93" edge="1">
          <mxGeometry relative="1" as="geometry" />
        </mxCell>
        <mxCell id="dPXZvLzGdgedvcL7h2E--92" value="input&lt;br&gt;data bahan baik" style="shape=parallelogram;perimeter=parallelogramPerimeter;whiteSpace=wrap;html=1;fixedSize=1;" parent="dPXZvLzGdgedvcL7h2E--1" vertex="1">
          <mxGeometry x="1150" y="140" width="120" height="60" as="geometry" />
        </mxCell>
        <mxCell id="fqB-fndf4x2Bh03UJAQJ-6" style="edgeStyle=orthogonalEdgeStyle;rounded=0;orthogonalLoop=1;jettySize=auto;html=1;exitX=0.5;exitY=1;exitDx=0;exitDy=0;entryX=0.5;entryY=0;entryDx=0;entryDy=0;fontSize=11;" edge="1" parent="dPXZvLzGdgedvcL7h2E--1" source="dPXZvLzGdgedvcL7h2E--93" target="dPXZvLzGdgedvcL7h2E--95">
          <mxGeometry relative="1" as="geometry" />
        </mxCell>
        <mxCell id="dPXZvLzGdgedvcL7h2E--93" value="tabelBahan[kurangiBahan-1][0]&lt;br style=&quot;border-color: var(--border-color);&quot;&gt;-= sc.nextInt();" style="whiteSpace=wrap;html=1;" parent="dPXZvLzGdgedvcL7h2E--1" vertex="1">
          <mxGeometry x="1120" y="230" width="180" height="60" as="geometry" />
        </mxCell>
        <mxCell id="dPXZvLzGdgedvcL7h2E--94" value="" style="edgeStyle=orthogonalEdgeStyle;rounded=0;orthogonalLoop=1;jettySize=auto;html=1;" parent="dPXZvLzGdgedvcL7h2E--1" target="dPXZvLzGdgedvcL7h2E--97" edge="1">
          <mxGeometry relative="1" as="geometry">
            <mxPoint x="1210" y="371.0000000000002" as="sourcePoint" />
          </mxGeometry>
        </mxCell>
        <mxCell id="dPXZvLzGdgedvcL7h2E--95" value="input&lt;br&gt;data bahan busuk" style="shape=parallelogram;perimeter=parallelogramPerimeter;whiteSpace=wrap;html=1;fixedSize=1;" parent="dPXZvLzGdgedvcL7h2E--1" vertex="1">
          <mxGeometry x="1145" y="310" width="130" height="60" as="geometry" />
        </mxCell>
        <mxCell id="dPXZvLzGdgedvcL7h2E--96" value="" style="edgeStyle=orthogonalEdgeStyle;rounded=0;orthogonalLoop=1;jettySize=auto;html=1;" parent="dPXZvLzGdgedvcL7h2E--1" source="dPXZvLzGdgedvcL7h2E--97" target="dPXZvLzGdgedvcL7h2E--99" edge="1">
          <mxGeometry relative="1" as="geometry" />
        </mxCell>
        <mxCell id="dPXZvLzGdgedvcL7h2E--97" value="tabelBahan[kurangiBahan-1][1]&lt;br style=&quot;border-color: var(--border-color);&quot;&gt;-= sc.nextInt();" style="whiteSpace=wrap;html=1;" parent="dPXZvLzGdgedvcL7h2E--1" vertex="1">
          <mxGeometry x="1120" y="401" width="180" height="60" as="geometry" />
        </mxCell>
        <mxCell id="dPXZvLzGdgedvcL7h2E--99" value="tabelBahan[kurangiBahan-1][2]&lt;br style=&quot;border-color: var(--border-color);&quot;&gt;= tabelBahan[kurangiBahan-1][0]&lt;br style=&quot;border-color: var(--border-color);&quot;&gt;+ tabelBahan[kurangiBahan-1][1];" style="whiteSpace=wrap;html=1;" parent="dPXZvLzGdgedvcL7h2E--1" vertex="1">
          <mxGeometry x="1110" y="491" width="200" height="90" as="geometry" />
        </mxCell>
        <mxCell id="dPXZvLzGdgedvcL7h2E--100" style="edgeStyle=orthogonalEdgeStyle;rounded=0;orthogonalLoop=1;jettySize=auto;html=1;exitX=0.5;exitY=1;exitDx=0;exitDy=0;entryX=1;entryY=0.5;entryDx=0;entryDy=0;fontSize=12;" parent="dPXZvLzGdgedvcL7h2E--1" source="dPXZvLzGdgedvcL7h2E--101" target="dPXZvLzGdgedvcL7h2E--139" edge="1">
          <mxGeometry relative="1" as="geometry" />
        </mxCell>
        <mxCell id="dPXZvLzGdgedvcL7h2E--101" value="ambilStok()" style="shape=process;whiteSpace=wrap;html=1;backgroundOutline=1;" parent="dPXZvLzGdgedvcL7h2E--1" vertex="1">
          <mxGeometry x="1150" y="711" width="120" height="60" as="geometry" />
        </mxCell>
        <mxCell id="dPXZvLzGdgedvcL7h2E--102" value="" style="edgeStyle=orthogonalEdgeStyle;rounded=0;orthogonalLoop=1;jettySize=auto;html=1;" parent="dPXZvLzGdgedvcL7h2E--1" edge="1">
          <mxGeometry relative="1" as="geometry">
            <mxPoint x="1410" y="990" as="targetPoint" />
          </mxGeometry>
        </mxCell>
        <mxCell id="dPXZvLzGdgedvcL7h2E--103" style="edgeStyle=orthogonalEdgeStyle;rounded=0;orthogonalLoop=1;jettySize=auto;html=1;exitX=0.5;exitY=1;exitDx=0;exitDy=0;entryX=0.5;entryY=0;entryDx=0;entryDy=0;" parent="dPXZvLzGdgedvcL7h2E--1" edge="1">
          <mxGeometry relative="1" as="geometry">
            <mxPoint x="1410" y="1080.0000000000002" as="targetPoint" />
          </mxGeometry>
        </mxCell>
        <mxCell id="dPXZvLzGdgedvcL7h2E--104" value="" style="edgeStyle=orthogonalEdgeStyle;rounded=0;orthogonalLoop=1;jettySize=auto;html=1;" parent="dPXZvLzGdgedvcL7h2E--1" edge="1">
          <mxGeometry relative="1" as="geometry">
            <mxPoint x="1410" y="1170.0000000000002" as="targetPoint" />
          </mxGeometry>
        </mxCell>
        <mxCell id="dPXZvLzGdgedvcL7h2E--105" value="" style="edgeStyle=orthogonalEdgeStyle;rounded=0;orthogonalLoop=1;jettySize=auto;html=1;" parent="dPXZvLzGdgedvcL7h2E--1" edge="1">
          <mxGeometry relative="1" as="geometry">
            <mxPoint x="1410" y="1260.0000000000002" as="targetPoint" />
          </mxGeometry>
        </mxCell>
        <mxCell id="dPXZvLzGdgedvcL7h2E--106" style="edgeStyle=orthogonalEdgeStyle;rounded=0;orthogonalLoop=1;jettySize=auto;html=1;exitX=0.5;exitY=1;exitDx=0;exitDy=0;entryX=0.5;entryY=0;entryDx=0;entryDy=0;" parent="dPXZvLzGdgedvcL7h2E--1" edge="1">
          <mxGeometry relative="1" as="geometry">
            <mxPoint x="1410" y="1380" as="targetPoint" />
          </mxGeometry>
        </mxCell>
        <mxCell id="dPXZvLzGdgedvcL7h2E--107" style="edgeStyle=orthogonalEdgeStyle;rounded=0;orthogonalLoop=1;jettySize=auto;html=1;exitX=0.5;exitY=1;exitDx=0;exitDy=0;fontSize=12;" parent="dPXZvLzGdgedvcL7h2E--1" source="fqB-fndf4x2Bh03UJAQJ-3" edge="1">
          <mxGeometry relative="1" as="geometry">
            <mxPoint x="1210" y="840" as="targetPoint" />
            <Array as="points">
              <mxPoint x="1420" y="840" />
            </Array>
            <mxPoint x="1420" y="441" as="sourcePoint" />
          </mxGeometry>
        </mxCell>
        <mxCell id="dPXZvLzGdgedvcL7h2E--109" value="return kurangiBahan" style="ellipse;whiteSpace=wrap;html=1;" parent="dPXZvLzGdgedvcL7h2E--1" vertex="1">
          <mxGeometry x="298" y="1939" width="140" height="60" as="geometry" />
        </mxCell>
        <mxCell id="dPXZvLzGdgedvcL7h2E--110" value="True" style="text;html=1;strokeColor=none;fillColor=none;align=center;verticalAlign=middle;whiteSpace=wrap;rounded=0;" parent="dPXZvLzGdgedvcL7h2E--1" vertex="1">
          <mxGeometry x="255" y="395" width="60" height="30" as="geometry" />
        </mxCell>
        <mxCell id="dPXZvLzGdgedvcL7h2E--111" value="False" style="text;html=1;strokeColor=none;fillColor=none;align=center;verticalAlign=middle;whiteSpace=wrap;rounded=0;" parent="dPXZvLzGdgedvcL7h2E--1" vertex="1">
          <mxGeometry x="200" y="480" width="60" height="30" as="geometry" />
        </mxCell>
        <mxCell id="dPXZvLzGdgedvcL7h2E--112" value="True" style="text;html=1;strokeColor=none;fillColor=none;align=center;verticalAlign=middle;whiteSpace=wrap;rounded=0;" parent="dPXZvLzGdgedvcL7h2E--1" vertex="1">
          <mxGeometry x="200" y="870" width="60" height="30" as="geometry" />
        </mxCell>
        <mxCell id="dPXZvLzGdgedvcL7h2E--113" value="False" style="text;html=1;strokeColor=none;fillColor=none;align=center;verticalAlign=middle;whiteSpace=wrap;rounded=0;" parent="dPXZvLzGdgedvcL7h2E--1" vertex="1">
          <mxGeometry x="240" y="800" width="60" height="30" as="geometry" />
        </mxCell>
        <mxCell id="dPXZvLzGdgedvcL7h2E--114" value="True" style="text;html=1;strokeColor=none;fillColor=none;align=center;verticalAlign=middle;whiteSpace=wrap;rounded=0;" parent="dPXZvLzGdgedvcL7h2E--1" vertex="1">
          <mxGeometry x="410" y="870" width="60" height="30" as="geometry" />
        </mxCell>
        <mxCell id="dPXZvLzGdgedvcL7h2E--115" value="False" style="text;html=1;strokeColor=none;fillColor=none;align=center;verticalAlign=middle;whiteSpace=wrap;rounded=0;" parent="dPXZvLzGdgedvcL7h2E--1" vertex="1">
          <mxGeometry x="450" y="800" width="60" height="30" as="geometry" />
        </mxCell>
        <mxCell id="dPXZvLzGdgedvcL7h2E--116" value="True" style="text;html=1;strokeColor=none;fillColor=none;align=center;verticalAlign=middle;whiteSpace=wrap;rounded=0;" parent="dPXZvLzGdgedvcL7h2E--1" vertex="1">
          <mxGeometry x="620" y="870" width="60" height="30" as="geometry" />
        </mxCell>
        <mxCell id="dPXZvLzGdgedvcL7h2E--117" style="edgeStyle=orthogonalEdgeStyle;rounded=0;orthogonalLoop=1;jettySize=auto;html=1;exitX=0;exitY=1;exitDx=0;exitDy=0;entryX=0;entryY=0.5;entryDx=0;entryDy=0;fontSize=23;" parent="dPXZvLzGdgedvcL7h2E--1" source="dPXZvLzGdgedvcL7h2E--118" target="dPXZvLzGdgedvcL7h2E--125" edge="1">
          <mxGeometry relative="1" as="geometry">
            <Array as="points">
              <mxPoint x="695" y="830" />
              <mxPoint x="695" y="830" />
            </Array>
          </mxGeometry>
        </mxCell>
        <mxCell id="dPXZvLzGdgedvcL7h2E--118" value="False" style="text;html=1;strokeColor=none;fillColor=none;align=center;verticalAlign=middle;whiteSpace=wrap;rounded=0;" parent="dPXZvLzGdgedvcL7h2E--1" vertex="1">
          <mxGeometry x="660" y="800" width="60" height="30" as="geometry" />
        </mxCell>
        <mxCell id="dPXZvLzGdgedvcL7h2E--119" value="True" style="text;html=1;strokeColor=none;fillColor=none;align=center;verticalAlign=middle;whiteSpace=wrap;rounded=0;" parent="dPXZvLzGdgedvcL7h2E--1" vertex="1">
          <mxGeometry x="1000" y="110" width="60" height="30" as="geometry" />
        </mxCell>
        <mxCell id="dPXZvLzGdgedvcL7h2E--120" value="False" style="text;html=1;strokeColor=none;fillColor=none;align=center;verticalAlign=middle;whiteSpace=wrap;rounded=0;" parent="dPXZvLzGdgedvcL7h2E--1" vertex="1">
          <mxGeometry x="1040" y="40" width="60" height="30" as="geometry" />
        </mxCell>
        <mxCell id="dPXZvLzGdgedvcL7h2E--121" value="True" style="text;html=1;strokeColor=none;fillColor=none;align=center;verticalAlign=middle;whiteSpace=wrap;rounded=0;" parent="dPXZvLzGdgedvcL7h2E--1" vertex="1">
          <mxGeometry x="1211" y="110" width="60" height="30" as="geometry" />
        </mxCell>
        <mxCell id="dPXZvLzGdgedvcL7h2E--122" value="False" style="text;html=1;strokeColor=none;fillColor=none;align=center;verticalAlign=middle;whiteSpace=wrap;rounded=0;" parent="dPXZvLzGdgedvcL7h2E--1" vertex="1">
          <mxGeometry x="1251" y="40" width="60" height="30" as="geometry" />
        </mxCell>
        <mxCell id="dPXZvLzGdgedvcL7h2E--123" value="True" style="text;html=1;strokeColor=none;fillColor=none;align=center;verticalAlign=middle;whiteSpace=wrap;rounded=0;" parent="dPXZvLzGdgedvcL7h2E--1" vertex="1">
          <mxGeometry x="1425" y="110" width="60" height="30" as="geometry" />
        </mxCell>
        <mxCell id="dPXZvLzGdgedvcL7h2E--124" value="False" style="text;html=1;strokeColor=none;fillColor=none;align=center;verticalAlign=middle;whiteSpace=wrap;rounded=0;" parent="dPXZvLzGdgedvcL7h2E--1" vertex="1">
          <mxGeometry x="1460" y="40" width="60" height="30" as="geometry" />
        </mxCell>
        <mxCell id="dPXZvLzGdgedvcL7h2E--125" value="KC" style="verticalLabelPosition=bottom;verticalAlign=top;html=1;shape=offPageConnector;rounded=0;size=0.5;spacingTop=-65;fontSize=23;" parent="dPXZvLzGdgedvcL7h2E--1" vertex="1">
          <mxGeometry x="740" y="790" width="74" height="80" as="geometry" />
        </mxCell>
        <mxCell id="dPXZvLzGdgedvcL7h2E--126" style="edgeStyle=orthogonalEdgeStyle;rounded=0;orthogonalLoop=1;jettySize=auto;html=1;exitX=1;exitY=0.5;exitDx=0;exitDy=0;entryX=0;entryY=0.5;entryDx=0;entryDy=0;fontSize=23;" parent="dPXZvLzGdgedvcL7h2E--1" source="dPXZvLzGdgedvcL7h2E--127" target="dPXZvLzGdgedvcL7h2E--33" edge="1">
          <mxGeometry relative="1" as="geometry" />
        </mxCell>
        <mxCell id="dPXZvLzGdgedvcL7h2E--127" value="KC" style="verticalLabelPosition=bottom;verticalAlign=top;html=1;shape=offPageConnector;rounded=0;size=0.5;spacingTop=-65;fontSize=23;" parent="dPXZvLzGdgedvcL7h2E--1" vertex="1">
          <mxGeometry x="850" y="30" width="74" height="80" as="geometry" />
        </mxCell>
        <mxCell id="dPXZvLzGdgedvcL7h2E--128" value="KC1" style="verticalLabelPosition=bottom;verticalAlign=top;html=1;shape=offPageConnector;rounded=0;size=0.42857142857142855;spacingTop=-65;fontSize=23;" parent="dPXZvLzGdgedvcL7h2E--1" vertex="1">
          <mxGeometry x="168" y="1090" width="64" height="70" as="geometry" />
        </mxCell>
        <mxCell id="dPXZvLzGdgedvcL7h2E--129" value="KC2" style="verticalLabelPosition=bottom;verticalAlign=top;html=1;shape=offPageConnector;rounded=0;size=0.42857142857142855;spacingTop=-65;fontSize=23;" parent="dPXZvLzGdgedvcL7h2E--1" vertex="1">
          <mxGeometry x="378" y="1090" width="64" height="70" as="geometry" />
        </mxCell>
        <mxCell id="dPXZvLzGdgedvcL7h2E--130" value="KC3" style="verticalLabelPosition=bottom;verticalAlign=top;html=1;shape=offPageConnector;rounded=0;size=0.42857142857142855;spacingTop=-65;fontSize=23;" parent="dPXZvLzGdgedvcL7h2E--1" vertex="1">
          <mxGeometry x="588" y="1090" width="64" height="70" as="geometry" />
        </mxCell>
        <mxCell id="dPXZvLzGdgedvcL7h2E--131" style="edgeStyle=orthogonalEdgeStyle;rounded=0;orthogonalLoop=1;jettySize=auto;html=1;exitX=0.5;exitY=1;exitDx=0;exitDy=0;entryX=0.5;entryY=0;entryDx=0;entryDy=0;fontSize=12;" parent="dPXZvLzGdgedvcL7h2E--1" source="dPXZvLzGdgedvcL7h2E--132" target="dPXZvLzGdgedvcL7h2E--49" edge="1">
          <mxGeometry relative="1" as="geometry" />
        </mxCell>
        <mxCell id="dPXZvLzGdgedvcL7h2E--132" value="KC1" style="verticalLabelPosition=bottom;verticalAlign=top;html=1;shape=offPageConnector;rounded=0;size=0.42857142857142855;spacingTop=-65;fontSize=23;" parent="dPXZvLzGdgedvcL7h2E--1" vertex="1">
          <mxGeometry x="126" y="1200" width="64" height="70" as="geometry" />
        </mxCell>
        <mxCell id="dPXZvLzGdgedvcL7h2E--133" style="edgeStyle=orthogonalEdgeStyle;rounded=0;orthogonalLoop=1;jettySize=auto;html=1;exitX=0.5;exitY=1;exitDx=0;exitDy=0;entryX=0.5;entryY=0;entryDx=0;entryDy=0;fontSize=12;" parent="dPXZvLzGdgedvcL7h2E--1" source="dPXZvLzGdgedvcL7h2E--134" target="dPXZvLzGdgedvcL7h2E--61" edge="1">
          <mxGeometry relative="1" as="geometry" />
        </mxCell>
        <mxCell id="dPXZvLzGdgedvcL7h2E--134" value="KC2" style="verticalLabelPosition=bottom;verticalAlign=top;html=1;shape=offPageConnector;rounded=0;size=0.42857142857142855;spacingTop=-65;fontSize=23;" parent="dPXZvLzGdgedvcL7h2E--1" vertex="1">
          <mxGeometry x="336" y="1200" width="64" height="70" as="geometry" />
        </mxCell>
        <mxCell id="dPXZvLzGdgedvcL7h2E--135" style="edgeStyle=orthogonalEdgeStyle;rounded=0;orthogonalLoop=1;jettySize=auto;html=1;exitX=0.5;exitY=1;exitDx=0;exitDy=0;entryX=0.5;entryY=0;entryDx=0;entryDy=0;fontSize=12;" parent="dPXZvLzGdgedvcL7h2E--1" source="dPXZvLzGdgedvcL7h2E--136" target="dPXZvLzGdgedvcL7h2E--73" edge="1">
          <mxGeometry relative="1" as="geometry" />
        </mxCell>
        <mxCell id="dPXZvLzGdgedvcL7h2E--136" value="KC3" style="verticalLabelPosition=bottom;verticalAlign=top;html=1;shape=offPageConnector;rounded=0;size=0.42857142857142855;spacingTop=-65;fontSize=23;" parent="dPXZvLzGdgedvcL7h2E--1" vertex="1">
          <mxGeometry x="546" y="1200" width="64" height="70" as="geometry" />
        </mxCell>
        <mxCell id="dPXZvLzGdgedvcL7h2E--137" style="edgeStyle=orthogonalEdgeStyle;rounded=0;orthogonalLoop=1;jettySize=auto;html=1;exitX=0.5;exitY=1;exitDx=0;exitDy=0;entryX=0.5;entryY=0;entryDx=0;entryDy=0;fontSize=12;" parent="dPXZvLzGdgedvcL7h2E--1" source="dPXZvLzGdgedvcL7h2E--138" target="dPXZvLzGdgedvcL7h2E--109" edge="1">
          <mxGeometry relative="1" as="geometry" />
        </mxCell>
        <mxCell id="dPXZvLzGdgedvcL7h2E--138" value="&lt;font style=&quot;font-size: 12px;&quot;&gt;break&lt;/font&gt;" style="rounded=0;whiteSpace=wrap;html=1;fontSize=23;spacing=2;spacingTop=-6;" parent="dPXZvLzGdgedvcL7h2E--1" vertex="1">
          <mxGeometry x="320" y="1829" width="96" height="50" as="geometry" />
        </mxCell>
        <mxCell id="dPXZvLzGdgedvcL7h2E--139" value="KB" style="verticalLabelPosition=bottom;verticalAlign=top;html=1;shape=offPageConnector;rounded=0;size=0.5;spacingTop=-65;fontSize=23;" parent="dPXZvLzGdgedvcL7h2E--1" vertex="1">
          <mxGeometry x="963" y="910" width="74" height="80" as="geometry" />
        </mxCell>
        <mxCell id="dPXZvLzGdgedvcL7h2E--140" style="edgeStyle=orthogonalEdgeStyle;rounded=0;orthogonalLoop=1;jettySize=auto;html=1;exitX=0;exitY=0.5;exitDx=0;exitDy=0;fontSize=12;" parent="dPXZvLzGdgedvcL7h2E--1" source="dPXZvLzGdgedvcL7h2E--141" edge="1">
          <mxGeometry relative="1" as="geometry">
            <mxPoint x="578" y="1819" as="targetPoint" />
          </mxGeometry>
        </mxCell>
        <mxCell id="dPXZvLzGdgedvcL7h2E--141" value="KB" style="verticalLabelPosition=bottom;verticalAlign=top;html=1;shape=offPageConnector;rounded=0;size=0.5;spacingTop=-65;fontSize=23;" parent="dPXZvLzGdgedvcL7h2E--1" vertex="1">
          <mxGeometry x="688" y="1779" width="74" height="80" as="geometry" />
        </mxCell>
        <mxCell id="Il5-C9B5xDkVgwqDbaoW-0" value="ambilStok 2" style="text;strokeColor=none;fillColor=none;html=1;fontSize=24;fontStyle=1;verticalAlign=middle;align=center;" parent="dPXZvLzGdgedvcL7h2E--1" vertex="1">
          <mxGeometry x="1520" y="1120" width="100" height="40" as="geometry" />
        </mxCell>
        <mxCell id="Il5-C9B5xDkVgwqDbaoW-1" value="ambilStok 1" style="text;strokeColor=none;fillColor=none;html=1;fontSize=24;fontStyle=1;verticalAlign=middle;align=center;" parent="dPXZvLzGdgedvcL7h2E--1" vertex="1">
          <mxGeometry x="685" width="100" height="40" as="geometry" />
        </mxCell>
        <mxCell id="Il5-C9B5xDkVgwqDbaoW-2" value="ambilStok 3" style="text;strokeColor=none;fillColor=none;html=1;fontSize=24;fontStyle=1;verticalAlign=middle;align=center;" parent="dPXZvLzGdgedvcL7h2E--1" vertex="1">
          <mxGeometry x="685" y="1169" width="100" height="40" as="geometry" />
        </mxCell>
        <mxCell id="fqB-fndf4x2Bh03UJAQJ-0" value="&lt;span style=&quot;font-size: 12px;&quot;&gt;output&lt;/span&gt;&lt;br style=&quot;border-color: var(--border-color); font-size: 12px;&quot;&gt;&lt;br style=&quot;border-color: var(--border-color); font-size: 12px;&quot;&gt;&lt;span style=&quot;font-size: 12px;&quot;&gt;[ + (i+1) + ]&lt;/span&gt;&lt;br style=&quot;border-color: var(--border-color); font-size: 12px;&quot;&gt;&lt;span style=&quot;font-size: 12px;&quot;&gt;namaBahan[i]&lt;/span&gt;" style="shape=parallelogram;perimeter=parallelogramPerimeter;whiteSpace=wrap;html=1;fixedSize=1;fontSize=11;" vertex="1" parent="dPXZvLzGdgedvcL7h2E--1">
          <mxGeometry x="348" y="390" width="132" height="70" as="geometry" />
        </mxCell>
        <mxCell id="fqB-fndf4x2Bh03UJAQJ-2" value="&lt;font style=&quot;font-size: 11px;&quot;&gt;output&lt;br style=&quot;border-color: var(--border-color);&quot;&gt;&lt;br style=&quot;border-color: var(--border-color);&quot;&gt;[ + (namaBahan.length+1) + ]&amp;nbsp;&lt;br style=&quot;border-color: var(--border-color);&quot;&gt;Kembali ke Menu Utama&lt;/font&gt;" style="shape=parallelogram;perimeter=parallelogramPerimeter;whiteSpace=wrap;html=1;fixedSize=1;fontSize=11;" vertex="1" parent="dPXZvLzGdgedvcL7h2E--1">
          <mxGeometry x="120" y="510" width="160" height="70" as="geometry" />
        </mxCell>
        <mxCell id="fqB-fndf4x2Bh03UJAQJ-3" value="&lt;span style=&quot;font-size: 12px;&quot;&gt;output&lt;br&gt;&quot;Berhasil kembali ke menu utama!&quot;&lt;/span&gt;" style="shape=parallelogram;perimeter=parallelogramPerimeter;whiteSpace=wrap;html=1;fixedSize=1;fontSize=11;" vertex="1" parent="dPXZvLzGdgedvcL7h2E--1">
          <mxGeometry x="1350" y="370.5" width="140" height="79" as="geometry" />
        </mxCell>
        <mxCell id="fqB-fndf4x2Bh03UJAQJ-4" value="&lt;span style=&quot;font-size: 12px;&quot;&gt;output&lt;br&gt;&quot;Menu yang Anda masukkan salah!&lt;/span&gt;" style="shape=parallelogram;perimeter=parallelogramPerimeter;whiteSpace=wrap;html=1;fixedSize=1;fontSize=11;" vertex="1" parent="dPXZvLzGdgedvcL7h2E--1">
          <mxGeometry x="1510" y="40" width="140" height="60" as="geometry" />
        </mxCell>
        <mxCell id="MrP5bPUxoYivSzb81TCi-0" value="" style="edgeStyle=orthogonalEdgeStyle;rounded=0;orthogonalLoop=1;jettySize=auto;html=1;fontSize=11;exitX=0.5;exitY=1;exitDx=0;exitDy=0;entryX=0.5;entryY=0;entryDx=0;entryDy=0;" edge="1" parent="dPXZvLzGdgedvcL7h2E--1" target="MrP5bPUxoYivSzb81TCi-2" source="dPXZvLzGdgedvcL7h2E--53">
          <mxGeometry relative="1" as="geometry">
            <mxPoint x="158.090909090909" y="1587" as="sourcePoint" />
          </mxGeometry>
        </mxCell>
        <mxCell id="MrP5bPUxoYivSzb81TCi-1" style="edgeStyle=orthogonalEdgeStyle;rounded=0;orthogonalLoop=1;jettySize=auto;html=1;exitX=0.5;exitY=1;exitDx=0;exitDy=0;entryX=0.5;entryY=0;entryDx=0;entryDy=0;fontSize=11;" edge="1" parent="dPXZvLzGdgedvcL7h2E--1" source="MrP5bPUxoYivSzb81TCi-2" target="dPXZvLzGdgedvcL7h2E--55">
          <mxGeometry relative="1" as="geometry">
            <mxPoint x="158" y="1710" as="targetPoint" />
          </mxGeometry>
        </mxCell>
        <mxCell id="MrP5bPUxoYivSzb81TCi-2" value="output&lt;br&gt;&quot;Data berhasil diupdate!&quot;" style="shape=parallelogram;perimeter=parallelogramPerimeter;whiteSpace=wrap;html=1;fixedSize=1;" vertex="1" parent="dPXZvLzGdgedvcL7h2E--1">
          <mxGeometry x="98" y="1620" width="120" height="60" as="geometry" />
        </mxCell>
        <mxCell id="MrP5bPUxoYivSzb81TCi-3" value="" style="edgeStyle=orthogonalEdgeStyle;rounded=0;orthogonalLoop=1;jettySize=auto;html=1;fontSize=11;entryX=0.5;entryY=0;entryDx=0;entryDy=0;exitX=0.5;exitY=1;exitDx=0;exitDy=0;" edge="1" parent="dPXZvLzGdgedvcL7h2E--1" target="MrP5bPUxoYivSzb81TCi-5" source="dPXZvLzGdgedvcL7h2E--65">
          <mxGeometry relative="1" as="geometry">
            <mxPoint x="368.090909090909" y="1587" as="sourcePoint" />
          </mxGeometry>
        </mxCell>
        <mxCell id="MrP5bPUxoYivSzb81TCi-4" style="edgeStyle=orthogonalEdgeStyle;rounded=0;orthogonalLoop=1;jettySize=auto;html=1;exitX=0.5;exitY=1;exitDx=0;exitDy=0;entryX=0.5;entryY=0;entryDx=0;entryDy=0;fontSize=11;" edge="1" parent="dPXZvLzGdgedvcL7h2E--1" source="MrP5bPUxoYivSzb81TCi-5" target="dPXZvLzGdgedvcL7h2E--67">
          <mxGeometry relative="1" as="geometry">
            <mxPoint x="368" y="1710" as="targetPoint" />
          </mxGeometry>
        </mxCell>
        <mxCell id="MrP5bPUxoYivSzb81TCi-5" value="output&lt;br&gt;&quot;Data berhasil diupdate!&quot;" style="shape=parallelogram;perimeter=parallelogramPerimeter;whiteSpace=wrap;html=1;fixedSize=1;" vertex="1" parent="dPXZvLzGdgedvcL7h2E--1">
          <mxGeometry x="308" y="1620" width="120" height="60" as="geometry" />
        </mxCell>
        <mxCell id="MrP5bPUxoYivSzb81TCi-6" value="" style="edgeStyle=orthogonalEdgeStyle;rounded=0;orthogonalLoop=1;jettySize=auto;html=1;fontSize=11;entryX=0.5;entryY=0;entryDx=0;entryDy=0;exitX=0.5;exitY=1;exitDx=0;exitDy=0;" edge="1" parent="dPXZvLzGdgedvcL7h2E--1" target="MrP5bPUxoYivSzb81TCi-8" source="dPXZvLzGdgedvcL7h2E--77">
          <mxGeometry relative="1" as="geometry">
            <mxPoint x="578" y="1590" as="sourcePoint" />
          </mxGeometry>
        </mxCell>
        <mxCell id="MrP5bPUxoYivSzb81TCi-7" style="edgeStyle=orthogonalEdgeStyle;rounded=0;orthogonalLoop=1;jettySize=auto;html=1;exitX=0.5;exitY=1;exitDx=0;exitDy=0;entryX=0.5;entryY=0;entryDx=0;entryDy=0;fontSize=11;" edge="1" parent="dPXZvLzGdgedvcL7h2E--1" source="MrP5bPUxoYivSzb81TCi-8" target="dPXZvLzGdgedvcL7h2E--79">
          <mxGeometry relative="1" as="geometry">
            <mxPoint x="578" y="1710" as="targetPoint" />
          </mxGeometry>
        </mxCell>
        <mxCell id="MrP5bPUxoYivSzb81TCi-8" value="output&lt;br&gt;&quot;Data berhasil diupdate!&quot;" style="shape=parallelogram;perimeter=parallelogramPerimeter;whiteSpace=wrap;html=1;fixedSize=1;" vertex="1" parent="dPXZvLzGdgedvcL7h2E--1">
          <mxGeometry x="518" y="1620" width="120" height="60" as="geometry" />
        </mxCell>
        <mxCell id="MrP5bPUxoYivSzb81TCi-12" value="" style="edgeStyle=orthogonalEdgeStyle;rounded=0;orthogonalLoop=1;jettySize=auto;html=1;fontSize=11;exitX=0.5;exitY=1;exitDx=0;exitDy=0;entryX=0.5;entryY=0;entryDx=0;entryDy=0;" edge="1" parent="dPXZvLzGdgedvcL7h2E--1" target="MrP5bPUxoYivSzb81TCi-14" source="dPXZvLzGdgedvcL7h2E--88">
          <mxGeometry relative="1" as="geometry">
            <mxPoint x="1000.090909090909" y="581" as="sourcePoint" />
          </mxGeometry>
        </mxCell>
        <mxCell id="MrP5bPUxoYivSzb81TCi-13" style="edgeStyle=orthogonalEdgeStyle;rounded=0;orthogonalLoop=1;jettySize=auto;html=1;exitX=0.5;exitY=1;exitDx=0;exitDy=0;entryX=0.5;entryY=0;entryDx=0;entryDy=0;fontSize=11;" edge="1" parent="dPXZvLzGdgedvcL7h2E--1" source="MrP5bPUxoYivSzb81TCi-14" target="dPXZvLzGdgedvcL7h2E--90">
          <mxGeometry relative="1" as="geometry">
            <mxPoint x="1000" y="706" as="targetPoint" />
            <mxPoint x="1000" y="676" as="sourcePoint" />
          </mxGeometry>
        </mxCell>
        <mxCell id="MrP5bPUxoYivSzb81TCi-14" value="output&lt;br&gt;&quot;Data berhasil diupdate!&quot;" style="shape=parallelogram;perimeter=parallelogramPerimeter;whiteSpace=wrap;html=1;fixedSize=1;" vertex="1" parent="dPXZvLzGdgedvcL7h2E--1">
          <mxGeometry x="940" y="614" width="120" height="60" as="geometry" />
        </mxCell>
        <mxCell id="MrP5bPUxoYivSzb81TCi-15" value="" style="edgeStyle=orthogonalEdgeStyle;rounded=0;orthogonalLoop=1;jettySize=auto;html=1;fontSize=11;entryX=0.5;entryY=0;entryDx=0;entryDy=0;exitX=0.5;exitY=1;exitDx=0;exitDy=0;" edge="1" parent="dPXZvLzGdgedvcL7h2E--1" target="MrP5bPUxoYivSzb81TCi-17" source="dPXZvLzGdgedvcL7h2E--99">
          <mxGeometry relative="1" as="geometry">
            <mxPoint x="1210" y="590" as="sourcePoint" />
          </mxGeometry>
        </mxCell>
        <mxCell id="MrP5bPUxoYivSzb81TCi-16" style="edgeStyle=orthogonalEdgeStyle;rounded=0;orthogonalLoop=1;jettySize=auto;html=1;exitX=0.5;exitY=1;exitDx=0;exitDy=0;entryX=0.5;entryY=0;entryDx=0;entryDy=0;fontSize=11;" edge="1" parent="dPXZvLzGdgedvcL7h2E--1" source="MrP5bPUxoYivSzb81TCi-17" target="dPXZvLzGdgedvcL7h2E--101">
          <mxGeometry relative="1" as="geometry">
            <mxPoint x="1210" y="703" as="targetPoint" />
          </mxGeometry>
        </mxCell>
        <mxCell id="MrP5bPUxoYivSzb81TCi-17" value="output&lt;br&gt;&quot;Data berhasil diupdate!&quot;" style="shape=parallelogram;perimeter=parallelogramPerimeter;whiteSpace=wrap;html=1;fixedSize=1;" vertex="1" parent="dPXZvLzGdgedvcL7h2E--1">
          <mxGeometry x="1150" y="613" width="120" height="60" as="geometry" />
        </mxCell>
      </root>
    </mxGraphModel>
  </diagram>
  <diagram id="XfT1XB3cXSn59G5LPtd7" name="cariBahan">
    <mxGraphModel dx="1400" dy="721" grid="1" gridSize="10" guides="1" tooltips="1" connect="1" arrows="1" fold="1" page="1" pageScale="1" pageWidth="827" pageHeight="1169" math="0" shadow="0">
      <root>
        <mxCell id="0" />
        <mxCell id="1" parent="0" />
        <mxCell id="M1hFX3PX0yjQhxXQx2_H-3" value="" style="edgeStyle=orthogonalEdgeStyle;rounded=0;orthogonalLoop=1;jettySize=auto;html=1;" parent="1" source="M1hFX3PX0yjQhxXQx2_H-1" target="M1hFX3PX0yjQhxXQx2_H-2" edge="1">
          <mxGeometry relative="1" as="geometry" />
        </mxCell>
        <mxCell id="M1hFX3PX0yjQhxXQx2_H-1" value="cariBahan()" style="ellipse;whiteSpace=wrap;html=1;" parent="1" vertex="1">
          <mxGeometry x="50" y="40" width="120" height="80" as="geometry" />
        </mxCell>
        <mxCell id="M1hFX3PX0yjQhxXQx2_H-5" value="" style="edgeStyle=orthogonalEdgeStyle;rounded=0;orthogonalLoop=1;jettySize=auto;html=1;" parent="1" source="M1hFX3PX0yjQhxXQx2_H-2" target="M1hFX3PX0yjQhxXQx2_H-4" edge="1">
          <mxGeometry relative="1" as="geometry" />
        </mxCell>
        <mxCell id="M1hFX3PX0yjQhxXQx2_H-2" value="&lt;div&gt;String search;&lt;/div&gt;&lt;div&gt;&lt;span style=&quot;background-color: initial;&quot;&gt;boolean ditemukan = false;&lt;/span&gt;&lt;/div&gt;" style="shape=hexagon;perimeter=hexagonPerimeter2;whiteSpace=wrap;html=1;fixedSize=1;" parent="1" vertex="1">
          <mxGeometry x="10" y="160" width="200" height="80" as="geometry" />
        </mxCell>
        <mxCell id="M1hFX3PX0yjQhxXQx2_H-7" value="" style="edgeStyle=orthogonalEdgeStyle;rounded=0;orthogonalLoop=1;jettySize=auto;html=1;" parent="1" source="M1hFX3PX0yjQhxXQx2_H-4" target="M1hFX3PX0yjQhxXQx2_H-6" edge="1">
          <mxGeometry relative="1" as="geometry" />
        </mxCell>
        <mxCell id="M1hFX3PX0yjQhxXQx2_H-4" value="input search" style="shape=parallelogram;perimeter=parallelogramPerimeter;whiteSpace=wrap;html=1;fixedSize=1;" parent="1" vertex="1">
          <mxGeometry x="50" y="280" width="120" height="60" as="geometry" />
        </mxCell>
        <mxCell id="8AiPTeq9QCTiXVmbhKZT-2" value="" style="edgeStyle=orthogonalEdgeStyle;rounded=0;orthogonalLoop=1;jettySize=auto;html=1;" parent="1" source="M1hFX3PX0yjQhxXQx2_H-6" target="8AiPTeq9QCTiXVmbhKZT-1" edge="1">
          <mxGeometry relative="1" as="geometry" />
        </mxCell>
        <mxCell id="M1hFX3PX0yjQhxXQx2_H-6" value="int i = 0" style="whiteSpace=wrap;html=1;" parent="1" vertex="1">
          <mxGeometry x="70" y="380" width="80" height="60" as="geometry" />
        </mxCell>
        <mxCell id="8AiPTeq9QCTiXVmbhKZT-4" value="" style="edgeStyle=orthogonalEdgeStyle;rounded=0;orthogonalLoop=1;jettySize=auto;html=1;exitX=1;exitY=0.5;exitDx=0;exitDy=0;" parent="1" source="8AiPTeq9QCTiXVmbhKZT-1" target="8AiPTeq9QCTiXVmbhKZT-3" edge="1">
          <mxGeometry relative="1" as="geometry" />
        </mxCell>
        <mxCell id="8AiPTeq9QCTiXVmbhKZT-6" value="" style="edgeStyle=orthogonalEdgeStyle;rounded=0;orthogonalLoop=1;jettySize=auto;html=1;" parent="1" source="8AiPTeq9QCTiXVmbhKZT-1" target="8AiPTeq9QCTiXVmbhKZT-5" edge="1">
          <mxGeometry relative="1" as="geometry" />
        </mxCell>
        <mxCell id="8AiPTeq9QCTiXVmbhKZT-1" value="i &amp;lt; namaBahan.length" style="rhombus;whiteSpace=wrap;html=1;" parent="1" vertex="1">
          <mxGeometry x="40" y="537" width="140" height="130" as="geometry" />
        </mxCell>
        <mxCell id="8AiPTeq9QCTiXVmbhKZT-12" value="" style="edgeStyle=orthogonalEdgeStyle;rounded=0;orthogonalLoop=1;jettySize=auto;html=1;" parent="1" source="8AiPTeq9QCTiXVmbhKZT-3" target="8AiPTeq9QCTiXVmbhKZT-11" edge="1">
          <mxGeometry relative="1" as="geometry" />
        </mxCell>
        <mxCell id="8AiPTeq9QCTiXVmbhKZT-26" value="" style="edgeStyle=orthogonalEdgeStyle;rounded=0;orthogonalLoop=1;jettySize=auto;html=1;entryX=0.5;entryY=1;entryDx=0;entryDy=0;" parent="1" source="8AiPTeq9QCTiXVmbhKZT-3" target="8AiPTeq9QCTiXVmbhKZT-25" edge="1">
          <mxGeometry relative="1" as="geometry">
            <mxPoint x="302" y="507" as="targetPoint" />
          </mxGeometry>
        </mxCell>
        <mxCell id="8AiPTeq9QCTiXVmbhKZT-3" value="search.equalsIgnoreCase&lt;br&gt;(namaBahan[i])" style="rhombus;whiteSpace=wrap;html=1;" parent="1" vertex="1">
          <mxGeometry x="222" y="527" width="160" height="150" as="geometry" />
        </mxCell>
        <mxCell id="8AiPTeq9QCTiXVmbhKZT-8" value="" style="edgeStyle=orthogonalEdgeStyle;rounded=0;orthogonalLoop=1;jettySize=auto;html=1;" parent="1" source="8AiPTeq9QCTiXVmbhKZT-5" target="pG6uJlkkliTHoBstKGtF-1" edge="1">
          <mxGeometry relative="1" as="geometry">
            <mxPoint x="110" y="880" as="targetPoint" />
          </mxGeometry>
        </mxCell>
        <mxCell id="Yn-ZvozeLAsPBVmbacFS-3" style="edgeStyle=orthogonalEdgeStyle;rounded=0;orthogonalLoop=1;jettySize=auto;html=1;exitX=1;exitY=0.5;exitDx=0;exitDy=0;entryX=1;entryY=0.5;entryDx=0;entryDy=0;" edge="1" parent="1" source="8AiPTeq9QCTiXVmbhKZT-5" target="8AiPTeq9QCTiXVmbhKZT-9">
          <mxGeometry relative="1" as="geometry" />
        </mxCell>
        <mxCell id="8AiPTeq9QCTiXVmbhKZT-5" value="!ditemukan" style="rhombus;whiteSpace=wrap;html=1;" parent="1" vertex="1">
          <mxGeometry x="55" y="750" width="110" height="100" as="geometry" />
        </mxCell>
        <mxCell id="8AiPTeq9QCTiXVmbhKZT-10" value="" style="edgeStyle=orthogonalEdgeStyle;rounded=0;orthogonalLoop=1;jettySize=auto;html=1;" parent="1" target="8AiPTeq9QCTiXVmbhKZT-9" edge="1">
          <mxGeometry relative="1" as="geometry">
            <mxPoint x="110" y="940" as="sourcePoint" />
          </mxGeometry>
        </mxCell>
        <mxCell id="8AiPTeq9QCTiXVmbhKZT-9" value="return" style="ellipse;whiteSpace=wrap;html=1;" parent="1" vertex="1">
          <mxGeometry x="50" y="970" width="120" height="60" as="geometry" />
        </mxCell>
        <mxCell id="8AiPTeq9QCTiXVmbhKZT-40" value="" style="edgeStyle=orthogonalEdgeStyle;rounded=0;orthogonalLoop=1;jettySize=auto;html=1;" parent="1" source="8AiPTeq9QCTiXVmbhKZT-11" target="8AiPTeq9QCTiXVmbhKZT-39" edge="1">
          <mxGeometry relative="1" as="geometry" />
        </mxCell>
        <mxCell id="8AiPTeq9QCTiXVmbhKZT-11" value="ditemukan = true" style="whiteSpace=wrap;html=1;" parent="1" vertex="1">
          <mxGeometry x="422" y="579.77" width="110" height="44.25" as="geometry" />
        </mxCell>
        <mxCell id="8AiPTeq9QCTiXVmbhKZT-16" value="" style="edgeStyle=orthogonalEdgeStyle;rounded=0;orthogonalLoop=1;jettySize=auto;html=1;" parent="1" source="8AiPTeq9QCTiXVmbhKZT-13" target="8AiPTeq9QCTiXVmbhKZT-15" edge="1">
          <mxGeometry relative="1" as="geometry" />
        </mxCell>
        <mxCell id="8AiPTeq9QCTiXVmbhKZT-13" value="int j = 0" style="whiteSpace=wrap;html=1;" parent="1" vertex="1">
          <mxGeometry x="1134" y="570.01" width="85" height="60" as="geometry" />
        </mxCell>
        <mxCell id="8AiPTeq9QCTiXVmbhKZT-18" value="" style="edgeStyle=orthogonalEdgeStyle;rounded=0;orthogonalLoop=1;jettySize=auto;html=1;" parent="1" source="8AiPTeq9QCTiXVmbhKZT-15" target="pG6uJlkkliTHoBstKGtF-4" edge="1">
          <mxGeometry relative="1" as="geometry">
            <mxPoint x="1454" y="600.5" as="targetPoint" />
          </mxGeometry>
        </mxCell>
        <mxCell id="8AiPTeq9QCTiXVmbhKZT-33" value="" style="edgeStyle=orthogonalEdgeStyle;rounded=0;orthogonalLoop=1;jettySize=auto;html=1;" parent="1" source="8AiPTeq9QCTiXVmbhKZT-15" target="8AiPTeq9QCTiXVmbhKZT-32" edge="1">
          <mxGeometry relative="1" as="geometry" />
        </mxCell>
        <mxCell id="8AiPTeq9QCTiXVmbhKZT-15" value="j &amp;lt; tabelBahan[i].length" style="rhombus;whiteSpace=wrap;html=1;" parent="1" vertex="1">
          <mxGeometry x="1274" y="538" width="137.5" height="125" as="geometry" />
        </mxCell>
        <mxCell id="8AiPTeq9QCTiXVmbhKZT-37" value="" style="edgeStyle=orthogonalEdgeStyle;rounded=0;orthogonalLoop=1;jettySize=auto;html=1;exitX=0.5;exitY=0;exitDx=0;exitDy=0;" parent="1" source="pG6uJlkkliTHoBstKGtF-4" edge="1">
          <mxGeometry relative="1" as="geometry">
            <mxPoint x="1539.5882352941176" y="497" as="targetPoint" />
            <mxPoint x="1539.6666666666665" y="570.5" as="sourcePoint" />
          </mxGeometry>
        </mxCell>
        <mxCell id="8AiPTeq9QCTiXVmbhKZT-28" style="edgeStyle=orthogonalEdgeStyle;rounded=0;orthogonalLoop=1;jettySize=auto;html=1;exitX=0;exitY=0.5;exitDx=0;exitDy=0;" parent="1" source="8AiPTeq9QCTiXVmbhKZT-25" edge="1">
          <mxGeometry relative="1" as="geometry">
            <mxPoint x="110" y="475" as="targetPoint" />
          </mxGeometry>
        </mxCell>
        <mxCell id="8AiPTeq9QCTiXVmbhKZT-25" value="i++" style="whiteSpace=wrap;html=1;" parent="1" vertex="1">
          <mxGeometry x="267" y="450" width="70" height="50" as="geometry" />
        </mxCell>
        <mxCell id="TOkIN6vqoNdVM6Vd9Xf_-5" style="edgeStyle=orthogonalEdgeStyle;rounded=0;orthogonalLoop=1;jettySize=auto;html=1;exitX=0;exitY=0.5;exitDx=0;exitDy=0;entryX=1;entryY=0.5;entryDx=0;entryDy=0;fontSize=12;" parent="1" source="8AiPTeq9QCTiXVmbhKZT-32" edge="1">
          <mxGeometry relative="1" as="geometry">
            <mxPoint x="1219" y="716.5" as="targetPoint" />
          </mxGeometry>
        </mxCell>
        <mxCell id="8AiPTeq9QCTiXVmbhKZT-32" value="break" style="whiteSpace=wrap;html=1;" parent="1" vertex="1">
          <mxGeometry x="1307.1200000000001" y="690" width="71.25" height="53" as="geometry" />
        </mxCell>
        <mxCell id="8AiPTeq9QCTiXVmbhKZT-38" style="edgeStyle=orthogonalEdgeStyle;rounded=0;orthogonalLoop=1;jettySize=auto;html=1;exitX=0;exitY=0.5;exitDx=0;exitDy=0;entryX=0.5;entryY=0;entryDx=0;entryDy=0;" parent="1" target="8AiPTeq9QCTiXVmbhKZT-15" edge="1">
          <mxGeometry relative="1" as="geometry">
            <mxPoint x="1501.81" y="473.5" as="sourcePoint" />
          </mxGeometry>
        </mxCell>
        <mxCell id="8AiPTeq9QCTiXVmbhKZT-36" value="j++" style="whiteSpace=wrap;html=1;" parent="1" vertex="1">
          <mxGeometry x="1501.81" y="450" width="75.63" height="47" as="geometry" />
        </mxCell>
        <mxCell id="TOkIN6vqoNdVM6Vd9Xf_-12" style="edgeStyle=orthogonalEdgeStyle;rounded=0;orthogonalLoop=1;jettySize=auto;html=1;exitX=1;exitY=0.5;exitDx=0;exitDy=0;entryX=0;entryY=0.5;entryDx=0;entryDy=0;fontSize=15;" parent="1" source="8AiPTeq9QCTiXVmbhKZT-39" target="TOkIN6vqoNdVM6Vd9Xf_-8" edge="1">
          <mxGeometry relative="1" as="geometry" />
        </mxCell>
        <mxCell id="8AiPTeq9QCTiXVmbhKZT-39" value="for each&amp;nbsp;&lt;br&gt;&lt;span style=&quot;background-color: initial;&quot;&gt;String tempVar : judulKolom&lt;/span&gt;&lt;div&gt;print tempVar + &quot; || &quot;&lt;/div&gt;" style="whiteSpace=wrap;html=1;" parent="1" vertex="1">
          <mxGeometry x="572" y="572.4" width="160" height="59" as="geometry" />
        </mxCell>
        <mxCell id="SyvzbmS0Q6EZC_UG0IVx-6" value="" style="edgeStyle=orthogonalEdgeStyle;rounded=0;orthogonalLoop=1;jettySize=auto;html=1;" parent="1" source="pG6uJlkkliTHoBstKGtF-2" target="8AiPTeq9QCTiXVmbhKZT-13" edge="1">
          <mxGeometry relative="1" as="geometry">
            <mxPoint x="1094" y="600.01" as="sourcePoint" />
          </mxGeometry>
        </mxCell>
        <mxCell id="TOkIN6vqoNdVM6Vd9Xf_-8" value="CB1" style="verticalLabelPosition=bottom;verticalAlign=top;html=1;shape=offPageConnector;rounded=0;size=0.5;spacingTop=-60;fontSize=15;" parent="1" vertex="1">
          <mxGeometry x="770" y="570.01" width="50" height="64.75" as="geometry" />
        </mxCell>
        <mxCell id="TOkIN6vqoNdVM6Vd9Xf_-16" style="edgeStyle=orthogonalEdgeStyle;rounded=0;orthogonalLoop=1;jettySize=auto;html=1;exitX=0;exitY=0.5;exitDx=0;exitDy=0;fontSize=15;" parent="1" source="TOkIN6vqoNdVM6Vd9Xf_-9" edge="1">
          <mxGeometry relative="1" as="geometry">
            <mxPoint x="110" y="716" as="targetPoint" />
          </mxGeometry>
        </mxCell>
        <mxCell id="TOkIN6vqoNdVM6Vd9Xf_-9" value="CB2" style="verticalLabelPosition=bottom;verticalAlign=top;html=1;shape=offPageConnector;rounded=0;size=0.5;spacingTop=-60;fontSize=15;" parent="1" vertex="1">
          <mxGeometry x="770" y="684.12" width="50" height="64.75" as="geometry" />
        </mxCell>
        <mxCell id="TOkIN6vqoNdVM6Vd9Xf_-10" value="CB2" style="verticalLabelPosition=bottom;verticalAlign=top;html=1;shape=offPageConnector;rounded=0;size=0.5;spacingTop=-60;fontSize=15;" parent="1" vertex="1">
          <mxGeometry x="1169" y="685.25" width="50" height="64.75" as="geometry" />
        </mxCell>
        <mxCell id="pG6uJlkkliTHoBstKGtF-3" style="edgeStyle=orthogonalEdgeStyle;rounded=0;orthogonalLoop=1;jettySize=auto;html=1;fontSize=11;entryX=0;entryY=0.5;entryDx=0;entryDy=0;" parent="1" target="pG6uJlkkliTHoBstKGtF-2" edge="1">
          <mxGeometry relative="1" as="geometry">
            <mxPoint x="920" y="600" as="sourcePoint" />
          </mxGeometry>
        </mxCell>
        <mxCell id="TOkIN6vqoNdVM6Vd9Xf_-11" value="CB1" style="verticalLabelPosition=bottom;verticalAlign=top;html=1;shape=offPageConnector;rounded=0;size=0.5;spacingTop=-60;fontSize=15;" parent="1" vertex="1">
          <mxGeometry x="870" y="568.62" width="50" height="64.75" as="geometry" />
        </mxCell>
        <mxCell id="2prmG0EIu2roESFNzh-T-1" value="cariBahan 1" style="text;strokeColor=none;fillColor=none;html=1;fontSize=24;fontStyle=1;verticalAlign=middle;align=center;" parent="1" vertex="1">
          <mxGeometry x="685" width="100" height="40" as="geometry" />
        </mxCell>
        <mxCell id="2prmG0EIu2roESFNzh-T-2" value="cariBahan 2" style="text;strokeColor=none;fillColor=none;html=1;fontSize=24;fontStyle=1;verticalAlign=middle;align=center;" parent="1" vertex="1">
          <mxGeometry x="1520" width="100" height="40" as="geometry" />
        </mxCell>
        <mxCell id="pG6uJlkkliTHoBstKGtF-1" value="&lt;span style=&quot;font-size: 12px;&quot;&gt;output&lt;br&gt;&quot;Data tidak ditemukan!&quot;&lt;/span&gt;" style="shape=parallelogram;perimeter=parallelogramPerimeter;whiteSpace=wrap;html=1;fixedSize=1;fontSize=11;" parent="1" vertex="1">
          <mxGeometry x="50" y="880" width="120" height="60" as="geometry" />
        </mxCell>
        <mxCell id="pG6uJlkkliTHoBstKGtF-2" value="&lt;span style=&quot;font-size: 12px;&quot;&gt;output&lt;/span&gt;&lt;br style=&quot;border-color: var(--border-color); font-size: 12px;&quot;&gt;&lt;span style=&quot;font-size: 12px;&quot;&gt;namaBahan[i] + &quot; || &quot;&lt;/span&gt;" style="shape=parallelogram;perimeter=parallelogramPerimeter;whiteSpace=wrap;html=1;fixedSize=1;fontSize=11;" parent="1" vertex="1">
          <mxGeometry x="950" y="570.01" width="140" height="60" as="geometry" />
        </mxCell>
        <mxCell id="pG6uJlkkliTHoBstKGtF-4" value="&lt;span style=&quot;font-size: 12px;&quot;&gt;output&lt;br&gt;tabelBahan[i][j] + &quot; || &quot;&lt;/span&gt;" style="shape=parallelogram;perimeter=parallelogramPerimeter;whiteSpace=wrap;html=1;fixedSize=1;fontSize=11;" parent="1" vertex="1">
          <mxGeometry x="1460" y="570.01" width="160" height="60" as="geometry" />
        </mxCell>
      </root>
    </mxGraphModel>
  </diagram>
  <diagram id="tebVyUI87GFnKbQe4jqx" name="laporanBahan">
    <mxGraphModel dx="1500" dy="773" grid="1" gridSize="10" guides="1" tooltips="1" connect="1" arrows="1" fold="1" page="1" pageScale="1" pageWidth="827" pageHeight="1169" math="0" shadow="0">
      <root>
        <mxCell id="0" />
        <mxCell id="1" parent="0" />
        <mxCell id="BM10GC0FEkOBLfILjF8C-3" value="" style="edgeStyle=orthogonalEdgeStyle;rounded=0;orthogonalLoop=1;jettySize=auto;html=1;" parent="1" source="BM10GC0FEkOBLfILjF8C-1" target="BM10GC0FEkOBLfILjF8C-2" edge="1">
          <mxGeometry relative="1" as="geometry" />
        </mxCell>
        <mxCell id="BM10GC0FEkOBLfILjF8C-1" value="laporanBahan()" style="ellipse;whiteSpace=wrap;html=1;" parent="1" vertex="1">
          <mxGeometry x="60" y="40" width="120" height="80" as="geometry" />
        </mxCell>
        <mxCell id="punrIqdebKR30MKywCr4-2" value="" style="edgeStyle=orthogonalEdgeStyle;rounded=0;orthogonalLoop=1;jettySize=auto;html=1;" parent="1" source="BM10GC0FEkOBLfILjF8C-2" target="punrIqdebKR30MKywCr4-1" edge="1">
          <mxGeometry relative="1" as="geometry" />
        </mxCell>
        <mxCell id="BM10GC0FEkOBLfILjF8C-2" value="time()" style="shape=process;whiteSpace=wrap;html=1;backgroundOutline=1;" parent="1" vertex="1">
          <mxGeometry x="60" y="150" width="120" height="60" as="geometry" />
        </mxCell>
        <mxCell id="punrIqdebKR30MKywCr4-4" value="" style="edgeStyle=orthogonalEdgeStyle;rounded=0;orthogonalLoop=1;jettySize=auto;html=1;" parent="1" source="punrIqdebKR30MKywCr4-1" target="punrIqdebKR30MKywCr4-3" edge="1">
          <mxGeometry relative="1" as="geometry" />
        </mxCell>
        <mxCell id="punrIqdebKR30MKywCr4-1" value="for each&amp;nbsp;&lt;br&gt;&lt;span style=&quot;background-color: initial;&quot;&gt;String tempVar : judulKolom&lt;/span&gt;&lt;div&gt;print tempVar + &quot; || &quot;&lt;/div&gt;" style="whiteSpace=wrap;html=1;" parent="1" vertex="1">
          <mxGeometry x="40" y="240" width="160" height="59" as="geometry" />
        </mxCell>
        <mxCell id="punrIqdebKR30MKywCr4-6" value="" style="edgeStyle=orthogonalEdgeStyle;rounded=0;orthogonalLoop=1;jettySize=auto;html=1;" parent="1" source="punrIqdebKR30MKywCr4-3" target="punrIqdebKR30MKywCr4-5" edge="1">
          <mxGeometry relative="1" as="geometry" />
        </mxCell>
        <mxCell id="punrIqdebKR30MKywCr4-3" value="int i = 0" style="whiteSpace=wrap;html=1;" parent="1" vertex="1">
          <mxGeometry x="60" y="340" width="120" height="60" as="geometry" />
        </mxCell>
        <mxCell id="punrIqdebKR30MKywCr4-8" value="" style="edgeStyle=orthogonalEdgeStyle;rounded=0;orthogonalLoop=1;jettySize=auto;html=1;" parent="1" source="punrIqdebKR30MKywCr4-5" target="qzGqB86Z7xgRKsdqsu0Z-1" edge="1">
          <mxGeometry relative="1" as="geometry">
            <mxPoint x="260" y="547.5" as="targetPoint" />
          </mxGeometry>
        </mxCell>
        <mxCell id="punrIqdebKR30MKywCr4-24" value="" style="edgeStyle=orthogonalEdgeStyle;rounded=0;orthogonalLoop=1;jettySize=auto;html=1;" parent="1" source="punrIqdebKR30MKywCr4-5" target="punrIqdebKR30MKywCr4-23" edge="1">
          <mxGeometry relative="1" as="geometry" />
        </mxCell>
        <mxCell id="punrIqdebKR30MKywCr4-5" value="i &amp;lt; tabelBahan.length" style="rhombus;whiteSpace=wrap;html=1;" parent="1" vertex="1">
          <mxGeometry x="50" y="492.5" width="140" height="110" as="geometry" />
        </mxCell>
        <mxCell id="punrIqdebKR30MKywCr4-10" value="" style="edgeStyle=orthogonalEdgeStyle;rounded=0;orthogonalLoop=1;jettySize=auto;html=1;exitX=1;exitY=0.5;exitDx=0;exitDy=0;" parent="1" source="qzGqB86Z7xgRKsdqsu0Z-1" target="punrIqdebKR30MKywCr4-9" edge="1">
          <mxGeometry relative="1" as="geometry">
            <mxPoint x="380" y="547.5" as="sourcePoint" />
          </mxGeometry>
        </mxCell>
        <mxCell id="punrIqdebKR30MKywCr4-12" value="" style="edgeStyle=orthogonalEdgeStyle;rounded=0;orthogonalLoop=1;jettySize=auto;html=1;" parent="1" source="punrIqdebKR30MKywCr4-9" target="qzGqB86Z7xgRKsdqsu0Z-2" edge="1">
          <mxGeometry relative="1" as="geometry">
            <mxPoint x="680" y="547.5" as="targetPoint" />
          </mxGeometry>
        </mxCell>
        <mxCell id="punrIqdebKR30MKywCr4-20" value="" style="edgeStyle=orthogonalEdgeStyle;rounded=0;orthogonalLoop=1;jettySize=auto;html=1;" parent="1" source="punrIqdebKR30MKywCr4-9" target="punrIqdebKR30MKywCr4-18" edge="1">
          <mxGeometry relative="1" as="geometry" />
        </mxCell>
        <mxCell id="punrIqdebKR30MKywCr4-9" value="j &amp;lt; tabelBahan[0].length" style="rhombus;whiteSpace=wrap;html=1;" parent="1" vertex="1">
          <mxGeometry x="460" y="490" width="140" height="115" as="geometry" />
        </mxCell>
        <mxCell id="punrIqdebKR30MKywCr4-16" value="" style="edgeStyle=orthogonalEdgeStyle;rounded=0;orthogonalLoop=1;jettySize=auto;html=1;exitX=0.5;exitY=1;exitDx=0;exitDy=0;" parent="1" source="qzGqB86Z7xgRKsdqsu0Z-2" target="punrIqdebKR30MKywCr4-15" edge="1">
          <mxGeometry relative="1" as="geometry">
            <mxPoint x="745" y="577.5" as="sourcePoint" />
          </mxGeometry>
        </mxCell>
        <mxCell id="punrIqdebKR30MKywCr4-17" style="edgeStyle=orthogonalEdgeStyle;rounded=0;orthogonalLoop=1;jettySize=auto;html=1;entryX=0.5;entryY=1;entryDx=0;entryDy=0;" parent="1" source="punrIqdebKR30MKywCr4-15" target="punrIqdebKR30MKywCr4-9" edge="1">
          <mxGeometry relative="1" as="geometry" />
        </mxCell>
        <mxCell id="punrIqdebKR30MKywCr4-15" value="j++" style="whiteSpace=wrap;html=1;" parent="1" vertex="1">
          <mxGeometry x="707.5" y="610" width="75" height="60" as="geometry" />
        </mxCell>
        <mxCell id="punrIqdebKR30MKywCr4-22" style="edgeStyle=orthogonalEdgeStyle;rounded=0;orthogonalLoop=1;jettySize=auto;html=1;exitX=0;exitY=0.5;exitDx=0;exitDy=0;" parent="1" source="punrIqdebKR30MKywCr4-18" edge="1">
          <mxGeometry relative="1" as="geometry">
            <mxPoint x="120" y="435" as="targetPoint" />
          </mxGeometry>
        </mxCell>
        <mxCell id="punrIqdebKR30MKywCr4-18" value="i++" style="whiteSpace=wrap;html=1;" parent="1" vertex="1">
          <mxGeometry x="490" y="410" width="80" height="50" as="geometry" />
        </mxCell>
        <mxCell id="punrIqdebKR30MKywCr4-23" value="return" style="ellipse;whiteSpace=wrap;html=1;" parent="1" vertex="1">
          <mxGeometry x="60" y="682.5" width="120" height="60" as="geometry" />
        </mxCell>
        <mxCell id="l8hEuwpAZwdEIie9SZiD-1" value="laporanBahan" style="text;strokeColor=none;fillColor=none;html=1;fontSize=24;fontStyle=1;verticalAlign=middle;align=center;" parent="1" vertex="1">
          <mxGeometry x="682.5" width="100" height="40" as="geometry" />
        </mxCell>
        <mxCell id="qzGqB86Z7xgRKsdqsu0Z-1" value="&lt;span style=&quot;font-size: 12px;&quot;&gt;output&lt;/span&gt;&lt;br style=&quot;border-color: var(--border-color); font-size: 12px;&quot;&gt;&lt;span style=&quot;font-size: 12px;&quot;&gt;namaBahan[i] + &quot; || &quot;&lt;/span&gt;" style="shape=parallelogram;perimeter=parallelogramPerimeter;whiteSpace=wrap;html=1;fixedSize=1;fontSize=11;" vertex="1" parent="1">
          <mxGeometry x="250" y="517.5" width="140" height="60" as="geometry" />
        </mxCell>
        <mxCell id="qzGqB86Z7xgRKsdqsu0Z-2" value="&lt;span style=&quot;font-size: 12px;&quot;&gt;output&lt;/span&gt;&lt;br style=&quot;border-color: var(--border-color); font-size: 12px;&quot;&gt;&lt;span style=&quot;font-size: 12px;&quot;&gt;tabelBahan[i][j] + &quot; || &quot;&lt;/span&gt;" style="shape=parallelogram;perimeter=parallelogramPerimeter;whiteSpace=wrap;html=1;fixedSize=1;fontSize=11;" vertex="1" parent="1">
          <mxGeometry x="673.75" y="517.5" width="142.5" height="60" as="geometry" />
        </mxCell>
      </root>
    </mxGraphModel>
  </diagram>
</mxfile>
